<svg xmlns="http://www.w3.org/2000/svg" xmlns:xlink="http://www.w3.org/1999/xlink" version="1.1" baseProfile="basic" x="0px" y="0px" xml:space="preserve" viewBox="4 6.11 90.99 88.86"><path fill="#000000" d="M55.812,53.695c-0.542-6.42,0.155-13.083-3.882-18.579c-0.284-0.387-0.729-0.444-1.088-0.311  c-2.676-2.646-7.392-2.816-10.907-2.834c-1.125-0.006-1.124,1.738,0,1.744c2.594,0.014,6.42,0.011,8.837,1.612  c-0.592,0.06-1.114,0.645-0.674,1.251c0.964,1.329,1.942,1.476,3.135,0.647c1.794,3.046,2.335,6.478,2.57,10.037  c0.114,1.716,0.13,3.439,0.185,5.158c0.021,0.656,0.082,1.306,0.137,1.959c0.164,1.946-1.245,3.343-2.776,1.282  c-0.662-0.893-2.177-0.023-1.505,0.882c1.068,1.438,2.452,2.415,4.281,1.95C56.121,57.987,55.938,55.206,55.812,53.695z"></path><path fill="#000000" d="M64.811,37.845c-0.91-3.343-4.977-2.803-7.201-4.649c-0.859-0.713-2.101,0.514-1.233,1.233  c0.98,0.814,2.133,1.238,3.329,1.637c0.431,0.145,0.927,0.287,1.407,0.468c-0.287,0.116-0.519,0.37-0.534,0.767  c-0.091,2.259,2.311,2.272,3.832,1.528C64.758,38.66,64.909,38.201,64.811,37.845z"></path><path fill="#000000" d="M61.354,59.205c0.06-0.838-1.274-1.234-1.625-0.441c-0.584,1.321-3.526,1.636-4.758,1.922  c-1.851,0.43-3.794,0.68-5.575,1.359c-1.04,0.398-0.589,2.085,0.463,1.684c2.096-0.802,4.407-1.072,6.581-1.6  c0.917-0.224,2.216-0.494,3.26-1.03c0.038,0.332,0.076,0.666,0.104,1.014c0.088,1.113,1.833,1.121,1.745,0  C61.471,61.134,61.284,60.188,61.354,59.205z"></path><path fill="#000000" d="M94.855,55.483c-0.11-0.666-1.032-0.813-1.458-0.385c-4.455,4.489-13.592,4.753-15.175-1.495  c1.214-0.083,2.432-0.403,3.382-0.849c2.607-1.22,3.197-3.51,2.818-5.914c0.178-2.53-0.477-5.195-1.999-6.706  c-0.438-1.427-1.099-2.76-1.982-3.879c1.009-0.119,2.008-0.423,2.923-0.854c2.944-1.387,2.792-5.31,2.605-7.986  c-0.071-1.024-1.345-1.133-1.713-0.231c-0.832,2.044-2.79,2.592-4.896,2.581c-1.319-3.875-6.876-7.287-10.723-6.741  c-0.43-4.152-3.977-8.04-8.299-8.842C56.261,7.398,46.466,2.796,39.868,9.116c-0.62,0.593-1.199,1.387-1.71,2.303  c-6.184-2.669-15.43,0.808-17.664,7.243c-0.449,1.294-0.71,2.593-0.806,3.869c-0.998,0.104-1.999-0.139-2.977-0.964  c-0.802-0.677-1.945,0.365-1.366,1.097c-0.075,0.152-0.12,0.325-0.092,0.527c0.453,3.271,2.586,4.566,4.972,4.468  c1.3,4.336,4.695,7.784,9.44,8.829c0.204,0.597,0.382,1.206,0.543,1.818c0.014,0.604,0.029,1.207,0.051,1.811  c-0.338,0.718-0.763,1.414-1.3,2.075c-1.448,1.78-8.527,5.868-9.505,1.856c-0.235-0.962-1.728-0.75-1.713,0.231  c0.084,5.584,5.551,8,10.19,6.13c-1.042,1.738-2.369,3.259-4.177,4.353c-2.915,1.761-7.218,2.104-10.505,1.513  c-1.8-0.324-3.062-1.455-4.078-2.84c-0.239-1.448,0.172-3.003,1.279-4.451c0.336-0.438,0.141-0.869-0.224-1.092  c-0.073-0.112-0.167-0.211-0.278-0.283c-0.238-0.275-0.622-0.421-0.979-0.261c-1.708-0.234-3.276,0.441-4.095,2.113  c-0.025,0.053-0.043,0.105-0.059,0.157c-0.187,0.17-0.332,0.393-0.396,0.673C0.034,69.155,31.262,85.85,41.137,68.191  c0.235-0.099,0.455-0.257,0.635-0.5c0.119-0.16,0.224-0.328,0.333-0.492c6.421,2.475,8.709,10.424,10.721,16.737  c-3.277,0.095-6.859,0.526-9.648,2.231c-0.958,0.586-0.082,2.094,0.88,1.506c2.522-1.541,5.776-1.908,8.747-1.993  c-0.151,0.978,0.071,1.957,0.894,2.706c1.045,0.952,2.615,1.263,3.987,1.147c1.27-0.107,2.787-0.626,3.159-1.996  c0.074-0.275,0.086-0.545,0.057-0.807c3.23,1.593,5.719,4.656,7.355,7.801c0.519,0.998,2.025,0.116,1.506-0.881  c-2.16-4.148-5.762-8.14-10.417-9.366c-0.442-0.39-0.908-0.729-1.305-1.005c-0.025-3.775-0.037-7.543,0.277-11.314  c0.33-3.957,2.652-4.777,6.034-5.44c-0.784,2.905,0.267,5.979,3.288,7.423c0.921,0.441,1.882,0.644,2.84,0.588  c0.059,1.521,0.254,3.038,0.884,4.409c1.1,2.394,3.302,3.585,5.786,4.146c1.642,0.369,2.487-1.733,1.121-2.657  c-1.442-0.976-2.507-2.708-2.366-4.267c4.683,1.085,10.351,0.278,13.879-2.971c0.452-0.418,0.263-1.348-0.385-1.459  c-3.269-0.557-8.318-3.562-8.218-7.146C86.759,68.116,96.229,63.786,94.855,55.483z M64.254,64.771  c-2.669,0.503-5.905,1.037-6.983,3.925c-1.967,5.265-0.975,11.949-0.957,17.45c0.004,1.125,1.749,1.125,1.745,0  c-0.001-0.141-0.001-0.281-0.003-0.421c0.075,0.041,0.157,0.076,0.257,0.098c0.054,0.011,0.107,0.028,0.161,0.041  c0.139,0.141,0.264,0.283,0.366,0.427c0.173,0.237,0.247,0.396,0.286,0.515c0.013,0.043,0.025,0.087,0.034,0.133  c0.002,0.007,0.003,0.008,0.004,0.013c0,0.003,0,0.004,0,0.008c0.002,0.036,0.002,0.072,0,0.108c0,0.004,0,0.004-0.001,0.007  c-0.005,0.025-0.008,0.041-0.011,0.054c-0.025,0.052-0.039,0.081-0.045,0.097c0.001-0.007-0.001-0.009-0.013,0.005  c-0.023,0.027-0.119,0.11-0.152,0.142c-0.069,0.046-0.138,0.092-0.211,0.131c-0.039,0.021-0.078,0.042-0.119,0.061l-0.012,0.006  c-0.01,0.004-0.019,0.006-0.036,0.013c-0.113,0.044-0.229,0.077-0.347,0.108c-0.35,0.095-0.356,0.086-0.61,0.106  c-0.245,0.021-0.489,0.02-0.733,0.008c-0.34-0.016-0.299-0.012-0.664-0.091c-0.558-0.119-0.786-0.202-1.238-0.527  c0.058,0.038-0.119-0.105-0.143-0.131c-0.033-0.033-0.067-0.066-0.099-0.103c-0.01-0.011-0.014-0.015-0.021-0.021  c-0.005-0.008-0.008-0.013-0.016-0.023c-0.177-0.255-0.138-0.164-0.212-0.51c-0.007-0.077-0.007-0.153-0.006-0.231  c0.002-0.224-0.014-0.047,0.033-0.276c0.066-0.325,0.182-0.577,0.33-0.854c0.214-0.402,0.092-0.782-0.159-1.03  c-2.259-7.006-4.758-15.413-11.693-18.303c2.289-4.556,2.167-10.341,1.452-15.22c-0.498-3.394-1.626-6.528-3.045-9.637  c-1.47-3.218-3.788-6.391-4.655-9.865c1.396-0.472,2.718-1.054,3.951-1.757c1.776-0.591,3.077-1.768,4.181-3.161  c0.549-0.543,1.081-1.108,1.57-1.721c0.891,1.68,2.097,3.169,3.82,4.087c1.659,0.885,3.328,0.542,4.771-0.324  c0.072-0.005,0.146-0.005,0.216-0.011c0.761-0.068,1.205-0.599,1.345-1.187c0.029-0.028,0.06-0.055,0.09-0.083  c0.014,2.079,0.665,3.931,2.787,5.351c2.473,1.657,5.98,1.746,9.031,1.623c-2.142,2.93-4.876,5.184-3.467,9.349  c0.754,2.227,2.789,3.557,4.992,4.271C64.274,50.508,61.897,58.675,64.254,64.771z"></path></svg>