<svg xmlns="http://www.w3.org/2000/svg" xmlns:xlink="http://www.w3.org/1999/xlink" version="1.1" x="0px" y="0px" style="enable-background:new 0 0 200 200;" xml:space="preserve" viewBox="46.79 15.96 106.6 166.65"><g><path d="M95.8,81.4c2.3,0.3,4.7,0.6,7,0.9c0.6,0.1,1.1-0.6,1.1-1.1c0-0.7-0.5-1.1-1.1-1.1c-2.5-0.3-5-0.6-7.5-0.9   c-2.2-0.3-4.4-0.4-6.4,0.6c-1.3,0.6-0.1,2.5,1.1,1.9C91.8,80.8,93.9,81.2,95.8,81.4z"></path><path d="M123.1,83.1c-3.6-1.8-7.5-2.9-11.5-3.3c-0.6-0.1-1.1,0.6-1.1,1.1c-0.1,0.7,0.4,1.1,1,1.2c3.6,0.4,7.2,1.4,10.4,3   c0.5,0.3,1.2,0.1,1.6-0.4C123.8,84.2,123.6,83.4,123.1,83.1z"></path><path d="M100.9,89.8c0.9-0.8,0.9-2.3,0.1-3.2c-0.9-1-2.3-1-3.5-1c-1.4,0-2.8-0.1-4.3-0.1c-0.6,0-1.2,0.5-1.1,1.1   c0,0.7,0.5,1.2,1.1,1.3c1.6,0,3.3,0.1,4.9,0.1c-0.1,0.6,0.1,1.3,0.6,1.7C99.3,90.3,100.3,90.4,100.9,89.8z"></path><path d="M117.5,88c-1-0.4-2.1-0.8-3.2-1.1c-0.6-0.2-1.3,0.2-1.4,0.8c0.1,0.6,0.4,1.2,1,1.4c0.7,0.2,1.3,0.4,1.9,0.6   c0.2,0.1,0.3,0.1,0.5,0.2c0.1,0,0.2,0.1,0.2,0.1s0.3,0.1,0.1,0c0.3,0.1,0.5,0.2,0.8,0.3c-0.1,0.1-0.1,0.3-0.1,0.5   c0,0.7,0.3,1.3,0.7,1.8c0.4,0.4,0.8,0.6,1.3,0.4c0.3-0.1,0.6-0.2,0.8-0.4c0.4-0.4,0.6-0.9,0.6-1.5c0-0.6-0.2-1.1-0.6-1.6   C119.5,88.8,118.4,88.4,117.5,88z"></path><path d="M104.5,121.7c0.2-0.1,0.4-0.3,0.5-0.6c0.5,1.4,1.8,1.9,3.2,2.2c2.6,0.6,5.9,0.9,7.8-1.4c1-1.1-0.6-2.7-1.6-1.6   c-1.5,1.8-4.5,1.2-6.5,0.6c-0.7-0.2-0.8-0.5-0.9-1.2s0-1.5,0-2.2c0-1.6,0.1-3.3,0.2-4.9c0.5-6.5,1.4-12.9,0.8-19.4   c-0.1-1.5-2.4-1.6-2.3-0.1c0.7,7.6-0.7,15.1-1,22.7c-0.1,1.3-0.2,2.7,0,4c-0.1-0.1-0.3-0.2-0.5-0.2c-0.5-0.1-0.9-0.2-1.4-0.4   c0.1,0,0.2,0.1,0.3,0.1c-0.4-0.2-0.8-0.4-1.2-0.7c0.1,0.1,0.2,0.1,0.2,0.2c-0.2-0.2-0.5-0.4-0.7-0.6c-0.4-0.4-1.2-0.4-1.6,0   c-0.5,0.5-0.5,1.2,0,1.6c1,1.1,2.4,1.8,3.8,2C103.9,121.8,104.2,121.9,104.5,121.7z"></path><path d="M116.5,128.7c-2.3-0.8-4.7-1.5-7.2-2c-1.9-0.4-3.9-0.6-5.7,0.1c-1.9,0.8-3,2.8-2.5,4.9c0.6,2.2,2.8,3.3,4.9,2.8   c1.4-0.3,0.8-2.5-0.6-2.2c-1.3,0.3-2.4-0.8-2.2-2.1c0.2-1.2,1.6-1.6,2.6-1.7c1.5-0.1,3,0.3,4.5,0.6c1.8,0.4,3.6,1,5.4,1.6   C117.2,131.3,117.8,129.2,116.5,128.7z"></path><path d="M72.5,37.6c1.3,0.8,2.4-1.2,1.2-1.9c-1.5-0.9-2.5-2.5-2.7-4.2c-0.2-1.8,0.5-3.6,1.8-4.8c0.6-0.5,1.3-1,2.1-1.2   c0.5-0.1,1.2-0.1,1.2,0.4c0.1,0.7-0.1,1.6-0.4,2.2c-0.3,0.6-0.6,1-1.2,0.9c-0.6,0-1.1,0.6-1.1,1.1c0,0.7,0.5,1.1,1.1,1.1   c2,0.1,3.3-1.8,3.7-3.6c0.2-1,0.4-2.3-0.2-3.2c-0.5-0.9-1.5-1.3-2.5-1.3c-2-0.1-4,1.3-5.2,2.8c-1.3,1.7-1.9,3.8-1.6,6   C69,34.3,70.4,36.4,72.5,37.6z"></path><path d="M150.8,49.4c-1.9-2.6-5.7-6.5-9.2-5.2c-1.4,0.5-0.8,2.7,0.6,2.2c1.3-0.5,2.7,0.4,3.7,1.2s2,1.7,2.8,2.7   c1.6,2.1,2.5,4.6,2.5,7.2c0,3.3-1.5,6.4-4,8.3c0-0.2,0-0.4,0-0.6c-0.2-2.4-0.5-4.9-1.1-7.3c-0.5-2.4-1.4-4.7-2.9-6.6   c-2.6-3.2-6.8-5-10.9-4.6c-0.3-1.1-0.7-2.2-1.2-3.3c-0.2-0.3-0.3-0.5-0.5-0.8c0.5-0.2,1-0.4,1.5-0.6c4.9-2.4,4.2-8.8,2-12.8   c-2.7-4.9-7.6-8-12.7-9.7c-2.8-0.9-6-1.9-8.9-1.4c-2.5,0.4-4.8,2.1-5.1,4.7c-0.4,2.8,1.8,5.7,4.3,6.9c1.3,0.6,2.8,0.7,4-0.1   c1.2-0.8,1.8-2.2,1.4-3.5c-0.4-1.4-2.6-0.8-2.2,0.6c0.3,0.8-0.7,1.3-1.4,1.2c-1-0.1-2-1-2.6-1.7c-1.3-1.4-1.8-3.5-0.2-4.9   c1.7-1.5,4.1-1.2,6.2-0.7c2.3,0.5,4.5,1.2,6.7,2.1c3.7,1.7,7,4.4,8.9,8.1c1.5,3,2.1,7.9-1.7,9.4c-0.5,0.2-1.1,0.4-1.7,0.5   c-1-1-2.1-1.9-3.2-2.6c-2.2-1.6-4.6-2.9-7.1-4c-5-2.2-10.9-2.9-15.9-0.4c-0.1,0.1-0.2,0.1-0.4,0.2c-2.3-3.6-6.4-5.9-10.7-6.2   c-4.9-0.3-9.4,2.4-11.9,6.5c-2.4,4.1-3.1,10.5,0.9,13.8s10.1,1.6,11.9-3.3c0.9-2.4,0.3-5.5-1.9-6.9c-2.2-1.3-5.1-0.4-6,2   c-0.5,1.4,1.7,2,2.2,0.6c0.5-1.5,2.6-0.9,3.3,0.1c1,1.4,0.6,3.4-0.3,4.7c-2.1,3.1-6.9,3.1-8.9-0.2c-1.9-3.2-0.7-7.7,1.4-10.6   c2.1-2.9,5.5-4.6,9-4.4c3.7,0.2,7.1,2.2,9.1,5.2c-1.2,1-2.1,2.2-2.7,3.7c-0.9,2.3-0.6,5,1,6.8c1.6,1.8,4.5,2.5,6.6,1.2   c2-1.3,2.8-4,1.6-6.1c-0.7-1.3-2.7-0.1-2,1.1c0.7,1.3-0.1,3-1.5,3.3c-1.7,0.4-3.4-0.9-3.8-2.5c-1.3-4.4,3.5-7.3,7.1-8.1   c4.4-0.9,8.9,0.4,12.8,2.4c2.2,1.1,4.6,2.5,6.6,4.2c-0.9,0.1-1.9,0.1-2.8,0.2c-2.5,0.1-5-0.2-7.4-1.2c-0.6-0.2-1.2,0.3-1.4,0.8   c-0.2,0.7,0.2,1.2,0.7,1.4c2.7,1.1,5.6,1.4,8.5,1.2c1.4-0.1,2.8-0.2,4.2-0.4c0.4,0.5,0.8,1.1,1.1,1.6c0.4,0.7,0.6,1.5,0.8,2.3   c-4,1.2-7.3,4.6-8.4,8.7c-0.4,1.4,1.8,2,2.2,0.6c0.9-3.3,3.5-5.9,6.6-7.1c0.1,0.9,0.1,1.7,0.2,2.6c0.1,2.8,0,5.6,0.1,8.3   c0,1.4,2.3,1.4,2.3,0c0-3,0-6-0.1-9c0-0.8-0.1-1.6-0.2-2.4c3.4-0.3,7.1,1.5,9,4.3c1.3,1.9,1.9,4.1,2.4,6.4c0.4,2.1,0.7,4.2,0.8,6.3   c0,0.4,0,0.9,0,1.3c-0.9,0.3-1.8,0.5-2.8,0.5c-3,0.1-5.7-1.5-7.2-4c-0.8-1.3-2.8-0.2-2,1.1c1.7,2.8,4.5,4.7,7.8,5.1   c1.4,0.2,2.8,0,4.2-0.4c-0.1,2.9-0.7,5.9-1.9,8.7c-1,2.2-2.4,4-4,5.8c-0.9,1-1.7,2.1-2.4,3.2c-0.1-0.3-0.3-0.6-0.4-0.8   c-0.1-0.2-0.2-0.3-0.3-0.4c0-5.5-1.1-10.8-4.4-15.5c-2.1-3-4.7-5.8-7.3-8.4c-2.6-2.8-5.4-5.5-8.2-8.1c-1.2-1.1-2.5-2.4-4-3.3   c-1.6-0.9-3.3-1.1-5.1-0.6c-1.7,0.5-3.3,1.4-4.9,2.3c-1.6,0.9-3.1,1.9-4.6,3c-2.8,2.1-5.6,4.3-6.6,7.8c-0.5,1.6-0.7,3.3-1.5,4.8   c-0.7,1.4-1.7,2.6-2.8,3.7c-2.5,2.7-5.1,5.2-6.7,8.5c-1.7,3.6-2.6,7.4-3.4,11.3c0,0.3,0.1,0.5,0.2,0.7c0,0.1-0.1,0.2-0.1,0.3   c-0.1,1.8-0.1,3.6-0.2,5.4c-0.9,0.8-1.9,1.5-3,2c-0.6-1.4-0.7-3.2-0.7-4.3c-0.1-3.4-0.2-6.7-0.4-10.1c0-1.4-2.3-1.4-2.2,0   c0.1,3.9,0.1,8,0.5,11.9c0.1,1.2,0.4,2.4,0.9,3.4c-1.9,0.7-3.9,1.1-5.9,1c-0.2-1.6-0.3-3.2-0.3-4.8c0-3.3,0.5-6.6,2.2-9.5   c1.6-2.6,4-4.7,6.3-6.7c2.4-2.1,4.7-4.2,6.7-6.7c4.7-5.7,7.8-13,6.1-20.4c0,0,0,0,0,0c4.4,0.2,9-1.4,9.2-6.3   c0.2-1.4-2.1-1.4-2.2,0.1c-0.2,3.5-4.6,4.2-7.4,4c-3-0.2-5.8-1.5-7.5-4.1c-1.5-2.3-2.4-5.1-4.3-7.1c-2-2.2-5-2.9-7.8-2.4   c-6.2,1.1-9.2,8.1-7.8,13.8c0.7,2.8,2.5,5.3,5.3,6.2c1.6,0.5,3.5,0.5,5.1,0.4c1.5-0.1,3-0.6,3.9-1.9c1.8-2.6,0.6-6.9-1.7-8.8   c-2.4-2-6.1-1.8-7.9,0.9c-0.8,1.2,1.2,2.4,2,1.1c1.3-2,4.2-1,5.3,0.7c0.6,1,1,2.3,0.9,3.5c-0.1,1.4-1,2.1-2.4,2.2   c-2.7,0.3-5.7,0-7.3-2.5c-1.3-2.1-1.6-4.8-1-7.2c0.6-2.5,2.1-4.7,4.4-5.8c2.2-1,5-0.9,6.9,0.7c1.8,1.6,2.7,4,3.8,6.1   c1.2,2.2,2.9,4.1,5.2,5.2c1,0.4,2.1,0.8,3.3,1c-0.2,0.2-0.4,0.6-0.3,1c1.6,7.2-2,14.3-6.7,19.5c-4.4,4.9-10.8,8.5-13.4,14.9   c-1.3,3.2-1.5,6.9-1.3,10.3c0.1,0.8,0.1,1.6,0.2,2.3c-2.3-0.4-4.6-1.3-6.6-2.7c0.3-1.3,0.7-2.7,1.2-3.9c1.3-3.2,3.3-6.2,5.3-9   c2.1-3.1,4.2-6.2,6.3-9.3c0.7-1-1.2-2.2-2.1-0.9c-2.3,3.4-4.6,6.9-6.9,10.3c-2,3.1-4,6.2-5.2,9.7c-0.2,0.5-0.3,1.1-0.5,1.6   c0,0-0.1-0.1-0.1-0.1c-4.6-4.3-6.7-10.8-4.6-16.8c1-2.8,2.9-5.3,5.6-6.6c3.4-1.7,7.5-0.9,11.2-1.6c7.1-1.3,12.7-7.6,13.6-14.7   c0.2-1.5-2.1-1.5-2.2,0c-0.9,7-7,12.2-13.9,12.7c-3.9,0.3-7.8,0.1-11.1,2.4c-2.7,1.9-4.5,4.7-5.5,7.9c-2,6.5,0.4,13.6,5.3,18.2   c0.4,0.4,0.8,0.7,1.2,1.1c-0.8,5.1-0.1,10.4,2,15.1c2.7,6,7.9,11.2,14.5,12.7c2.9,0.7,6.7,0.8,9.2-1.2c2.4-2,2.1-5.3,0.3-7.6   c-1.9-2.4-6-3.9-8.6-1.7c-1.2,1-1.3,2.7-0.5,4c0.8,1.3,2.3,1.9,3.6,1.1c1.3-0.7,0.1-2.7-1.1-2c-0.5,0.3-0.8-0.9-0.7-1.2   c0.4-0.9,2-0.8,2.8-0.7c1.9,0.4,4,2.4,3.7,4.5c-0.3,2.6-3.9,2.8-5.9,2.7c-2.6-0.1-5.1-1.1-7.3-2.5c-7.2-4.5-10.7-13.4-9.9-21.8   c2.3,1.4,4.8,2.3,7.4,2.7c0.3,1.4,0.8,2.7,1.4,4c1.3,2.7,3.6,4.8,6.4,5.9c2.5,0.9,5.5,1,8.2,0.1c0.4,0.9,0.9,1.8,1.4,2.7   c2.3,3.9,4.8,7.7,7.2,11.5c2,3.3,4.1,6.6,6.2,9.9c-0.9,1.3-1.9,2.5-2.9,3.6c-0.9,1-2.1,2.1-3.2,3c0,0,0,0,0-0.1   c-1.1-2.6-3.4-4.7-6.2-5.2c-3-0.5-6.6,1.1-7.4,4.3c-0.8,3,1.7,6.6,4.9,6.2c1.4-0.2,1.4-2.4,0-2.3c-2.1,0.3-3.5-2.2-2.5-4   c1.1-1.9,3.7-2.5,5.7-1.7c2,0.8,3.5,2.8,3.8,4.9c0.4,2.3-0.6,4.5-2.3,6c-3.9,3.6-9.7,2.3-12.9-1.5c-1.7-2-2.6-4.6-2.8-7.2   c-0.2-2.5,0-5.6,2-7.5c1.9-1.9,4.6-2.7,6.9-4.1c2.6-1.7,4.8-3.9,6.5-6.4c0.7-0.9-1.2-2.1-2-0.9c-1.9,2.8-4.3,5-7.3,6.5   c-2.6,1.4-5.5,2.5-7,5.2c-1.6,2.8-1.6,6.7-1,9.8c0.4,2,1.3,3.9,2.5,5.6c0,0.1-0.1,0.2-0.1,0.2c-0.8,5.1,0.8,10.3,3.8,14.4   s7.3,7.2,11.8,9.5c8.7,4.5,18.7,7.2,28.5,6.2c5.4-0.5,10.6-2.2,15.1-5.2c1.2-0.8,0.1-2.8-1.1-2c-7.6,5.1-17,6-25.8,4.4   c-4.5-0.8-8.8-2.2-13-4.1c-4.3-2-8.6-4.5-11.9-8c-3.3-3.5-5.7-8.3-5.3-13.3c0.1,0.1,0.1,0.1,0.2,0.2c0,0.1,0,0.1,0,0.2   c0.2,4.3,3.2,7.5,6.5,10c3.7,2.8,8,5.1,12.2,6.9c8.6,3.7,18.1,5.2,27.3,3c4.8-1.2,9.4-3.3,13.2-6.5c1.1-0.9-0.5-2.5-1.6-1.6   c-6.4,5.3-14.9,7.3-23,6.8c-8.9-0.6-17.4-4.3-24.8-9.1c-2.9-1.9-6.4-4.5-7.3-8.2c2,1,4.3,1.4,6.6,1.2c2.9-0.4,5.5-2.1,7.1-4.5   c1.1-1.7,1.6-3.7,1.4-5.6c0,0,0.1,0,0.1-0.1c2.6-2,4.8-4.3,6.7-6.8c1.1,1.8,2.1,3.5,3.4,5.2c1.1,1.5,2.5,2.6,4.4,2.9   c2,0.4,4.1,0.4,6.2,0.5c0.6,0,1.2,0,1.8,0.1c-4.9,6.3-6.7,14.7-4.6,22.4c0.4,1.4,2.6,0.8,2.2-0.6c-2-7.6,0.1-16.1,5.4-21.9   c0.6,0,1.2-0.1,1.8-0.1c2-0.2,3.9-0.7,5.5-1.9c0.8-0.6,1.5-1.3,2.2-2c-0.1,1.2,0,2.5,0.3,3.7c0.8,3.9,3.3,7.9,7,9.6   c3.6,1.7,9.6,0.6,11.6-3.2c0.8-1.6,0.9-3.7-0.2-5.3c-1.2-1.7-3.5-2.2-5.5-2.2c-2,0.1-4.3,1.1-4.7,3.2c-0.4,1.9,0.8,3.9,2.8,4.1   c1.5,0.1,1.4-2.1,0-2.3c-0.8-0.1-0.6-1.5-0.3-1.9c0.8-1,2.5-0.9,3.7-0.7c1.4,0.3,2.5,1,2.5,2.5c0,1.4-0.9,2.5-2,3.1   c-2.8,1.6-6.3,1.5-8.8-0.6c-2.1-1.9-3.5-4.5-4-7.2c-0.6-2.9,0-6.1,2-8.4c0.2-0.2,0.3-0.5,0.3-0.7c1.1-1.8,2-3.7,2.7-5.8   c1.7-4.3,2.5-8.8,2.7-13.3c0.2-3,0.2-6,0.4-9.1c0.3,0.3,0.5,0.5,0.8,0.7c1.6,1,3.5,1.1,5.2,0.3c1.6-0.7,2.9-2.2,3.2-3.9   c0.4-1.9-0.2-3.8-1.4-5.2c-1.1-1.2-2.6-1.9-4.2-2c0.7-3.1,0.6-6.3-0.1-9.4c0.1-0.1,0.2-0.3,0.2-0.5c0.4-2.4,2-4.1,3.5-5.8   c1.5-1.7,2.7-3.6,3.6-5.7c1.5-3.3,2.1-6.9,2.1-10.5c0.7-0.4,1.5-0.9,2.1-1.4C154.4,62.6,154.5,54.6,150.8,49.4z M71.5,111.3   c-2.5-1.2-4.2-3.5-5.1-6c-0.2-0.4-0.3-0.8-0.4-1.2c1.8,0,3.6-0.3,5.3-0.9c0.3-0.1,0.5-0.2,0.8-0.3c0,0-0.1,0.1-0.1,0.1   c-1.4,1.8-1.6,4.5-1,6.7c0.2,0.9,0.7,1.5,1.4,1.9C72.1,111.5,71.8,111.4,71.5,111.3z M135.4,101c-0.1,0.1-0.1,0.2-0.1,0.3   c-0.2,0.6-0.4,1.2-0.7,1.8c-0.6-0.4-1.5-0.3-1.7,0.6c-1.6,8-0.4,16.3-2.5,24.3c-1,3.6-2.4,7-4.3,10.2c-1.8,2.9-4.1,6.5-7.4,7.7   c-1.8,0.7-3.8,0.7-5.7,0.7c-2.1,0-4.2,0-6.3-0.2c-1.8-0.1-3.8-0.1-5.1-1.6c-1.3-1.4-2.2-3.3-3.3-4.9c-4.6-7.3-9.2-14.6-13.8-22   c-1.1-1.7-2-3.4-2.8-5.1c5-3.2,6.7-10.2,3.8-15.4c-0.7-1.3-2.7-0.1-2,1.1c2,3.5,1.3,8-1.3,10.9c0.8-2,0.2-4.3-1.4-5.6   c-0.6-0.5-1.2-0.8-1.9-1c-0.1-1.3-0.2-2.6-0.2-4c3.3-3.1,5.6-7.4,6-12c0.1-1.5-2.1-1.4-2.3,0c-0.3,3.2-1.7,6.2-3.7,8.7   c0-1.1,0.1-2.1,0.1-3.2c0-0.1,0-0.1,0-0.1c0,0,0,0,0-0.1c0.7-3.2,1.4-6.4,2.6-9.4c1.2-2.9,3-5.3,5.2-7.6c2-2.1,4.1-4.2,5.3-6.9   c0.6-1.5,0.9-3.1,1.3-4.6c0.5-1.7,1.5-2.9,2.8-4.1c2.5-2.2,5.2-4.1,8.1-5.6c1.5-0.8,3.3-1.9,5.1-1.8c1.6,0.1,2.8,1.3,3.9,2.3   c5.3,4.7,10.4,9.8,14.9,15.2c2.4,2.9,4.2,6.2,5,9.9s0.7,7.6,0.3,11.4c-0.1,1.5,2,1.4,2.3,0C136.5,94.2,136.4,97.7,135.4,101z"></path><path d="M97.7,26c0.6,0.3,1.4,0.3,2,0.3c0.8,0,1.6,0,2.4-0.1c1.7-0.3,3.3-1.6,3.3-3.4c0-0.6-0.5-1.1-1.1-1.1   c-0.6,0-1.1,0.5-1.1,1.1c0,0.1,0,0.1-0.1,0.2c0-0.2-0.1,0.2-0.1,0.2c0.1-0.1-0.2,0.2-0.2,0.2c-0.1,0-0.1,0.1-0.2,0.1   c-0.5,0.3-1.1,0.4-1.7,0.4c-0.7,0-1.5,0-2-0.1c-0.5-0.1-0.7-0.3-0.9-0.8c-0.2-0.6-0.2-1-0.3-1.6c0-0.6,0-1.1,0-1.7   c0-0.1,0-0.1,0-0.1c0,0,0,0,0-0.1c0-0.1,0-0.3,0.1-0.4c0-0.1,0.1-0.3,0.1-0.4c0-0.1,0.1-0.1,0.1-0.2c0.1-0.1,0.1-0.2,0.2-0.3   c-0.1,0.2,0.1-0.1,0.1-0.1l0.1-0.1c0.1-0.1,0.2-0.1,0.4-0.2c0.6-0.3,0.7-1.1,0.4-1.6c-0.4-0.3-1-0.3-1.6-0.1c-2.3,1-2.4,4-2.2,6.1   C95.6,23.8,96,25.3,97.7,26z"></path><path d="M63.5,140.9c-1.4,0.5-3.1,0.1-4.1-1.1s-0.9-2.8-0.4-4.2c1.4-3.6,5.7-4.5,9.1-5.1c0.6-0.1,0.9-0.9,0.8-1.4   c-0.1-0.5-0.7-0.8-1.3-0.7c-3.6,0.5-7.5,1.6-9.7,4.7c-2,2.8-2.1,6.9,0.8,9.1c1.5,1.1,3.6,1.5,5.4,0.9   C65.5,142.6,64.9,140.4,63.5,140.9z"></path></g></svg>