<svg xmlns="http://www.w3.org/2000/svg" xmlns:xlink="http://www.w3.org/1999/xlink" version="1.1" x="0px" y="0px" style="enable-background:new 0 0 200 200;" xml:space="preserve" viewBox="27.63 20.22 144.38 157.89"><g><path d="M37.3,91.8c0-0.2,0.1-0.3,0.1-0.4v-0.1c0,0,0-0.1,0.1-0.1v-0.1c0-0.1,0-0.2,0.1-0.2c0-0.1,0-0.1,0.1-0.1c0,0,0,0,0-0.1   s0.1-0.2,0,0c0.1-0.1,0.2-0.2,0.3-0.3c0,0,0.1,0,0.1-0.1c0,0-0.3,0.2-0.2,0.1c0.1,0,0.1-0.1,0.2-0.1c0.1,0,0.1-0.1,0.2-0.1   c-0.3,0.1-0.1,0,0,0h0.1c0,0,0,0,0,0c0,0,0,0,0,0c0,0,0,0,0,0c0.4-0.1,0.8-0.1,1.1-0.4c0.3-0.3,0.5-0.7,0.4-1.1   c0-0.4-0.1-0.8-0.4-1.1c-0.3-0.3-0.7-0.5-1.1-0.5c-0.6,0.1-1,0.2-1.5,0.4c-0.3,0.2-0.7,0.4-1,0.7c-0.6,0.5-1,1.3-1.3,2   c-0.6,1.5-0.3,3.3,0.8,4.5c0.5,0.6,1.6,0.6,2.1,0c0.6-0.6,0.6-1.5,0-2.1c0,0,0,0,0-0.1c-0.1-0.1-0.1-0.2-0.2-0.2   c0.1,0.1,0.1,0.2,0.1,0.2c0,0,0,0,0,0c0-0.1-0.1-0.1-0.1-0.2c0-0.3,0-0.6,0-0.9C37.4,91.5,37.4,91.7,37.3,91.8z"></path><path d="M43.9,103.2l0.1-0.1c0.1-0.1,0.3-0.2,0.4-0.2c0.1,0,0.2-0.1,0.2-0.1c0.2-0.1,0.4-0.1,0.6-0.1c0.8-0.1,1.3-1.1,1-1.8   c-0.4-0.8-1.1-1.1-1.9-1c-1.2,0.2-2.2,0.8-3,1.7c-0.2,0-0.4,0-0.6,0.1h-0.1c0,0,0,0-0.1,0s-0.1,0-0.1,0h-0.1c-0.1,0-0.2,0-0.3,0   c-0.1,0-0.2,0-0.3-0.1c-0.1,0-0.1,0-0.2-0.1c-0.1-0.1-0.1-0.1-0.1,0c-0.1-0.1-0.2-0.1-0.3-0.2l0,0c0-0.1-0.1-0.1-0.2-0.2   c0,0,0.1,0.1,0.1,0.1c0,0,0,0,0,0l-0.1-0.1c-0.1,0-0.1,0-0.1,0c-0.1-0.1-0.1-0.1-0.2-0.2c-0.1-0.1-0.1-0.3-0.2-0.4v-0.1   c0-0.1,0-0.3-0.1-0.3c0-0.1,0-0.2,0-0.3c0-0.1,0-0.2,0.1-0.3c0-0.1,0-0.1,0.1-0.2c-0.1,0.2-0.1,0.2,0,0.1c0-0.1,0.1-0.2,0.1-0.2   c0.1-0.1,0.1-0.2,0.2-0.3c0.1-0.1,0.2-0.2,0.3-0.4c0,0,0,0,0.1,0s0.1-0.1,0.2-0.1c0.1,0,0.2-0.1,0.2-0.1c0.1,0,0.1-0.1,0.2-0.1   c-0.2,0.1-0.3,0.1-0.1,0c0.1,0,0.2-0.1,0.3-0.1h0.1h0.1c0.1,0,0.1,0,0.1,0c0.1,0,0.2,0,0.2,0c0.8,0,1.4-0.6,1.5-1.4   c0.6,1,1.5,1.9,2.5,2.5c1.2,0.6,2.5,0.8,3.8,0.6c0.8-0.1,1.3-1.1,1-1.8c-0.5-0.5-1.2-0.9-2-0.8c-0.1,0-0.1,0-0.1,0   c-0.1,0-0.2,0-0.3,0h-0.1h-0.1h-0.1c0,0,0,0-0.1,0c-0.1,0-0.2,0-0.3-0.1c-0.1,0-0.2,0-0.3-0.1h-0.1c-0.1-0.1-0.2-0.1-0.3-0.2   c-0.1-0.1-0.2-0.1-0.3-0.2c-0.2-0.1-0.3-0.3-0.5-0.5l-0.1-0.2l-0.1-0.1c-0.1-0.2-0.2-0.4-0.4-0.6c0-0.1,0-0.1,0.1,0.1   c0-0.1,0-0.1-0.1-0.2c0-0.1-0.1-0.2-0.1-0.4c0-0.1,0-0.2-0.1-0.3c0-0.1,0-0.1,0-0.1c0-0.1,0-0.2,0-0.3v-0.1c0,0,0-0.2,0.1-0.3   c0-0.1,0-0.1,0.1-0.2c-0.1,0.2-0.1,0.2,0,0.1c0.1-0.1,0.1-0.2,0.2-0.3l0.1-0.1l0.1-0.1l0.1-0.1c0,0,0.1-0.1,0.2-0.1   c0.3,0.1,0.5,0.1,0.8,0.1c1,0.4,1.9,0.6,3,0.5c0.8,0,1.5-0.7,1.5-1.5c0-0.9-0.6-1.6-1.5-1.6c-0.2,0-0.5,0-0.7,0   c-0.1,0-0.2,0-0.3-0.1c-0.2-0.1-0.5-0.1-0.7-0.2c-0.1,0-0.1,0-0.2-0.1c0.2,0.1,0.3,0.1,0.1,0c-0.1,0-0.2-0.1-0.2-0.1   c-0.2-0.1-0.3-0.2-0.5-0.3c0.1,0.1,0,0.1,0,0l0,0c0,0,0-0.1-0.1-0.1c-0.1-0.1-0.1-0.1-0.2-0.2c0-0.1-0.1-0.2-0.2-0.3   c-0.1-0.1-0.1-0.1-0.1-0.2v-0.1c0-0.1,0-0.2-0.1-0.3c0-0.1,0-0.1,0-0.2c0-0.2,0.1-0.4,0.1-0.6c0-0.1,0.1-0.2,0.1-0.2   c0-0.1,0.1-0.1,0.1-0.2c0-0.1,0.1-0.1,0.1-0.1c0,0,0,0,0,0c0,0,0.1,0,0.1-0.1c0.1,0,0.2-0.1,0.2-0.1C45.9,87,45.9,87,46,87h0.1h0.1   h0.1c0.8,0,1.5-0.7,1.5-1.5S47.1,84,46.3,84c-2-0.1-3.7,1.7-4,3.6c-0.2,1,0,2,0.5,2.9c-1,0.8-1.6,2.1-1.6,3.4c0,0.5,0.1,1,0.2,1.5   c-0.3-0.4-0.7-0.6-1.2-0.6c-2.2,0-4.3,1.6-4.8,3.8c-0.6,2.1,0.5,4.4,2.5,5.4c0.7,0.4,1.4,0.6,2.1,0.6c-0.1,2,0.9,3.8,2.6,4.9   c0.7,0.4,1.7,0.2,2.1-0.5c0.4-0.7,0.2-1.6-0.5-2.1c-0.1-0.1-0.2-0.1-0.2-0.2c-0.1-0.1-0.3-0.2-0.4-0.4c0-0.1-0.1-0.1-0.1-0.2   l-0.2-0.4c0-0.1-0.1-0.2-0.1-0.2c0-0.1,0-0.2-0.1-0.2v-0.1c0,0,0,0,0-0.1c0-0.1,0-0.2,0-0.2v-0.1v-0.1c0-0.2,0.1-0.3,0.1-0.4   c0,0,0,0,0-0.1c0-0.1,0.1-0.2,0.1-0.3s0.1-0.1,0.1-0.2c0,0,0,0,0-0.1c0,0,0,0,0.1,0l0,0c0.1-0.1,0.2-0.2,0.3-0.3L43.9,103.2z"></path><path d="M44.6,95.9C44.7,96,44.7,95.9,44.6,95.9L44.6,95.9z"></path><path d="M43.4,105.8c0,0,0-0.1-0.1-0.1C43.4,105.9,43.4,105.9,43.4,105.8z"></path><path d="M43.2,104.2C43.3,104.1,43.2,104.2,43.2,104.2L43.2,104.2z"></path><path d="M46.7,76.6c0-0.1,0.1-0.1,0.1-0.2C46.7,76.5,46.7,76.6,46.7,76.6z"></path><path d="M45.4,70.4l-0.1,0.1C45.3,70.6,45.3,70.5,45.4,70.4z"></path><path d="M57.6,75.5c0.8-1.3,1.1-2.8,0.8-4.3c-0.1-0.8-1.1-1.3-1.8-1c-0.8,0.3-1.2,1-1,1.8c0,0,0,0,0,0.1c0,0.1,0,0.3,0,0.4   l-0.1,0.3c0,0.1-0.1,0.2-0.1,0.3c0,0-0.1,0.1-0.1,0.2c0.1-0.2-0.1,0.2-0.1,0.2c-0.1,0.1-0.1,0.2-0.2,0.3c-0.1,0.1-0.1,0.2-0.2,0.3   c0.2-0.3,0,0-0.1,0c-0.1,0.1-0.2,0.2-0.3,0.3c0,0-0.1,0.1-0.2,0.1c-0.2,0.1-0.4,0.2-0.5,0.3c0,0,0.1-0.1-0.1,0   c-0.1,0-0.2,0.1-0.4,0.1c0,0-0.4,0.1-0.2,0c-0.1,0-0.2,0-0.2,0c-0.1,0-0.2,0-0.3,0h-0.1c-0.2,0-0.5-0.1-0.7-0.2   c-0.1,0-0.1,0-0.2-0.1c0-0.4-0.1-0.8-0.4-1.1c-0.5-0.5-1.1-0.9-1.7-1C49,72,48.5,71.8,47.9,72c-0.1,0.1-0.2,0.3-0.3,0.4   c-0.5,0.1-1,0.2-1.4,0.4c-0.8,0.4-1.4,1-1.8,1.7c0.1-0.3,0.2-0.7,0.1-1.1c0-0.2,0-0.3,0-0.4s0-0.2,0-0.3v-0.1v-0.1v-0.1   c0,0,0,0,0-0.1c0-0.1,0-0.2,0.1-0.3c0.1-0.2,0.1-0.4,0.2-0.6c0.1-0.3-0.1,0.2,0-0.1c0.1-0.1,0.1-0.2,0.2-0.3   c0.1-0.2,0.2-0.4,0.3-0.5c0.1-0.1,0.1-0.2,0.2-0.3c0.2-0.2,0.3-0.3,0.5-0.5c0.1-0.1,0.2-0.1,0.3-0.2c0.2-0.1,0.4-0.3,0.6-0.3H47   c0.1,0,0.2-0.1,0.3-0.1c0.2-0.1,0.4-0.1,0.7-0.2c0,0,0,0,0.1,0c0.1,0,0.2,0,0.3,0c0.2,0,0.5,0,0.7,0h0.1c0.1,0,0.2,0,0.3,0.1   c0.2,0.1,0.5,0.1,0.7,0.2c0.7,0.3,1.7-0.3,1.8-1c0.2-0.9-0.3-1.6-1-1.8c-2.4-0.9-5.1-0.3-7,1.3c-1.9,1.6-2.7,4.2-2.3,6.6   c0.1,0.8,1.1,1.3,1.8,1c0.3-0.1,0.6-0.3,0.7-0.6c-0.4,0.8-0.7,1.8-0.7,2.7c0,0.1,0,0.3,0,0.4c-0.2-0.1-0.4-0.2-0.6-0.1   c-1,0.1-1.9,0.5-2.7,1.2c-0.7,0.6-1.2,1.4-1.5,2.3c-0.6,1.7-0.3,3.8,1,5.1c0.5,0.6,1.6,0.6,2.1,0c0.6-0.6,0.6-1.5,0-2.1   c-0.1-0.1-0.2-0.4,0,0c0-0.1-0.1-0.1-0.1-0.2l-0.2-0.4c0,0,0.2,0.4,0.1,0.1c0-0.1,0-0.1-0.1-0.2c0,0,0-0.1,0-0.1c0,0,0-0.1,0-0.1   c0-0.2,0-0.3,0-0.5c0-0.1,0-0.1,0-0.2v-0.1c0-0.1,0-0.1,0-0.1c0-0.1,0.1-0.3,0.1-0.4s0.2-0.4,0,0.1c0-0.1,0.1-0.1,0.1-0.2   c0.1-0.1,0.1-0.3,0.2-0.4c0-0.1,0.1-0.1,0.1-0.2c0.1-0.1,0.1-0.1,0.2-0.2l0.1-0.1c0.1-0.1,0.2-0.1,0.3-0.2c0.1,0,0.3-0.2,0.1,0   c-0.3,0.1,0,0,0.1,0c0.2,0,0.7-0.1,0.1-0.1c0.4-0.1,0.8-0.1,1.1-0.4v0.1c0.1,0.4,0.3,0.7,0.7,0.9c0.3,0.2,0.8,0.3,1.2,0.2   c0.7-0.2,1.3-1.1,1-1.8c-0.2-0.4-0.3-0.8-0.3-1.3v0.1c-0.1-0.4-0.1-0.8,0-1.2c0,0.1,0,0.1-0.1,0.2c0-0.2,0.1-0.4,0.1-0.6   c0-0.1,0.1-0.2,0.1-0.3c0-0.1,0-0.1,0-0.1c0.1-0.2,0.2-0.3,0.3-0.4c0.1-0.1,0.1-0.1,0.2-0.2c0.1-0.1,0.1-0.1,0.2-0.2   c0.2-0.2-0.3,0.2-0.1,0c0.1-0.1,0.3-0.2,0.4-0.2c0.3-0.2-0.3,0.1-0.1,0c0.1,0,0.1-0.1,0.2-0.1c1.3,2.1,3.9,3.3,6.4,2.7   C55.6,77.7,56.8,76.8,57.6,75.5z"></path><path d="M52.8,82C52.9,82,52.9,81.9,52.8,82L52.8,82z"></path><path d="M53.6,80.4c0-0.4-0.2-0.8-0.4-1.1c-0.3-0.3-0.7-0.5-1.1-0.4c-0.4,0-0.7,0.2-1.1,0.5c-1.2,1.1-1.7,3-1.2,4.5   c0.1,0.4,0.3,0.7,0.7,0.9c0.3,0.2,0.8,0.3,1.2,0.2s0.7-0.3,0.9-0.7c0.2-0.3,0.3-0.8,0.2-1.2c-0.1-0.2-0.1-0.3-0.1-0.5   c0-0.3,0.1-0.5,0.1-0.6c0,0,0-0.1,0.1-0.1c0.1-0.1,0.2-0.2,0.3-0.4C53.5,81.3,53.6,80.8,53.6,80.4z"></path><path d="M52.9,81.9C52.9,81.9,52.9,81.9,52.9,81.9c0,0-0.1,0.1-0.1,0.1C52.9,81.9,52.9,81.9,52.9,81.9z"></path><path d="M52.8,82.2c0,0.1,0,0.3-0.1,0.4c0,0.1,0,0.3,0.1,0.4C52.8,82.7,52.8,82.5,52.8,82.2z"></path><path d="M58.8,69.4C58.9,69.7,58.9,69.5,58.8,69.4L58.8,69.4z"></path><path d="M58.9,70.1c0,0.8,0.7,1.5,1.5,1.5c0.8,0,1.5-0.7,1.5-1.5c0.1-2.4-2-4.5-4.4-4.5s-4.5,2.2-4.4,4.5c0,0.8,0.7,1.5,1.5,1.5   c0.8-0.3,1.5-0.9,1.5-1.7c0-0.1,0-0.2,0-0.3c0-0.1,0-0.2,0.1-0.2c0-0.1,0.2-0.3,0,0.1c0.1-0.1,0.1-0.2,0.2-0.3c0,0,0.1,0,0.1-0.2   c0,0,0,0,0.1-0.1c0.1-0.1,0.1-0.1,0.2-0.2c0.1-0.1,0.3-0.2,0.4-0.2c0.1,0,0.2,0,0.2-0.1h0.1h0.1c0.1,0,0.2,0,0.2,0.1   c0.1,0,0.1,0,0.1,0c0,0,0,0,0,0c0.1,0.1,0.2,0.1,0.3,0.2c0,0,0,0,0.1,0.1c0,0,0,0,0,0c0,0,0.1,0.1,0.1,0.1c0,0,0.1,0.1,0.1,0.1   c0.1,0.1,0.1,0.1,0.2,0.2c0.1,0.1,0.1,0.2,0.1,0.2v-0.1c0.1,0.2,0.1,0.3,0.1,0.5C58.9,69.9,58.9,69.9,58.9,70.1   C58.9,70.1,58.9,70.1,58.9,70.1z"></path><path d="M58,68.6C58,68.6,57.9,68.5,58,68.6C57.9,68.6,58,68.6,58,68.6z"></path><path d="M65,73.1c0.7,0.1,1.4,0,2.1-0.3c1.5-0.6,2.9-1.8,3.2-3.4c0.2-0.8-0.2-1.7-1-1.8c-0.7-0.2-1.7,0.2-1.8,1   c0,0.1,0,0.2-0.1,0.4c0,0.1-0.1,0.1-0.1,0.2l-0.1,0.1c-0.1,0.1-0.2,0.2-0.3,0.2c-0.1,0-0.1,0.1-0.2,0.1c-0.1,0.1-0.3,0.2-0.4,0.2   c0.5-0.2,0,0-0.2,0c0,0-0.1,0-0.1,0c0,0,0,0-0.1,0c-0.3,0-0.5,0-0.8,0c0.1,0,0.3,0,0.4,0.1c-0.3,0-0.5-0.1-0.7-0.2   c-0.1,0,0.4,0.2,0.1,0.1c-0.1,0-0.1-0.1-0.2-0.1s-0.1-0.1-0.2-0.1c-0.3-0.2,0.3,0.2,0.1,0.1c-0.3-0.3-0.6-0.4-1.1-0.4   c-0.4,0-0.8,0.2-1.1,0.4c-0.5,0.7-0.7,1.7,0,2.3C63.2,72.6,64,73,65,73.1z"></path><path d="M55.1,63.5c0.1,0,0.2,0.1,0.2,0.1c0.1,0,0.1,0.1,0.1,0.1s0,0,0.1,0.1c0.2,0.3,0.5,0.6,0.9,0.7c0.4,0.1,0.8,0.1,1.2-0.2   c0.6-0.4,1-1.4,0.5-2.1c-0.9-1.3-2.4-2.1-4-2c-1.6,0.1-3.1,0.8-3.9,2.2c-0.4,0.7-0.2,1.7,0.5,2.1c0.7,0.6,1.6,0.4,2-0.4   c0.1-0.1,0.1-0.2,0.2-0.3c0.1-0.1,0.1-0.1,0.2-0.2c0.1-0.1,0.2-0.1,0.3-0.1c-0.1,0-0.2,0.1-0.2,0.1c0.1,0,0.2-0.1,0.3-0.1   s0.2-0.1,0.3-0.1c0.3,0,0.6,0,1,0c-0.1,0-0.3,0-0.4-0.1C54.6,63.3,54.8,63.4,55.1,63.5C55,63.4,55,63.4,55.1,63.5z"></path><path d="M39.8,107.6C39.8,107.6,39.7,107.5,39.8,107.6C39.7,107.5,39.7,107.5,39.8,107.6c-0.1-0.1-0.1-0.2-0.1-0.2   c0-0.1,0-0.1,0-0.2c0.1-0.4,0-0.8-0.2-1.2c-0.2-0.3-0.5-0.6-0.9-0.7c-0.4-0.1-0.8-0.1-1.2,0.2c-0.3,0.3-0.6,0.6-0.7,1   c-0.1,0.3-0.1,0.7-0.1,1s0.1,0.7,0.2,1c0.1,0.2,0.2,0.4,0.3,0.6c0.1,0.2,0.3,0.4,0.4,0.5c0.1,0.1,0.1,0.2,0.2,0.2   c0.2,0.2,0.4,0.3,0.6,0.4c0.2,0.1,0.4,0.2,0.6,0.2c0.2,0,0.4,0,0.6,0c0.3-0.1,0.7-0.4,0.9-0.7c0.2-0.3,0.3-0.8,0.2-1.2   C40.4,108.1,40.2,107.8,39.8,107.6z M39.6,107.2C39.6,107.2,39.6,107.2,39.6,107.2C39.6,107.2,39.6,107.2,39.6,107.2   C39.6,107.2,39.6,107.2,39.6,107.2z M39.6,107.5c0.1,0,0.1,0,0.1,0.1C39.6,107.5,39.6,107.5,39.6,107.5z"></path><path d="M33.2,88.8c0-0.1,0-0.1,0.1-0.1c0,0,0,0,0-0.1c0-0.1,0.1-0.2,0.1-0.3v0.1c0.1-0.2,0.2-0.4,0.4-0.5C33.7,88,33.6,88,33.6,88   c0.1,0,0.1-0.1,0.2-0.1c0,0,0-0.1,0.1-0.1l-0.1,0.1c0.1,0,0.1-0.1,0.2-0.1c0,0,0.1,0,0.1,0c0.1,0,0.2,0,0.3,0   c0.8,0,1.5-0.7,1.5-1.5c0.1-1-0.5-1.6-1.4-1.7c-1.5-0.1-2.8,0.8-3.6,2.1c-0.8,1.3-0.9,2.8-0.2,4.2c0.4,0.7,1.4,1,2.1,0.5   s0.9-1.3,0.5-2.1c0,0.1,0.1,0.1,0.1,0.2c0-0.1-0.1-0.2-0.1-0.3c0-0.2,0-0.3,0-0.6c0,0.1,0,0.3-0.1,0.4c0-0.1,0-0.2,0.1-0.3   C33.2,88.7,33.2,88.7,33.2,88.8z M34.1,87.8C34,87.8,34,87.8,34.1,87.8C34,87.8,34,87.8,34.1,87.8z"></path><path d="M33.4,88.4c-0.1,0.1-0.1,0.1-0.1,0.2C33.3,88.5,33.4,88.4,33.4,88.4z"></path><path d="M33.3,88.7C33.3,88.7,33.3,88.7,33.3,88.7C33.3,88.6,33.3,88.6,33.3,88.7C33.3,88.6,33.3,88.6,33.3,88.7   C33.3,88.6,33.3,88.6,33.3,88.7z"></path><path d="M74.9,70.6c2.9,1.1,6.8,0.2,7.9-3c0.3-0.8-0.3-1.6-1-1.8c-0.8-0.2-1.6,0.3-1.8,1c0,0,0,0,0,0.1c0,0,0,0-0.1,0.1   c0,0.1-0.3,0.4-0.1,0.1c-0.1,0.1-0.2,0.2-0.2,0.2c-0.1,0.1-0.2,0.2-0.1,0.1c-0.1,0.1-0.2,0.2-0.4,0.2c0,0-0.4,0.2-0.2,0.1   c-0.2,0.1-0.5,0.2-0.7,0.2c0,0-0.5,0.1-0.2,0c-0.1,0-0.3,0-0.4,0c-0.2,0-0.5,0-0.7,0h-0.1c-0.1,0-0.1,0-0.1,0   c-0.1,0-0.3-0.1-0.4-0.1c-0.1,0-0.2-0.1-0.3-0.1c-0.1,0-0.2,0-0.3-0.1l-0.2-0.1c-0.1-0.1-0.3-0.1-0.4-0.2c-0.2-0.1-0.5-0.3-0.7-0.4   l-0.1-0.1c-0.1-0.1-0.2-0.2-0.3-0.3c-0.2-0.2-0.4-0.4-0.5-0.6c0,0,0,0-0.1-0.1s-0.2-0.2-0.2-0.4c-0.1-0.2-0.3-0.5-0.4-0.7   c0,0,0,0,0-0.1c0-0.1-0.1-0.3-0.1-0.4c0-0.1-0.1-0.3-0.1-0.4s-0.1-0.5,0-0.2c-0.1-0.8-0.6-1.5-1.5-1.5c-0.9,0.1-1.8,0.8-1.7,1.6   C69.8,66.9,71.9,69.5,74.9,70.6z"></path><path d="M50.8,92.6c0.2-0.1,0.3-0.1,0.4-0.2C51.1,92.5,50.9,92.5,50.8,92.6z"></path><path d="M50.8,92.6C50.8,92.6,50.8,92.6,50.8,92.6C50.8,92.6,50.8,92.6,50.8,92.6C50.8,92.6,50.8,92.6,50.8,92.6   C50.8,92.6,50.8,92.6,50.8,92.6C50.8,92.6,50.8,92.6,50.8,92.6C50.8,92.6,50.8,92.6,50.8,92.6C50.7,92.7,50.7,92.7,50.8,92.6   C50.7,92.7,50.7,92.7,50.8,92.6z"></path><path d="M53.1,93.3c0-0.2-0.1-0.3-0.1-0.4C53,93,53.1,93.2,53.1,93.3z"></path><path d="M138.4,78.8c0.2-0.1,0.4,0,0.7,0c-0.8-0.7-1.7-1.4-2.5-2c0.2,0.3,0.3,0.6,0.3,0.9c0,0.4-0.1,0.7-0.3,0.9v0.1   c0,0.2,0,0.3,0,0.5c0,0.1,0,0.1,0.1,0.2c0.1,0.1,0.1,0.2,0.1,0.2c0.2,0,0.3,0,0.5,0c-0.1,0-0.1,0-0.2,0.1c0,0,0,0,0.1,0h0.1   c0,0,0.1,0,0.1-0.1c0,0,0,0,0.1,0c0,0,0.1,0,0.2-0.1c0,0,0,0,0.1-0.1C137.8,79.1,138,78.9,138.4,78.8z"></path><path d="M59.4,85.4c0.1,0.1,0.1,0.1,0.2,0.1C59.6,85.5,59.5,85.4,59.4,85.4z"></path><path d="M59.3,85.1c0-0.1-0.1-0.2-0.1-0.2C59.2,85,59.3,85,59.3,85.1z"></path><path d="M108.6,68.5c0,0.1,0,0.1,0.1,0.2c0-0.2,0-0.3,0-0.4C108.7,68.4,108.7,68.5,108.6,68.5z"></path><path d="M152.7,107.8c-0.4-0.5-0.9-0.6-1.3-0.5c-0.7-7.2-2.3-14.2-5.9-20.5c-0.3-0.4-0.5-0.9-0.8-1.3c-0.1,0.7-0.5,1.3-1.4,1.3   c-1.9,0-1.9-3,0-3c0.1,0,0.2,0,0.3,0c-1-1.4-2.1-2.7-3.3-3.9c0,0.4,0,0.9-0.2,1.2c-0.3,0.5-0.6,0.8-1.1,1.1   c-0.4,0.3-0.7,0.4-1.1,0.5c-1.5,0.4-3.2-0.2-4-1.6c-0.3-0.6-0.5-1.4-0.5-2.1c0-0.4,0.1-0.8,0.2-1.1c0.2-0.5,0.4-0.8,0.7-1.2   c0.2-0.3,0.7-0.4,1-0.5c0.1,0,0.2,0,0.2,0c-4.2-2.5-8.9-3.7-13.6-4.3c-2.2-0.3-4.3-0.5-6.5-0.6c1.3-0.8,2.4-1.9,2.5-3.5   c0.1-1.9-1.7-4-3.7-3.3c-0.4,0.1-0.7,0.3-0.9,0.7c-0.2,0.3-0.3,0.8-0.2,1.2c0.1,0.7,0.9,1.2,1.6,1.1c0,0.1,0,0.2,0,0.3   c-0.2,0.2-0.3,0.4-0.5,0.5c-0.4,0.3-0.9,0.6-1.2,0.8c-0.1,0.1-0.3,0.2-0.4,0.3c-0.2-0.1-0.5-0.2-0.7-0.1c-0.7,0.1-1.5,0.2-2.2,0.1   c0.1,0,0.1,0,0.2,0.1c-0.3,0-0.6-0.1-0.9-0.2c0,0,0,0,0-0.1c-0.1-0.1-0.1-0.1-0.2-0.2c-0.1,0-0.1-0.1-0.1-0.2   c-0.1-0.1-0.2-0.3-0.2-0.4c0.1,0.1,0.1,0.1,0.1,0.2v-0.1c0-0.1,0-0.1,0.1-0.2c0.3-0.7-0.3-1.7-1-1.8c-1.2-0.2-2,0.2-2.2,1   c-0.4,1.2,0,2.4,0.8,3.3c-0.3,0-0.6,0-0.9,0c-5.9-0.1-11.8,0-17.6,0.4c-5.3,0.3-10.7,0.7-16,1.6c-4.3,0.7-8.6,2-12.1,4.7   c-4,3-6.1,7.1-7.2,11.7c0.9,0.1,1.6,0.5,2.3,1c0.9,0.7,1.3,1.7,1.4,2.8c0.2,2.1-1.2,4.2-3.2,4.8c-0.6,0.2-1.1,0-1.5-0.4   c-0.1,2.5,0,5.1,0.2,7.5c-0.2-0.1-0.5-0.1-0.8,0.1c-6.8,2.7-5.4,11.3-5.1,17.1c0.3,5.5-0.2,14.8,7.3,15.6c0.3,0,0.5,0,0.7-0.1   c0,8.6,1,17.3,6.4,24.3c2.9,3.7,6.9,6.4,11.5,7.4c2.7,0.6,5.4,0.8,8.2,1.1c2.7,0.3,5.3,0.8,8,1.6c5.2,1.6,10.2,4.1,15.5,5.3   c4.7,1,9.6,1.1,14.4,0.2c9.5-1.8,17.6-7.4,23-15.4c4.9-7.2,7.6-15.6,9.8-24c0.4,0.3,0.9,0.3,1.5,0.1c5.3-2.8,5.9-9.5,5.5-15   C157.2,117.8,156.4,112.1,152.7,107.8z M127.3,78.7c0.1-0.8,0.3-1.7,0.4-2.6c0-0.4,0.4-0.7,0.7-0.9c0.4-0.3,0.8-0.3,1.2-0.2   c0.4,0.1,0.7,0.4,0.9,0.7c0.1,0.2,0.2,0.4,0.2,0.6c0.1,0.2,0.1,0.4,0,0.6c-0.1,0.8-0.3,1.7-0.4,2.6c-0.1,0.4-0.4,0.7-0.7,0.9   c-0.4,0.3-0.8,0.3-1.2,0.2c-0.4-0.1-0.7-0.4-0.9-0.7c-0.1-0.2-0.2-0.4-0.2-0.6C127.2,79.1,127.2,78.9,127.3,78.7z M114.9,67.5   c0,0-0.1,0-0.2-0.1c0.1,0.1,0,0.1,0,0C114.8,67.4,114.9,67.5,114.9,67.5z M110.9,77.4c0.5-0.6,1.5-0.6,2.1,0   c0.1,0.1,0.1,0.1,0.2,0.2c0.2,0.1,0.3,0.2,0.5,0.3c0.1,0,0.2,0.1,0.3,0.1c0.2,0,0.3,0.1,0.5,0.1c0.1,0,0.2,0,0.3-0.1   c0.1,0,0.1,0,0.2,0s0.1-0.1,0.2-0.1l0.1-0.1c0,0,0.1,0,0.1-0.1c0.1-0.1,0.2-0.1,0.2-0.2l-0.1,0.1c0.1-0.2,0.1-0.3,0.2-0.4   c0.1-0.1,0.1,0,0.1,0v-0.1c0.1-0.1,0.1-0.2,0.1-0.3c0-0.1,0-0.2-0.1-0.3v-0.1l-0.1-0.1l-0.1-0.1c0,0-0.1,0-0.1-0.1   c-0.1,0-0.1-0.1-0.2-0.1l0.1,0.1h-0.1h-0.1c-0.1-0.1-0.1-0.1-0.2-0.1h-0.1c0,0,0,0-0.1,0c0,0-0.1,0-0.1,0.1c-0.1,0-0.1,0-0.2,0.1   c-0.3,0.2-0.7,0.2-1.2,0.2c-0.4-0.1-0.7-0.4-0.9-0.7c-0.3-0.4-0.3-0.8-0.2-1.2c0.1-0.4,0.4-0.7,0.7-0.9c1.1-0.9,2.7-0.8,3.9-0.2   c0.4,0.1,0.8,0.5,1.1,0.9c0.2-0.1,0.4-0.2,0.7-0.2c0.8,0,1.7,0,2.6,0c0.4,0,0.8,0.1,1.1,0.4s0.4,0.7,0.4,1.1   c0.1,0.4-0.1,0.8-0.4,1.1c-0.3,0.2-0.7,0.4-1.1,0.4c-0.7,0-1.6,0-2.4,0c-0.1,0.9-0.5,1.8-1.1,2.5c-1.7,2-5,1.7-6.8-0.1   C110.3,78.9,110.3,78,110.9,77.4z M101.7,74.4c0.1-0.2,0.2-0.4,0.3-0.5c0.1-0.2,0.2-0.3,0.4-0.4c0.6-0.3,1.2-0.6,1.8-0.9   c0.3-0.2,0.5-0.3,0.8-0.2c0.1,0.1,0.3,0.1,0.4,0.1c0.4,0.1,0.7,0.4,0.9,0.7c0.1,0.2,0.2,0.4,0.2,0.6c0.1,0.2,0.1,0.4,0,0.6   c-0.1,0.2-0.2,0.4-0.3,0.5c-0.1,0.2-0.2,0.3-0.4,0.4c-0.6,0.3-1.2,0.6-1.8,0.9c-0.3,0.1-0.5,0.2-0.8,0.2c-0.1-0.1-0.3-0.1-0.4-0.1   c-0.4-0.1-0.7-0.4-0.9-0.7c-0.1-0.2-0.2-0.4-0.2-0.6C101.6,74.8,101.6,74.6,101.7,74.4z M95,71.8c0.2-0.1,0.3-0.2,0.5-0.3   s0.4-0.1,0.6-0.1c0.2,0,0.4,0,0.6,0.1s0.4,0.2,0.5,0.3l0.1,0.1c0.1,0.1,0.2,0.3,0.3,0.4c0.2,0.2,0.2,0.4,0.3,0.6   C98,73,98,73.1,98,73.2c0.1,0.2,0.1,0.4,0.1,0.6S98,74.2,98,74.4c0,0.2-0.1,0.4-0.2,0.6c0,0.1,0,0.1-0.1,0.2   c-0.1,0.2-0.2,0.4-0.4,0.5c-0.2,0.2-0.4,0.3-0.7,0.4c-0.1,0.1-0.3,0.1-0.4,0.1c-0.4,0.1-0.8-0.1-1.1-0.4c-0.1-0.2-0.2-0.3-0.3-0.5   c-0.1-0.2-0.1-0.4-0.1-0.6c0-0.2,0-0.4,0.1-0.6c0.1-0.1,0.1-0.2,0.2-0.2c0,0,0.1,0.1,0.1,0.1c0-0.1,0-0.2,0-0.4L95,73.7   c0,0,0,0,0,0c-0.2-0.3-0.3-0.6-0.4-0.8C94.5,72.5,94.7,72.1,95,71.8z M86.6,73.1c0.7-0.5,1.5-0.5,2.3,0.2c0.5,0.4,0.6,1.1,0.3,1.7   h-0.1c0,0,0,0-0.1,0c0-0.1-0.1-0.1-0.1-0.2v0.1c0,0,0,0,0,0.1c0,0,0,0-0.1,0l0.1,0.1c0,0,0,0,0,0.1v0.1c-0.1,0.1-0.2,0.2-0.2,0.3   l0.1-0.1c0.1-0.1,0.1-0.2,0.2-0.2h0.1c0,0,0,0-0.1-0.1h0.1c0.1,0,0.2,0,0.2-0.1h-0.1c0.2-0.1,0.4-0.1,0.6-0.2   c-0.2,0.1-0.3,0.1-0.4,0.2c0.4-0.2,0.9-0.4,1.3-0.7c0.8-0.5,1.7-0.2,2.1,0.5c0.3,0.4,0.3,0.8,0.2,1.2c-0.1,0.4-0.4,0.7-0.7,0.9   c-0.7,0.5-1.5,0.9-2.3,1.1c-0.9,0.3-2,0.2-2.8-0.3c-0.7-0.5-1.3-1.2-1.5-2C85.7,74.8,85.9,73.7,86.6,73.1z M82.1,82.8c-2,0-2-3,0-3   C84,79.8,84,82.8,82.1,82.8z M72.3,75.1c0.5-0.6,1.5-0.5,2.1,0c0.2,0.2,0.5,0.5,0.8,0.7c0.1,0.1,0.3,0.2,0.1,0.1   c-0.2-0.1,0.1,0.1,0.1,0.1c0.1,0.1,0.3,0.2,0.4,0.3c0.1,0,0.3,0.1,0.4,0.2c0.1,0,0.1,0,0.2,0.1h0.1c0.2,0,0.3,0.1,0.5,0.1h0.1h0.1   c0.1,0,0.3-0.1,0.4-0.1c0.2-0.1-0.3,0.1-0.1,0c0.1,0,0.1-0.1,0.2-0.1c0.1,0,0.1-0.1,0.2-0.1c0.1-0.1,0.1-0.1,0.1-0.1v-0.1l0.1-0.1   V76c-0.1-0.8,0.8-1.5,1.5-1.5c0.4-0.1,0.8,0.1,1.1,0.4c0.3,0.3,0.4,0.7,0.4,1.1c0.3,2.1-1.8,3.6-3.7,3.7c-1.9,0.1-3.6-1.3-5-2.5   C71.7,76.7,71.8,75.7,72.3,75.1z M62.8,87.6c-0.7,0.6-1.8,1-2.8,0.9c-0.9-0.1-1.8-0.4-2.5-1.1c-0.7-0.7-1.1-1.6-1.1-2.6   s0.4-2,1.1-2.7c0.7-0.7,1.6-1.1,2.6-1.2c0.4,0,0.8,0.2,1,0.6c0.3,0.3,0.4,0.7,0.4,1.1c0.1,0.4-0.1,0.8-0.4,1.1   c-0.3,0.3-0.7,0.4-1.1,0.4c-0.1,0-0.1,0-0.2,0c0,0,0.1-0.1,0.2-0.1h-0.1c0,0-0.1,0-0.2,0.1l-0.1,0.1l-0.1,0.1   c-0.1,0.1-0.1,0.2-0.2,0.4c0,0.1,0,0.1,0,0.2c0,0.1,0,0.1,0,0.2v0.1v0.1l0.1,0.1c0,0,0,0,0.1,0c0.3,0.1,0.5,0.2,0.6,0.2h0.1   c0,0,0.1,0,0.1,0c0,0,0.1,0,0.1,0c0,0,0,0,0.1,0s0.2-0.1,0.2-0.2c0.3-0.2,0.6-0.3,0.9-0.3c0.4-0.1,0.8,0.1,1.1,0.4   c0.2,0.3,0.4,0.7,0.4,1.1C63.2,86.9,63.1,87.4,62.8,87.6z M64.9,83.6c-1.4-2.9-0.4-6.4,2.2-8.2c0.7-0.5,1.6-0.1,1.8,0.7   c0.5,0.8,0.2,1.7-0.5,2.1c0,0-0.3,0.2-0.1,0.1c-0.1,0.1-0.2,0.2-0.3,0.3c0,0-0.3,0.4-0.1,0.1c-0.1,0.1-0.1,0.2-0.2,0.3   c-0.1,0.1-0.1,0.3-0.2,0.4c0,0-0.1,0.1-0.1,0.2c0,0.3-0.1,0.5-0.2,0.7v0.1c0-0.2-0.1,0.3,0,0.1c0,0.1,0,0.1,0,0.2   c0,0.1,0,0.3,0,0.4v0.1c0.1,0,0.1,0.3,0.1,0.4c0,0.1,0.1,0.2,0.1,0.3c0,0.1,0,0.1,0,0.1s0,0,0,0.1c0.1,0.1,0.1,0.2,0.2,0.3   c0.1,0.1,0.1,0.2,0.2,0.3l0.1,0.1c0.1,0.2,0.3,0.3,0.5,0.5l0.1,0.1c0.1,0.1,0.2,0.1,0.3,0.2c0.1,0.1,0.2,0.2,0.3,0.2   c0.3,0.1-0.2-0.1,0.1,0s0.5,0.1,0.8,0.2c0,0,0,0,0.1,0h0.1c0.1,0,0.1,0,0.2,0c0.2,0,0.3,0,0.5,0c0,0,0,0,0.1,0   c0.2-0.1,0.5-0.1,0.7-0.2c0.1,0,0.1-0.1,0.2-0.1c0.1-0.1,0.2-0.1,0.3-0.2l0.1-0.1c0.1-0.1,0.2-0.2,0.3-0.3c0-0.1,0.1-0.1,0.1-0.2   c0.1-0.1,0,0.1,0,0.1c0.1-0.1,0.1-0.1,0.1-0.2c0,0,0,0,0-0.1v-0.1c-0.2-0.8,0.2-1.5,1-1.8c0.7-0.3,1.6,0.2,1.8,1   c0.5,2.2-1,4.1-3,4.8C69.8,87.7,66.2,86.3,64.9,83.6z M76.4,109.7c-1.9-0.6-3.7-1.4-5.4-2.4s-0.2-3.6,1.6-2.6   c5.8,3.5,13.2,3.8,19.2,0.6c1.7-0.9,3.2,1.7,1.5,2.6c-1.9,1-3.9,1.7-5.9,2.1c0,0.4-0.2,0.8-0.4,1.1   C84.2,114.2,78.3,113.5,76.4,109.7z M112.9,155.7c-7.1,0.9-14.3,0.1-20.9-2.1c-0.9-0.3-1.2-1.5-0.8-2.3c0.5-0.9,1.6-1.1,2.5-0.8   c6.1,2,12.6,2.5,19,1.7c1-0.2,1.9,0.7,1.9,1.7C114.7,154.8,113.9,155.6,112.9,155.7z M117.7,138.9c-1.9,0.3-3.6-0.8-5.4-0.6   c-1.8,0.3-3.3,1.8-4.9,2.6c-3.3,1.7-6.5,0.6-9.5-1.1c-2.3-1.3-5.1-3.5-7.9-2.9c-0.2,0.3-0.5,0.5-0.8,0.7c-0.7,0.3-1.7-0.2-1.8-1   c-0.4-2.3-0.3-4.8,0.5-7c0.2-0.8,1-1.3,1.6-1c0.7,0.1,1.3,1.1,1,1.8c-0.1,0.5-0.3,1-0.4,1.5c0,0.3-0.1,0.5-0.1,0.8   c0,0.1,0,0.3,0,0.4c0,0.2,0,0.5,0,0.7c2.4-0.3,4.8,0.7,6.9,1.9c2.2,1.2,4.9,3.3,7.6,3c1.6-0.2,2.9-1.3,4.2-2.1   c1.4-0.9,2.9-1.5,4.6-1.3c1.1,0.1,3.5,1.2,4.4,0.3c1.1-1.1-0.2-3.8-0.8-4.9c-0.9-1.7,1.7-3.2,2.6-1.5   C121,132.1,122.5,138.1,117.7,138.9z M132.2,109.7c-1.5,0.5-3,0.9-4.5,1.2c0.2,0.5,0.1,1-0.2,1.4c-1.3,1.7-3.3,2.3-5.3,2.2   c-0.8-0.1-1.7-0.4-2.5-0.8c-1-0.6-1.7-1.3-2.3-2.3c-0.1-0.1-0.1-0.2-0.1-0.3c-1.3-0.2-2.6-0.4-3.9-0.7c-0.6-0.1-1.3-0.3-1.8-0.6   c-0.3-0.1-0.5-0.4-0.7-0.6c-2.2-3.5,7.5-0.9,8.5-0.8c3.8,0.3,7.7-0.2,11.3-1.4c0.6-0.2,1.2-0.4,1.9-0.4c0.7,0,1.4,0.4,1.5,1.1   C134.3,108.7,133.1,109.4,132.2,109.7z"></path><path d="M108.7,68.8C108.7,68.9,108.8,68.9,108.7,68.8L108.7,68.8z"></path><path d="M89,75.2c0.1,0,0.2,0.1,0.2,0.1C89.1,75.2,89.1,75.2,89,75.2z"></path><path d="M90,132.7C90,132.3,89.9,133,90,132.7L90,132.7z"></path><path d="M72.8,82.6C72.9,82.8,72.8,82.5,72.8,82.6L72.8,82.6z"></path><path d="M52.5,92.6l0.2,0.1C52.7,92.7,52.4,92.4,52.5,92.6z"></path><path d="M53.1,94.2C53.1,94.2,53.1,94.2,53.1,94.2C53.1,94.2,53.1,94.2,53.1,94.2C53.1,94.2,53.1,94.2,53.1,94.2z"></path><path d="M53.1,94.2c0,0.1,0,0.1-0.1,0.2C53.1,94.3,53.1,94.3,53.1,94.2z"></path><path d="M53.1,94.2c0,0,0.1-0.1,0.1-0.2C53.2,94.1,53.2,94.1,53.1,94.2z"></path><path d="M52.4,92.5c-0.1,0-0.3-0.1-0.5-0.1c-0.1,0-0.1,0-0.2,0c0.1,0.1,0.1,0.1,0.2,0.1c-0.1,1-0.2,1.9-0.3,2.9   c0.2-0.1,0.4-0.3,0.6-0.3h0.1c0,0,0.1,0,0.1-0.1c0,0,0.1,0,0.1,0c0,0,0,0-0.1,0c0.1,0,0.1-0.1,0.2-0.1c0.1-0.1-0.1,0.1-0.2,0.1   c0,0,0,0,0,0c0,0,0,0,0,0l0.1-0.1c0.1-0.1,0.1-0.1,0.2-0.2l0.1-0.1c-0.1,0.2,0.1,0,0.1-0.1c0.1-0.1,0.1-0.2,0.2-0.3   c0.1-0.2,0.1-0.4,0.1-0.6c0-0.1,0-0.2-0.1-0.3c-0.1-0.2-0.2-0.3-0.3-0.5c-0.1-0.1,0.2,0.3,0.1,0.2l-0.1-0.1   c-0.1-0.1-0.1-0.1-0.2-0.2l-0.1-0.1c-0.1-0.1-0.2-0.1-0.4-0.2C52.2,92.5,52.3,92.5,52.4,92.5z"></path><path d="M77.3,76.7C76.9,76.8,77.6,76.7,77.3,76.7L77.3,76.7z"></path><path d="M77.9,76.4l-0.1,0.1C77.8,76.5,78.1,76.3,77.9,76.4z"></path><path d="M77,76.7C77.3,76.8,77,76.7,77,76.7L77,76.7z"></path><path d="M115.8,77.2C115.7,77.3,115.6,77.5,115.8,77.2L115.8,77.2z"></path><path d="M113.2,77.6C112.9,77.4,113.4,77.8,113.2,77.6L113.2,77.6z"></path><path d="M113.7,77.9C113.4,77.8,114.1,78.1,113.7,77.9L113.7,77.9z"></path><path d="M95.2,73.5c0,0-0.1,0.1-0.1,0.1C95.2,73.5,95.2,73.5,95.2,73.5L95.2,73.5z"></path><path d="M84,56.5c0,0,0.1,0.1,0.2,0.1C84.2,56.6,84.2,56.6,84,56.5z"></path><path d="M86,55C86,54.9,85.9,54.5,86,55L86,55z"></path><path d="M85.5,59.6c1.1-0.4,1.9-1,2.6-2c0.7-1,0.9-2.2,0.7-3.4c-0.1-0.8-1.1-1.3-1.8-1c-0.8,0.3-1.2,1-1,1.8v0.1c0,0.1,0,0.1,0,0.2   s-0.1,0.2-0.1,0.3v0.1c-0.1,0.1,0,0.1,0,0.1c0,0-0.1,0.1-0.1,0.1c0,0.1-0.1,0.1-0.1,0.2l-0.1,0.1c-0.1,0.1-0.2,0.2-0.2,0.2   l-0.1,0.1c-0.1,0-0.1,0.1-0.2,0.1c-0.1,0-0.2,0.1-0.2,0.1h-0.1c0,0,0,0-0.1,0s-0.1,0-0.1,0h-0.1c-0.1,0-0.2,0-0.3-0.1   c0,0,0,0-0.1,0c-0.1,0-0.1,0-0.1-0.1c-0.1,0-0.1-0.1-0.2-0.1c-0.1-0.1-0.3-0.3-0.4-0.4c-0.1-0.1-0.1-0.2-0.2-0.2   c-0.1-0.1-0.1-0.2-0.2-0.3c0.2,0.3,0.1,0.2,0,0c0-0.1-0.1-0.2-0.1-0.3c0-0.1,0-0.1,0-0.2v-0.1v0c0,0,0-0.1,0-0.2c0-0.3,0-0.6-0.2-1   c-0.2-0.3-0.5-0.6-0.9-0.7c-1-0.2-2,0.2-2.1,1.1c-0.2,1.1,0,2.2,0.5,3.2c0.5,0.8,1.2,1.6,2.1,2C83.3,59.8,84.4,59.9,85.5,59.6z"></path><path d="M62.6,61.6c0.3,0,0.6-0.1,0.8-0.2c0.5-0.3,0.9-0.7,1.4-1h0.1c1.8,0,1.9-2.8,0.2-3c-0.1-0.1-0.2-0.1-0.3-0.1   c-0.1,0-0.3,0-0.4-0.1c-0.3,0-0.5,0.1-0.8,0.2c-0.6,0.4-1.2,0.9-1.8,1.3c-0.2,0.1-0.3,0.2-0.4,0.4c-0.1,0.1-0.2,0.3-0.3,0.5   c-0.1,0.2-0.1,0.4,0,0.6c0,0.2,0.1,0.4,0.2,0.6c0.2,0.3,0.5,0.6,0.9,0.7C62.3,61.5,62.5,61.5,62.6,61.6z"></path><path d="M56.9,54.4c0,0,0,0.1,0,0.1C56.9,54.5,56.9,54.4,56.9,54.4z"></path><path d="M53.4,50.1c-1,0.7-1.7,1.8-1.7,3c0,0.8,0.7,1.5,1.5,1.5c0.9,0.1,1.5-0.6,1.6-1.4c0-0.1,0-0.1,0-0.2c0,0.1,0,0.2-0.1,0.3   c0-0.1,0-0.2,0.1-0.3c0-0.1,0.1-0.1,0.1-0.1l0.1-0.1c0,0,0,0,0,0l0,0l0.1-0.1c0.1,0,0.1-0.1,0.2-0.1c0.1-0.1,0.1-0.1,0.2-0.1   c0,0,0.1,0,0.1-0.1c0.2,0,0.3,0,0.5,0c0,0,0.1,0,0.1,0c0.2,0,0.3,0.2-0.1,0c0.1,0,0.1,0.1,0.2,0.1s0.2,0.1,0.2,0.1l0.1,0.1   c0,0.1,0.1,0.1,0.1,0.2c0,0.1,0.1,0.1,0.1,0.2V53c0.1,0.2,0.1,0.3,0.2,0.5c0,0,0,0-0.1,0c0.1,0.3,0.1,0.6,0,0.9c0,0,0,0,0.1-0.1   c0,0.2-0.1,0.3-0.1,0.5c0,0.1-0.3,0.7,0,0.2c-0.2,0.4-0.3,0.7-0.2,1.2c0.1,0.3,0.4,0.7,0.7,0.9c0.3,0.2,0.8,0.3,1.2,0.2   c0.3-0.1,0.7-0.3,0.9-0.7c0.4-0.9,0.6-1.9,0.5-3c-0.1-1.1-0.5-2.1-1.3-3C57.4,49.1,55,48.9,53.4,50.1z M56.2,52.4   c-0.1,0-0.2,0-0.3-0.1C56,52.3,56.1,52.3,56.2,52.4z"></path><path d="M55,52.8C54.8,53,54.8,53.2,55,52.8L55,52.8z"></path><path d="M42.9,61.6l-0.1-0.1C42.8,61.5,42.8,61.5,42.9,61.6z"></path><path d="M39.8,61.3c0,1.8,1.6,3.4,3.5,3.4c0.3,0,0.6-0.1,0.8-0.3c0,0.1,0,0.3,0.1,0.4c0.2,0.8,1.1,1.3,1.8,1c1.1,0,1.6-0.8,1.4-1.6   c0,0-0.1-0.4,0-0.2c0-0.1,0-0.2,0-0.2c0-0.1,0-0.3,0-0.4c0.1-0.2,0.1-0.5,0.2-0.7c0,0,0,0,0-0.1c0-0.1,0.1-0.2,0.1-0.3   c0.1-0.1,0.1-0.2,0.2-0.3c0,0,0.2-0.3,0.1-0.2s0.1-0.1,0.1-0.2c0.1-0.1,0.1-0.2,0.2-0.2c0.2-0.2,0.4-0.3,0.5-0.5   c0.1-0.1,0.2-0.1,0.3-0.2c0.5-0.3,0.6-0.3,1.1-0.5c0.5-0.2,1-0.3,1.5-0.4c0,0,0.5-0.1,0.2,0c0.1,0,0.2,0,0.3,0   c0.3,0,0.6-0.1,0.8-0.1c0.5,0,1.1-0.1,1.6-0.1c0.8,0,1.5-0.7,1.5-1.5s-0.7-1.5-1.5-1.5c-2.1,0.1-4.5,0.2-6.5,1.1   c-0.1,0-0.2,0-0.3,0.1c0,0-0.1,0-0.1,0c0,0,0,0-0.1,0c-0.2,0-0.4,0-0.7,0c0.1,0,0.3,0,0.4,0.1c-0.1,0-0.3-0.1-0.4-0.1   c-0.1,0-0.1,0-0.2-0.1c0.1,0,0.1,0,0.1,0c-0.1-0.1-0.3-0.1-0.4-0.2l0.1,0.1c0,0-0.1-0.1-0.2-0.1c-0.1-0.1-0.1-0.1-0.2-0.2   c0-0.1-0.1-0.1-0.1-0.2c0-0.1-0.1-0.1-0.1-0.2c0.2,0.4,0.1,0.2,0.1,0.1c0-0.1,0-0.1,0-0.1c0,0,0,0,0-0.1c0-0.3,0-0.5,0-0.7   c0,0.1,0,0.3-0.1,0.4c0-0.2,0.1-0.4,0.1-0.5v-0.1c0,0,0.1-0.1,0.1-0.2c0.1-0.1,0.1-0.1,0.2-0.2c0.1,0,0.1-0.1,0.1-0.1   c0.1-0.1,0.1-0.1,0,0c0.3-0.2,0.5-0.5,0.6-0.8c0.1-0.4,0.1-0.8-0.2-1.2c-0.4-0.8-1.4-1.2-2-0.7c-0.8,0.6-1.3,1.2-1.6,2.1   c-0.3,0.6-0.4,1.4-0.3,2c0,0.4,0.1,0.8,0.3,1.1C41.4,58,39.8,59.5,39.8,61.3z M42.7,61.2c0-0.1,0.1-0.1,0.1-0.2c0,0,0,0-0.1,0   c0.1,0,0.1-0.1,0.2-0.1c0.3-0.1,0.3-0.2,0.4-0.2C43.2,60.9,43.1,61,43,61c0.1-0.1,0.3-0.1,0.5-0.1c-0.1,0-0.3,0-0.4,0.1   c0.1,0,0.2,0,0.3,0c0.6,0,1.2-0.4,1.4-1c0.1,0.1,0.2,0.1,0.4,0.2c-0.4,0.6-0.7,1.2-0.9,1.9c-0.3-0.2-0.6-0.4-1-0.4   c-0.1,0-0.2,0-0.3,0c0.1,0,0.3,0,0.4,0.1c-0.2,0-0.3-0.1-0.4-0.1s-0.1-0.1-0.2-0.1c0,0,0,0,0,0.1l-0.1-0.1c0,0,0,0,0-0.1   c0,0,0-0.1,0-0.1c0,0,0,0,0,0C42.7,61.4,42.7,61.3,42.7,61.2C42.7,61.2,42.7,61.2,42.7,61.2z"></path><path d="M35.6,70.2c-0.7,2.1-0.4,4.5,1.2,6.1c0.1,0.1,0.3,0.2,0.4,0.3c-0.1,0-0.2,0-0.3,0c-0.1,0-0.3,0-0.4,0.1   c-0.4,0.2-0.6,0.3-0.8,0.5c-0.7,0.6-1.2,1.4-1.5,2.2c-0.2,0.4-0.2,0.9-0.3,1.3c-0.1,0.5,0,0.9,0.1,1.4c0.1,0.3,0.4,0.7,0.7,0.9   s0.8,0.3,1.2,0.2c0.4-0.1,0.7-0.3,0.9-0.7c0.1-0.1,0.1-0.2,0.2-0.4c0.1-0.3,0.1-0.4,0-0.6c0,0,0,0,0.1,0.1c0-0.3,0-0.7,0-1   c0,0.1,0,0.3-0.1,0.4c0-0.3,0.1-0.7,0.3-1v0.1c0.1-0.1,0.1-0.2,0.2-0.3c0.2-0.2,0.4-0.4,0.6-0.6c0.3-0.2,0.4-0.7,0.4-1.1   c0-0.4-0.2-0.8-0.4-1.1c-0.1-0.1-0.3-0.2-0.4-0.3c0.5,0.1,1,0,1.3-0.4c0.5-0.6,0.6-1.5,0-2.1c-0.1-0.1-0.1-0.1-0.2-0.2   c-0.1-0.2-0.2-0.3-0.3-0.5c0-0.1-0.1-0.2-0.1-0.2c0.1,0.1,0.1,0.3,0,0c-0.1-0.2-0.1-0.3-0.1-0.5c0-0.1,0-0.1,0-0.2v-0.1   c0-0.2,0-0.3,0-0.5c0-0.1,0-0.2,0-0.3c0-0.1,0-0.2,0-0.2c0-0.1,0.1-0.2,0.1-0.3c0-0.2,0.1-0.3,0.1-0.5c0-0.1,0.1-0.2,0.1-0.2   c0.1-0.2,0.2-0.3,0.3-0.5c0-0.1,0.1-0.1,0.1-0.2c0.1-0.1,0.2-0.3,0.4-0.4c0.1-0.1,0.1-0.1,0.2-0.2c0.1-0.1,0.3-0.2,0.4-0.3   c0.1,0,0.2-0.1,0.3-0.1c0.7-0.2,1.3-1.1,1-1.8c-0.2-0.5-1-1-1.8-0.8c-1,0.3-1.8,0.9-2.5,1.6c-0.3-0.4-0.7-0.7-1.2-0.7   c0-0.1,0-0.2,0-0.4c0.2-0.1,0.3-0.2,0.6-0.3c0,0-0.1,0.1-0.1,0.1c0.2-0.1,0.5-0.1,0.7-0.1c0,0,0,0-0.1,0.1c0.2,0,0.4,0,0.5-0.1   c0.4,0,0.8-0.1,1.1-0.4c0.3-0.3,0.5-0.7,0.4-1.1c0-0.4-0.1-0.8-0.4-1.1c-0.4-0.1-0.8-0.4-1.1-0.3c-1.4,0.1-3,0.4-4,1.6   c-0.5,0.6-0.9,1.4-0.8,2.2c0.1,0.8,0.3,1.6,0.9,2.2C33.9,70,34.8,70.3,35.6,70.2z M35.6,66.9c0.1,0,0.1,0.1,0.1,0.2   C35.6,67.1,35.6,67,35.6,66.9L35.6,66.9z M35.4,67.1l-0.1,0.1c-0.1,0-0.1,0-0.2,0C35.2,67.2,35.3,67.2,35.4,67.1z"></path><path d="M36.3,66.5c-0.1,0-0.2,0.1-0.3,0.1C36.1,66.5,36.2,66.5,36.3,66.5z"></path><path d="M77.1,62c0,0,0.1-0.1,0.1-0.1C77.1,61.9,77.1,62,77.1,62C77,62,77,62,77.1,62C77,62,77,62,77.1,62z"></path><path d="M76.9,62.1C76.9,62,77,62,76.9,62.1C77,62,76.9,62,76.9,62.1C76.9,62.1,76.9,62.1,76.9,62.1z"></path><path d="M74.7,64.4c0.9,0.5,1.9,0.7,2.9,0.5c0.9-0.2,1.8-0.9,2.2-1.7c0.4-0.9,0.5-1.9,0.3-2.9c-0.2-0.6-0.5-1.1-0.8-1.5   c-0.4-0.5-0.9-0.7-1.4-1c-0.3-0.1-0.9,0-1.2,0.2s-0.6,0.5-0.7,0.9c-0.1,0.4-0.1,0.8,0.2,1.2c0.1,0.1,0.2,0.2,0.2,0.3   c0.1,0.1,0.3,0.2,0.5,0.3c0.1,0,0.1,0.1,0.2,0.1c0,0.1,0.1,0.2,0.1,0.2c-0.1,0-0.2-0.1-0.2-0.2c-0.1-0.1-0.1-0.1-0.2-0.1   c0.1,0.1,0.2,0.2,0.3,0.3c0,0.1,0,0.1,0.1,0.2c0,0.2,0,0.4,0,0.6c0,0,0,0,0,0.1L77.1,62c0,0,0,0,0,0c0,0-0.1,0-0.1,0.1   c0,0,0-0.1,0-0.1c0,0-0.1,0-0.1,0c-0.1,0-0.1,0-0.1,0c0,0,0,0,0,0c0,0,0.1,0,0.1,0c0,0,0,0-0.1,0C76.9,62,76.9,62,77,62   c-0.2,0-0.4,0-0.7,0c0.1,0,0.3,0,0.4,0.1c-0.1,0-0.2,0-0.4-0.1c-0.1,0-0.1-0.1-0.2-0.1c0,0,0,0-0.1,0l-0.1-0.1c0,0,0,0,0,0.1   c0-0.1-0.1-0.1-0.1-0.2v-0.1c0,0,0,0,0,0l0,0v0c-0.1-0.4-0.4-0.7-0.7-0.9s-0.8-0.3-1.2-0.2s-0.7,0.3-0.9,0.7   c-0.1,0.4-0.1,0.7,0,1.1C73.2,63.1,73.9,63.9,74.7,64.4z M77.3,61.8c0,0,0,0,0,0.1c-0.1-0.1-0.1-0.3,0-0.4   C77.3,61.6,77.3,61.7,77.3,61.8z M77.3,61.3c-0.1-0.1-0.1-0.1-0.1-0.2C77.2,61.2,77.3,61.2,77.3,61.3z"></path><path d="M75.9,61.8c0-0.1-0.1-0.2-0.1-0.2v0C75.8,61.7,75.8,61.7,75.9,61.8z"></path><polygon points="66.2,63.6 66.2,63.6 66.2,63.6  "></polygon><path d="M65.9,62.6c-0.1-0.2-0.2-0.3-0.4-0.4c-0.1-0.1-0.3-0.2-0.5-0.3c-0.4-0.1-0.8-0.1-1.2,0.2c-0.1,0.1-0.2,0.2-0.3,0.2   c-0.2-0.1-0.3,0.1-0.4,0.4c0,0.3-0.1,0.5-0.1,0.8c0,0.2,0,0.5,0.1,0.7c0.2,0.5,0.4,0.9,0.7,1.3c0.1,0.1,0.2,0.2,0.3,0.3   c0.2,0.2,0.4,0.3,0.6,0.4s0.4,0.2,0.7,0.3c0.2,0,0.4,0.1,0.6,0.1c0.1,0,0.1,0,0.2,0c0.4,0,0.8-0.2,1.1-0.4c0.1-0.1,0.2-0.3,0.3-0.5   c0.1-0.2,0.1-0.4,0.1-0.6c0-0.4-0.1-0.8-0.4-1.1c-0.3-0.3-0.7-0.4-1.1-0.4c0.1,0,0.2,0,0.2,0.1c0,0-0.1,0-0.2-0.1c0,0,0,0,0,0   c0-0.1,0-0.3-0.1-0.4C66.1,63,66,62.8,65.9,62.6z M66,63.4c0.1,0.1,0.1,0.1,0.1,0.2C66,63.5,66,63.4,66,63.4z"></path><path d="M99.2,65.2c0,0.1,0,0.1,0.1,0.2C99.3,65.3,99.2,65.3,99.2,65.2z"></path><path d="M97.1,66.3C97.1,66.3,97.1,66.3,97.1,66.3C97,66.3,97,66.3,97.1,66.3C97.1,66.3,97.1,66.3,97.1,66.3z"></path><path d="M97.4,69.4c2.1,0,4.5-1,4.9-3.3c0.1-0.6,0.1-1.3-0.1-1.9c-0.3-0.7-0.7-1.2-1.3-1.7c-0.3-0.2-0.8-0.2-1.2-0.2   c-0.3,0.1-0.7,0.4-0.9,0.7c-0.2,0.3-0.3,0.8-0.2,1.2c0.1,0.3,0.3,0.6,0.5,0.8v0l0,0c0,0,0,0,0,0c0,0,0,0,0,0.1c0,0.2,0,0.3,0,0.5   c0-0.1,0-0.2,0.1-0.3c0,0,0,0,0-0.1c0.1,0.1,0.1,0.1,0.1,0.2l-0.1-0.1c0,0.1,0,0.2-0.1,0.3c0,0,0,0.1-0.1,0.1   c0,0.1-0.1,0.1-0.1,0.2c0,0,0,0,0.1,0c-0.1,0.1-0.2,0.2-0.3,0.2c-0.2,0.1-0.4,0.1-0.6,0.2c-0.4,0.1-0.7,0.1-1.1,0c0,0-0.1,0-0.1,0   c0,0,0.1,0,0.1,0c0.2-0.4,0.1-0.9-0.1-1.3c-0.3-0.7-1.1-0.9-1.9-0.5c-1.2,0.6-1.5,2.4-0.8,3.5C94.8,69,96.1,69.4,97.4,69.4z    M99.2,65C99.2,65,99.3,65,99.2,65c0.1,0.1,0.2,0.1,0.2,0.2C99.4,65.2,99.3,65.1,99.2,65C99.2,65,99.2,65,99.2,65z M96.6,66.4   c-0.1-0.1-0.1-0.2-0.1-0.2C96.6,66.3,96.6,66.3,96.6,66.4z M96.3,67c0.1,0,0.1-0.1,0.1-0.1V67C96.3,67.1,96.3,67.1,96.3,67L96.3,67   z"></path><path d="M89.1,68.7c0.9,0.1,1.7-0.1,2.6-0.3c0.8-0.2,1.3-1.1,1-1.8c-0.3-0.8-1-1.2-1.8-1c-0.2,0.1-0.4,0.1-0.7,0.1h0.1   c-0.4,0.1-0.9,0.1-1.3,0c0.1,0,0.1,0,0.2,0.1c-0.3,0-0.6-0.1-1-0.3l-0.1-0.1c0-0.1-0.1-0.2-0.2-0.2c0,0,0-0.1-0.1-0.1V65   c0-0.1,0-0.3,0-0.4l0.1-0.1c0.3-0.2,0.4-0.7,0.4-1.1c0-0.4-0.2-0.8-0.4-1.1c-0.3-0.3-0.7-0.5-1.1-0.4c-0.3-0.2-0.6,0-1,0.2   c-0.6,0.5-0.9,1.3-1,2.2c-0.1,0.7,0.1,1.4,0.4,2.1C85.9,67.9,87.5,68.6,89.1,68.7z M87.7,64.6c0.1,0.1,0.1,0.1,0,0.2   C87.7,64.7,87.7,64.7,87.7,64.6z"></path><path d="M96,61.9c0.1,0.2,0.2,0.3,0.4,0.4c0.1,0.1,0.3,0.2,0.5,0.3c0.2,0.1,0.4,0.1,0.6,0c0.2,0,0.4-0.1,0.6-0.2   c0.1-0.1,0.2-0.2,0.3-0.2c0.2-0.2,0.3-0.4,0.4-0.7c0-0.1,0-0.3,0.1-0.4c0-0.3-0.1-0.5-0.2-0.8c-0.1-0.2-0.2-0.4-0.3-0.7   c-0.1-0.2-0.2-0.3-0.4-0.4c-0.1-0.1-0.3-0.2-0.5-0.3c-0.2-0.1-0.4-0.1-0.6,0c-0.2,0-0.4,0.1-0.6,0.2c-0.1,0.1-0.2,0.2-0.3,0.2   c-0.2,0.2-0.3,0.4-0.4,0.7c0,0.1,0,0.3-0.1,0.4c0,0.3,0,0.5,0.2,0.8C95.8,61.4,95.9,61.6,96,61.9z"></path><path d="M92.9,57c-0.2-0.3-0.5-0.6-0.9-0.7c-0.4-0.1-0.8-0.1-1.2,0.2c-0.2,0.2-0.4,0.5-0.5,0.9c-0.3,1.2-0.5,2.4-0.5,3.7   c0,0.4,0.2,0.8,0.4,1.1c0.3,0.3,0.7,0.5,1.1,0.4c0.4,0,0.8-0.1,1.1-0.4s0.4-0.7,0.4-1.1c0-0.5,0-1.1,0.1-1.6c0,0.1,0,0.1-0.1,0.2   c0.1-0.5,0.2-1,0.3-1.5C93.2,57.8,93.1,57.4,92.9,57z"></path><path d="M78.3,54.3c0.4-0.9,0-1.8-0.8-2c-3.2-0.6-6.5,1.2-7.6,4.3c-0.3,0.7,0.3,1.7,1,1.8c0.8,0.2,1.6-0.3,1.9-1.1   c0.1-0.1,0.1-0.2,0.2-0.3s0.2-0.2,0.2-0.4c0,0,0-0.1,0-0.1v0c0.2-0.2,0.3-0.3,0.5-0.5c0.1,0,0.1-0.1,0.2-0.1   c0.1-0.1,0.2-0.2,0.4-0.2c0.1-0.1,0.2-0.1,0.4-0.2c0.3-0.1,0.5-0.2,0.8-0.2h0.1c-0.1,0-0.3,0.1,0.1,0c0.1,0,0.2,0,0.3,0   c0.1,0,0.2,0,0.3,0c0.4,0.1,0.2,0,0.1,0c0.1,0,0.1,0,0.1,0C77.3,55.5,78.2,55.1,78.3,54.3z M72.8,57.3   C72.8,57.3,72.8,57.2,72.8,57.3L72.8,57.3z"></path><path d="M74.8,55.5C74.8,55.5,74.9,55.4,74.8,55.5L74.8,55.5z"></path><path d="M74.7,55.5C74.7,55.5,74.5,55.6,74.7,55.5L74.7,55.5z"></path><path d="M66.5,49.5c-1.5,1.4-1.5,4,0,5.4c0.3,0.3,0.7,0.4,1.1,0.4c0.4,0,0.8-0.2,1.1-0.4c0.3-0.3,0.5-0.7,0.4-1.1   c0-0.4-0.2-0.8-0.4-1.1c-0.1-0.1-0.1-0.1-0.2-0.2c0-0.1,0-0.1,0-0.2c0-0.1,0-0.3,0-0.4c0,0,0,0.2-0.1,0.3c0-0.1,0-0.2,0.1-0.3   c0-0.1,0-0.1,0-0.2c0-0.1,0.1-0.1,0.1-0.2c0,0,0-0.1,0.1-0.1c0.3-0.3,0.4-0.7,0.4-1.1c0-0.4-0.2-0.8-0.4-1.1   C68,48.9,67.1,48.9,66.5,49.5z"></path><path d="M66.9,46.2c-1.7-0.4-3.6,0.1-4.7,1.5c-0.3,0.3-0.5,0.7-0.7,1.1c-0.2,0.5-0.4,1-0.4,1.6c-0.1,0.9,0.1,1.7,0.5,2.5   c0.2,0.3,0.6,0.6,0.9,0.7c0.4,0.1,0.8,0.1,1.2-0.2c0.3-0.2,0.6-0.5,0.7-0.9c0.1-0.7,0-1-0.2-1.4c0,0,0,0,0-0.1c0-0.4,0-0.7,0-1   c0,0.1,0,0.3-0.1,0.4c0-0.3,0.1-0.5,0.2-0.8c-0.1,0.1-0.1,0.2-0.2,0.4c0.1-0.2,0.1-0.3,0.2-0.5v0.1c0.2-0.2,0.4-0.4,0.6-0.6   c-0.1,0.1-0.2,0.2-0.3,0.2c0.2-0.2,0.4-0.3,0.7-0.4c-0.1,0.1-0.2,0.1-0.4,0.2c0.2-0.1,0.3-0.1,0.5-0.2c0,0,0,0,0,0.1   c0.2,0,0.3,0,0.4,0c0.1,0,0.2,0,0.3,0c0.8,0.2,1.7-0.2,1.8-1C68.1,47.2,67.7,46.3,66.9,46.2z"></path><path d="M65.8,48.9C65.9,49,66,49,66.1,49C66,48.9,65.9,48.9,65.8,48.9z"></path><path d="M52.1,48c-0.3-0.3-0.7-0.5-1.1-0.4c-0.7,0-1.4,0.3-1.9,0.8c-0.4,0.4-0.7,1-0.9,1.5c-0.4,1.1,0,2.3,0.4,3.4   c0.1,0.4,0.3,0.7,0.7,0.9c0.3,0.2,0.8,0.3,1.2,0.2c0.4-0.1,0.7-0.3,0.9-0.7c0.1-0.5,0.2-0.9,0.1-1.3c-0.2-0.4-0.3-0.8-0.4-1.2   c0,0,0,0,0.1,0.1c0-0.3,0-0.5,0-0.7c0,0.1,0,0.2-0.1,0.3c0-0.1,0-0.2,0.1-0.3c0.3-0.1,0.7-0.2,0.9-0.4c0.3-0.3,0.5-0.7,0.4-1.1   C52.5,48.7,52.4,48.3,52.1,48z"></path><path d="M42.3,52.7c0.4,0.1,0.8,0.1,1.2-0.2c0.3-0.2,0.6-0.5,0.7-0.9c0.2-0.7-0.2-1.7-1-1.8c-0.1,0-0.1,0-0.2,0c0,0,0,0-0.1-0.1   c-0.1,0-0.1-0.1-0.1-0.2c0.1,0.1,0.1,0.2,0.1,0.1c0-0.1-0.1-0.1-0.1-0.2c0-0.1-0.1-0.1-0.1-0.2c-0.1-0.2,0.1,0.4,0,0.1   c0-0.1-0.1-0.3-0.1-0.4v-0.1v-0.1c0-0.1,0-0.2,0-0.3v-0.1c0-0.1,0-0.1,0-0.1c0-0.1,0-0.1,0.1-0.2v-0.1l0.1-0.2   c0.1-0.2-0.2,0.3-0.1,0.1c0.1-0.1,0.1-0.2,0.2-0.2c0.1-0.1,0.1-0.1,0.2-0.2c0.2-0.1,0.3-0.2,0.5-0.3h0.1c-0.1,0-0.2,0.1-0.2,0.1   s0.2-0.1,0.3-0.1C44,47,44.2,47,44.3,47c0.1,0,0.4-0.1,0.2,0c0.1,0,0.2,0,0.2,0c0.2,0,0.4,0,0.6,0c0.1,0,0.2,0,0.3,0   c0.2,0,0.4,0.1,0.6,0.1c0.8,0.2,1.7-0.3,1.8-1c0.1-0.9-0.3-1.7-1.2-1.9c-2.1-0.6-4.4-0.3-6,1.2c-1.5,1.4-1.8,3.6-0.9,5.4   C40.4,51.7,41.3,52.5,42.3,52.7z M42.9,49.8C42.9,49.8,42.8,49.7,42.9,49.8L42.9,49.8z"></path><path d="M34.6,55.9c0.2,0.5,0.4,0.8,0.7,1.2c0.9,1.1,2.6,1.5,3.9,1.1c0.4-0.1,0.7-0.3,0.9-0.7c0.2-0.3,0.3-0.8,0.2-1.2   c-0.1-0.4-0.3-0.7-0.7-0.9c-0.3-0.2-0.8-0.3-1.2-0.2c-0.2,0-0.4,0-0.6,0c0.1,0,0.2,0,0.3,0.1c-0.1,0-0.2,0-0.3-0.1   c-0.1-0.1-0.1-0.1-0.2-0.2v0.1c0-0.1-0.1-0.1-0.1-0.2c0-0.1,0-0.1,0-0.2c0-0.1,0-0.1,0-0.2c0-0.1,0.1-0.2,0.1-0.3   c0.2-0.3,0.3-0.8,0.2-1.2c-0.1-0.3-0.4-0.7-0.7-0.9c-0.8-0.3-1.7-0.1-2.1,0.6c-0.4,0.6-0.6,1.4-0.5,2.1   C34.4,55.2,34.5,55.5,34.6,55.9z M37.4,54.8c0-0.1-0.1-0.1-0.1-0.2C37.4,54.7,37.4,54.7,37.4,54.8z"></path><path d="M33.7,62.1c0.1,0.2,0.2,0.3,0.4,0.4c0.1,0.1,0.2,0.1,0.4,0.2c0.3,0.1,0.5,0.1,0.8,0c0.1-0.1,0.2-0.1,0.4-0.2   s0.4-0.3,0.5-0.5s0.2-0.4,0.3-0.7c0.1-0.2,0.2-0.4,0.2-0.6s0-0.4,0-0.6c0-0.2-0.1-0.4-0.3-0.5c-0.1-0.2-0.2-0.3-0.4-0.4   c-0.1-0.1-0.2-0.1-0.4-0.2c-0.3-0.1-0.5-0.1-0.8,0c-0.1,0.1-0.2,0.1-0.4,0.2c-0.2,0.1-0.3,0.3-0.5,0.5c-0.1,0.2-0.2,0.4-0.3,0.7   c-0.1,0.2-0.2,0.4-0.2,0.6s0,0.4,0,0.6C33.4,61.8,33.5,62,33.7,62.1z"></path><path d="M29.5,80.4c0.4-0.1,0.7-0.3,0.9-0.7c0.1-0.1,0.1-0.2,0.2-0.4c0.1-0.3,0.1-0.4,0-0.6c0,0,0,0,0.1,0.1c0-0.3,0-0.6,0-0.9   c0,0.1,0,0.3-0.1,0.4c0-0.2,0-0.3,0.1-0.5c0-0.1,0.1-0.3,0.2-0.4v0.1c0.1-0.1,0.1-0.2,0.2-0.3c0.2-0.2,0.3-0.4,0.5-0.5l-0.1,0.1   c0.1-0.1,0.3-0.2,0.5-0.3c0.2-0.1,0.4-0.2,0.7-0.2c0.3-0.1,0.7-0.4,0.9-0.7c0.2-0.3,0.3-0.8,0.2-1.2c-0.1-0.4-0.3-0.7-0.7-0.9   c-0.1-0.1-0.2-0.1-0.4-0.2c-0.2,0-0.5,0-0.8,0.1c-1.4,0.2-2.5,1.1-3.3,2.2c-0.4,0.5-0.6,1.1-0.8,1.6c-0.2,0.7-0.2,1.5-0.1,2.2   c0,0.3,0.4,0.7,0.7,0.9C28.6,80.4,29.1,80.5,29.5,80.4z M32.2,76.2c-0.1,0.1-0.1,0.1-0.2,0.1C32.1,76.3,32.1,76.2,32.2,76.2z"></path><path d="M103.2,59.9c0.4,0.1,0.8,0.1,1.2-0.2c0.1-0.1,0.2-0.2,0.3-0.2c0.2-0.2,0.3-0.4,0.4-0.7c0-0.3,0.1-0.6,0.1-1   c0-0.3,0-0.7-0.1-1c-0.1-0.5-0.3-1-0.5-1.5c-0.1-0.1-0.2-0.2-0.2-0.3c-0.1-0.1-0.3-0.2-0.5-0.3c-0.1-0.1-0.2-0.1-0.4-0.1   s-0.4,0-0.6,0c-0.3,0.1-0.6,0.2-1,0.3c-0.4,0.1-0.7,0.4-0.9,0.7c-0.2,0.3-0.3,0.8-0.2,1.2c0.1,0.4,0.3,0.7,0.7,0.9   c0.1,0.1,0.3,0.2,0.5,0.2c0,0.1,0,0.3,0,0.4c0-0.1,0-0.3,0.1-0.4V58c-0.1,0.2-0.1,0.4,0,0.6c0,0.2,0.1,0.4,0.2,0.6   C102.5,59.5,102.8,59.8,103.2,59.9z"></path><path d="M121.3,66.9C121.3,66.8,121.2,66.7,121.3,66.9L121.3,66.9z"></path><path d="M130.7,68c1-0.5,1.7-1.4,2.1-2.4c0.4-1,0.3-2.1-0.1-3.1c-0.2-0.5-0.5-0.8-0.9-1.1c0-0.1,0-0.1,0-0.2c0-0.8-0.7-1.5-1.5-1.5   c-0.1,0-0.1,0-0.2,0l0,0c0.1,0,0.2,0,0.3,0.1c-0.1,0-0.1,0-0.2,0c0,0-0.1,0-0.1-0.1h0l0,0c-0.1-0.1-0.2-0.2-0.3-0.3   c0,0,0.1,0.1,0.1,0.2c-0.1-0.1-0.1-0.1-0.1-0.2v-0.1c0-0.1-0.1-0.1-0.1-0.2c0.1,0.1,0.1,0.1,0.1,0.2c0,0,0,0,0-0.1   c0-0.1,0-0.2,0.1-0.3c0.1-0.1,0.2-0.2,0.3-0.3c0.1,0,0.2,0,0.3,0c0.3-0.1,0.7-0.4,0.9-0.7c0.2-0.3,0.3-0.8,0.2-1.2   c-0.1-0.4-0.3-0.7-0.7-0.9c-0.5-0.5-0.9-0.5-1.3-0.4c-1.7,0.3-3.2,2.1-3,3.8c0.1,0.9,0.5,1.7,1,2.4c-0.1,0.1-0.1,0.1-0.2,0.2   c-0.3,0.3-0.4,0.6-0.4,1.1c0,0.4,0.2,0.8,0.4,1.1c0.3,0.3,0.7,0.5,1.1,0.4c0.4,0.5,0.9,0.4,1.1,0.1c0.1-0.1,0.2-0.1,0.3-0.1   c0,0.2,0,0.3,0,0.5c0-0.1,0-0.3,0.1-0.4c0,0,0,0,0,0.1c0,0.2-0.1,0.3-0.1,0.5c0,0.1-0.1,0.1-0.1,0.2v-0.1c-0.1,0.1-0.2,0.2-0.2,0.3   c-0.2,0.1-0.3,0.2-0.5,0.3c-0.3,0.1-0.5,0.2-0.8,0.2c0,0,0,0,0.1-0.1c-0.2,0-0.4,0-0.6,0c-0.1,0-0.2,0-0.3,0c0-0.1,0.1-0.3,0.1-0.4   s0-0.3-0.1-0.4c-0.1-0.3-0.2-0.5-0.4-0.7c-0.1-0.1-0.2-0.2-0.3-0.3c-0.1-0.1-0.3-0.2-0.5-0.3c-0.2-0.1-0.4-0.1-0.6-0.1   s-0.4,0-0.6,0.1c-0.2,0.1-0.3,0.2-0.5,0.3c-0.1,0.1-0.2,0.2-0.2,0.3c-0.1,0.2-0.2,0.5-0.2,0.8c0,0.1,0,0.3,0.1,0.4   c0.1,0.3,0.2,0.5,0.4,0.7l0.1,0.1c-0.3,0.2-0.5,0.3-0.8,0.5c-0.1,0-0.3,0.1-0.1,0c0.2-0.1,0,0-0.1,0c-0.2,0.1-0.4,0.1-0.6,0.2   c-0.1,0-0.2,0-0.3,0.1h-0.1c-0.1,0-0.2,0-0.3,0c-0.1,0-0.1,0-0.2,0c-0.2,0-0.4-0.1-0.5-0.1c-0.1,0-0.3-0.1-0.1,0c0.2,0.1,0,0-0.1,0   s-0.1-0.1-0.2-0.1c0,0,0,0-0.1,0c-0.1,0-0.2-0.2-0.2-0.3c0.2,0.2,0,0,0-0.1c-0.1-0.1-0.1-0.2-0.2-0.4c-0.1-0.2,0.1,0.3,0,0.1   c0-0.1-0.1-0.2-0.1-0.2c0-0.1-0.1-0.3-0.1-0.4v-0.1v-0.1c0-0.1,0-0.2,0.1-0.2c0-0.1,0.1-0.3,0-0.1c-0.1,0.3,0,0,0-0.1   c0-0.1,0.1-0.1,0.1-0.2c0.1-0.1-0.1,0.2-0.1,0.2l0.1-0.1c0.1-0.1,0.1-0.1,0.2-0.2c0.6-0.5,0.6-1.6,0-2.1c-0.3-0.4-0.7-0.6-1.1-0.6   c0.2-0.3,0.2-0.7,0.1-1.1c-0.1-0.4-0.4-0.7-0.7-0.9c0,0,0,0-0.1-0.1l0,0l0.1,0.1c0-0.1-0.1-0.1-0.1-0.1c0.2,0,0.2,0.1,0.3,0.1   c-0.1-0.1-0.2-0.1-0.3-0.2V60c0,0,0,0-0.1-0.1c0,0,0-0.1-0.1-0.1v-0.1c0-0.2,0-0.5,0-0.7c0,0.1,0,0.3-0.1,0.4   c0-0.1,0.1-0.3,0.1-0.5c0,0,0.1-0.1,0.2-0.2c0.3-0.3,0.4-0.7,0.4-1.1c0-0.4-0.2-0.8-0.4-1.1c-0.7-0.4-1.6-0.4-2.2,0.2   c-0.8,0.8-1.2,1.9-1.1,3c0.1,0.6,0.2,1.2,0.5,1.7s0.7,1,1.2,1.3c0.2,0.1,0.5,0.2,0.8,0.2c-1.1,1.3-1.1,3.3-0.3,4.8   c0.9,1.9,3.1,2.7,5.1,2.4c0.3,0,0.7-0.1,1-0.2c0.1,0.2,0.2,0.4,0.3,0.6c0.2,0.4,0.5,0.7,0.9,0.9c0.2,0.1,0.4,0.2,0.6,0.2   s0.4,0,0.6,0c0.2,0,0.4-0.1,0.5-0.3c0.2-0.1,0.3-0.2,0.4-0.4c0.2-0.3,0.3-0.8,0.2-1.2c-0.1-0.1-0.1-0.2-0.2-0.4   c0-0.2-0.1-0.3-0.2-0.5c0.1,0,0.3,0,0.4,0C128.8,68.8,129.8,68.5,130.7,68z M130.4,58.4c-0.1,0.1-0.1,0.1-0.2,0.1   C130.3,58.5,130.3,58.4,130.4,58.4z M130.1,58.6c0,0-0.1,0.1-0.2,0.1C130,58.6,130,58.6,130.1,58.6z M130,64.3   c0.1,0.1,0.1,0.2,0.1,0.2C130,64.4,130,64.4,130,64.3z"></path><path d="M129.9,59.4c0-0.2,0-0.3,0-0.5c0,0.1,0,0.2-0.1,0.3C129.8,59.3,129.8,59.3,129.9,59.4z"></path><path d="M130.2,59.8C130.2,59.7,130.1,59.7,130.2,59.8C130.1,59.7,130.1,59.7,130.2,59.8C130.1,59.7,130.1,59.7,130.2,59.8z"></path><path d="M158.2,100.6C158.4,100.9,158.3,100.7,158.2,100.6L158.2,100.6z"></path><path d="M161.1,93.8C161.2,93.8,161.2,93.7,161.1,93.8C161.2,93.7,161.2,93.7,161.1,93.8z"></path><polygon points="160.9,92.1 160.9,92.1 160.9,92.1  "></polygon><path d="M160.9,92.1c0,0,0.1,0.1,0.1,0.1C161.1,92.3,161,92.1,160.9,92.1z"></path><path d="M164.1,103c0,0.7,0,1.3,0,2c0,0.4,0.2,0.8,0.4,1.1c0.1,0.1,0.3,0.2,0.5,0.3c0.2,0.1,0.4,0.1,0.6,0.1c0.4,0,0.8-0.1,1.1-0.4   c0.3-0.3,0.4-0.7,0.4-1.1c0-0.7,0-1.3,0-2c0-0.4-0.2-0.8-0.4-1.1c-0.1-0.1-0.3-0.2-0.5-0.3c-0.2-0.1-0.4-0.1-0.6-0.1   c-0.3,0-0.5,0.1-0.8,0.2c0.2-0.7,0.2-1.5,0.1-2.2c-0.3-1.3-1.1-2.3-2.3-2.8c1-0.8,1.6-2,1.7-3.3c0.1-1.3-0.4-2.8-1.5-3.7   c-0.3-0.3-0.6-0.4-1.1-0.4c-0.4,0-0.8,0.2-1.1,0.4c-0.5,0.6-0.6,1.6,0,2.1c0.1,0.1,0.2,0.2,0.3,0.3c0,0,0,0,0.1,0   c0,0.1,0.1,0.2,0.1,0.2s0,0.1,0.1,0.1c0.1,0.2,0.1,0.4,0.1,0.5c0-0.1,0-0.3-0.1-0.4c0,0.3,0,0.7,0,1c0-0.1,0-0.3,0.1-0.4   c0,0.2-0.1,0.4-0.1,0.6c0,0.1,0,0.1-0.1,0.2c0,0,0-0.1,0-0.1c0,0.1-0.1,0.1-0.1,0.2c-0.1,0.1-0.1,0.2-0.2,0.3l-0.1,0.1   c0,0-0.1,0.1-0.2,0.1c-0.7,0.4-1,1.3-0.5,2.1c0.2,0.2,0.4,0.4,0.7,0.6c-0.1,0.1-0.2,0.3-0.2,0.4c-0.1,0.8,0.3,1.4,1,1.7h-0.1   c0.2,0.1,0.3,0.2,0.4,0.3c0,0,0,0,0-0.1c0,0,0,0,0,0.1c0,0,0.1,0.1,0.1,0.1c0.1,0.1,0.1,0.3,0.2,0.4c-0.1-0.1-0.1-0.1-0.1-0.2   c0,0.1,0,0.1,0,0.2c0,0.2,0,0.3,0,0.5c0,0,0-0.2,0.1-0.3c0,0.1,0,0.2-0.1,0.3c0,0,0,0.1,0,0.1l-0.1,0.1c-0.1,0.1-0.2,0.2-0.3,0.3   l-0.1,0.1c-0.1-1.1-0.6-2.2-1.4-2.9c-0.6-0.5-1.6-0.6-2.1,0c-0.1,0.2-0.2,0.3-0.3,0.5c-0.1-0.1-0.3-0.2-0.5-0.3c0,0-0.1,0-0.1-0.1   c-0.1-0.1-0.2-0.1-0.2-0.2c0,0,0,0,0,0.1c0,0,0,0,0,0c-0.1-0.1-0.2-0.2-0.2-0.3c-0.1-0.1-0.1-0.3-0.1-0.3c0,0,0,0,0.1,0   c0-0.3,0-0.6,0-0.8c0,0.1,0,0.3-0.1,0.4c0-0.2,0.1-0.4,0.1-0.6c0.1-0.1,0.2-0.3,0.4-0.3c0.3-0.2,0.4-0.7,0.4-1.1   c0-0.2,0-0.3-0.1-0.4c0.8,0.3,1.7,0.3,2.4-0.3c0.3-0.2,0.6-0.5,0.7-0.9c0.1-0.4,0.1-0.8-0.2-1.2c-0.2-0.3-0.5-0.6-0.9-0.7   c-0.4-0.1-0.8-0.1-1.2,0.2c0,0,0,0,0,0c0,0,0,0,0,0h0c0-0.2,0-0.3,0-0.5c0,0.1,0,0.3-0.1,0.4c0,0,0,0,0,0.1c0,0,0,0-0.1-0.1l0,0   c0,0,0,0,0-0.1c0,0,0,0,0-0.1c0.1,0.1,0.1,0.1,0.1,0.2c0-0.2,0.1-0.3,0.1-0.5c0.1-0.2,0.2-0.4,0.3-0.5c0.2-0.2,0.3-0.4,0.5-0.6   c0.5-0.6,0.6-1.6,0-2.1c-0.5-0.9-1.4-1-2-0.4c-0.7,0.7-1.2,1.5-1.6,2.4c-0.4,0.9-0.3,2,0.1,2.9c0.1,0.2,0.2,0.5,0.4,0.7   c-0.5-0.1-0.7,0.1-1,0.3c-1.2,1-1.5,2.6-1.2,4.1c0.3,1.5,1.4,2.7,2.8,3.1c0.7,0.2,1.6-0.2,1.8-0.8l0.1,0.1c0.1,0.1,0.2,0.2,0.2,0.4   l0,0c0,0,0,0.1,0.1,0.2c0-0.1-0.1-0.1-0.1-0.2l0.1,0.1c0.1,0.2,0.1,0.3,0.1,0.5c0,0.1,0,0.1,0,0.1c0,0.1,0,0.2,0,0.2   c0,0.1,0,0.1,0,0.2s0,0.1-0.1,0.2c0,0,0,0,0,0.1c0,0,0,0,0-0.1l-0.1,0.1c0,0,0,0,0,0c0,0,0,0,0,0.1c0,0.1-0.1,0.1-0.1,0.2l-0.1,0.1   c0-0.1,0.1-0.1,0.1-0.2c-0.1,0.1-0.2,0.3-0.3,0.4c-0.1,0-0.1,0.1-0.2,0.1c-0.1,0.1-0.1,0.1-0.2,0.1v0c-0.1,0-0.2,0.1-0.2,0.1   c0.2-0.1,0.2-0.1,0.2-0.1c0,0,0,0.1-0.1,0.1c-0.1,0-0.2,0.1-0.3,0.1c-0.1,0-0.2,0-0.3,0.1c-0.1,0-0.2,0-0.4,0c-0.1,0-0.2,0-0.3-0.1   c-0.8-0.2-1.7,0.2-1.8,1c0.1,0.8,0.5,1.7,1.3,1.9c0.8,0.2,1.7,0.2,2.5-0.1c-0.2,0.6-0.4,1.2-0.4,1.8c-0.1,1,0.2,2,0.8,2.8   c0.2,0.3,0.5,0.6,0.9,0.7c0.4,0.1,0.8,0.1,1.2-0.2c0.3-0.2,0.6-0.5,0.7-0.9c0.1-0.4,0.1-0.8-0.2-1.2c-0.1-0.1-0.2-0.3-0.3-0.4   c0-0.1-0.1-0.2-0.1-0.2c0,0,0,0,0.1,0c0-0.3,0-0.6,0-0.9c0,0.1,0,0.3-0.1,0.4c0-0.3,0.1-0.5,0.2-0.7c0,0,0,0-0.1,0   c0,0,0-0.1,0.1-0.1c0.1-0.1,0.1-0.2,0.2-0.3l-0.1,0.1c0.3-0.3,0.4-0.7,0.4-1.1c0-0.4-0.2-0.8-0.4-1.1c-0.1-0.1-0.3-0.3-0.5-0.3   c0.1-0.2,0.3-0.4,0.4-0.6c0.2-0.3,0.3-0.7,0.4-1.1c0.1,0.1,0.1,0.3,0.2,0.4c0.3,0.3,0.7,0.5,1.1,0.4c0.4,0,0.7-0.2,1.1-0.4   C163.9,103.2,164,103.1,164.1,103z M161.6,99.4C161.6,99.4,161.6,99.4,161.6,99.4C161.7,99.4,161.6,99.4,161.6,99.4z M157.9,92   L157.9,92L157.9,92L157.9,92z M156.5,97.7c0.1,0.1,0.1,0.2,0.1,0.3C156.6,97.9,156.5,97.8,156.5,97.7z M156.9,98.3   C156.9,98.3,156.9,98.3,156.9,98.3C156.9,98.3,156.9,98.3,156.9,98.3C156.9,98.3,156.9,98.3,156.9,98.3z"></path><path d="M161,107.3C161,107.3,161,107.3,161,107.3C161,107.3,161,107.3,161,107.3z"></path><path d="M162,99.9c0-0.1,0-0.2-0.1-0.2C161.9,99.8,162,99.9,162,99.9z"></path><path d="M167.6,92c0,0,0,0,0.1-0.1L167.6,92z"></path><path d="M167.7,91.9C167.6,92,167.7,92,167.7,91.9L167.7,91.9z"></path><path d="M167.6,88.7c-0.6,0.6-0.6,1.5,0,2.1c0.1,0.1,0.1,0.1,0.1,0.1l0,0c0,0,0,0,0,0l0,0c0,0.1,0,0.1,0.1,0.2c0,0.2,0,0.4,0,0.6   c0-0.1,0-0.2,0.1-0.3c0,0.1,0,0.3-0.1,0.4c0,0.1-0.1,0.1-0.1,0.1s0,0,0.1,0c-0.1,0-0.1,0.1-0.1,0.1h-0.1h0c-0.2,0-0.3,0-0.5,0   c0.1,0,0.2,0,0.3,0.1h-0.1c-0.4-0.1-0.8-0.1-1.1,0.2c-0.3,0.2-0.6,0.5-0.7,0.9c-0.1,0.4-0.1,0.8,0.2,1.2c0,0.3,0.4,0.6,0.7,0.7   c0.5,0.1,0.9,0.1,1.5,0c0.4-0.1,0.7-0.2,1.1-0.4c0.7-0.3,1.3-0.9,1.6-1.5c0.8-1.5,0.5-3.3-0.7-4.6   C169.2,88.1,168.1,88.1,167.6,88.7z M167.6,90.7c0,0,0,0.1,0,0.1C167.6,90.7,167.6,90.7,167.6,90.7z M167.8,91   c0,0.1,0.1,0.1,0.1,0.2C167.8,91.1,167.8,91.1,167.8,91z"></path><path d="M163.4,86.2C163.4,86.1,163.3,86,163.4,86.2L163.4,86.2z"></path><path d="M164.1,83.4L164.1,83.4c0.8-0.2,1.4-1,1.1-1.8c0-0.8-0.8-1.3-1.6-1.1c-1.6,0.5-2.8,1.9-3.2,3.5c-0.4,1.6-0.1,3.4,1.1,4.6   c0.5,0.6,1.6,0.6,2.1,0c0.6-0.6,0.6-1.5,0-2.1c-0.1-0.1-0.1-0.2-0.2-0.3v0.1c0,0-0.1-0.1-0.1-0.2c0-0.1-0.1-0.2-0.1-0.4   c0-0.1,0-0.1,0-0.1c0,0.2,0.1,0.4,0-0.1c0-0.1,0-0.2,0-0.3v-0.1c0-0.1,0-0.2,0-0.3v-0.1c0-0.1,0.1-0.2,0.1-0.4c0-0.1,0.1-0.3,0,0   c0.1-0.1,0.1-0.2,0.2-0.3c0-0.1,0.1-0.1,0.1-0.2c0,0,0,0-0.1,0.1c0.1-0.1,0.2-0.2,0.3-0.3C163.9,83.5,164,83.5,164.1,83.4z    M163.5,83.9C163.5,83.9,163.5,83.9,163.5,83.9C163.5,83.9,163.4,84,163.5,83.9z"></path><path d="M150.7,88.5C150.6,88.3,150.6,88.4,150.7,88.5L150.7,88.5z"></path><path d="M150.8,89L150.8,89c0,0.2,0,0.2,0,0.3c0,0.1,0,0.2,0,0.3c0,0.3-0.1,0.1,0,0c-0.1,0.1-0.1,0.4-0.1,0.5s-0.1,0.2-0.1,0.3v0.1   l-0.1,0.1c0,0.1-0.1,0.1-0.1,0.2c0,0.1-0.1,0.2-0.1,0.2s0,0-0.1,0.1v0.1c-0.1,0.1-0.2,0.2-0.3,0.2c-0.6,0.5-0.6,1.6,0,2.1   c0.6,0.6,1.5,0.6,2.1,0c1.5-1.4,2.1-3.7,1.6-5.7c-0.5-1.9-2.1-3.5-4-4c-0.8-0.2-1.7,0.3-1.8,1c0,0.9,0.4,1.7,1.2,2   c0.1,0,0.2,0.1,0.2,0.1c0.1,0.1,0.3,0.2,0.4,0.2c0.1,0,0.1,0.1,0.2,0.1c0.2,0.1,0,0-0.1,0c0.1,0.1,0.3,0.3,0.4,0.3   c0.1,0.1,0.1,0.1,0.2,0.2c0,0,0.2,0.2,0,0.1c-0.1-0.2,0,0.1,0.1,0.1c0,0.1,0.1,0.1,0.1,0.2c0.1,0.1,0.1,0.3,0.2,0.4   c0,0.1,0.1,0.2,0.1,0.2c0,0.1,0,0.1,0,0.2C150.8,88.9,150.9,89.3,150.8,89z"></path><path d="M155.2,85.9c0.8,0.2,1.6,0,2.3-0.3c0.4-0.2,0.7-0.3,1.1-0.6c0.6-0.4,1-0.9,1.3-1.6c0.2-0.5,0.2-1.2,0.1-1.7   c-0.2-1-1-1.9-1.9-2.4c-1.1-0.6-2.3-0.6-3.6-0.6c-0.8,0-1.5,0.7-1.5,1.5s0.7,1.5,1.5,1.5c0.2,0,0.4,0,0.6,0c-0.4,0.2-0.7,0.3-1,0.6   c-0.6,0.5-0.8,1.4-0.5,2.1C153.8,85.1,154.4,85.7,155.2,85.9z M156.5,83.2L156.5,83.2C156.5,83.2,156.4,83.2,156.5,83.2z    M156.6,83.8c0,0,0,0-0.1,0.1C156.5,83.8,156.5,83.7,156.6,83.8C156.6,83.7,156.6,83.7,156.6,83.8z M156,81.5c0,0.1,0,0.1-0.1,0.1   c0.3,0,0.5,0.1,0.8,0.3l0.1,0.1l0.1,0.1c0,0,0,0,0,0.1c0,0,0,0-0.1,0.1c-0.1,0.1-0.3,0.1-0.4,0.2c-0.1-0.2-0.2-0.4-0.3-0.6   c-0.2-0.2-0.5-0.3-0.7-0.4C155.6,81.5,155.8,81.5,156,81.5z"></path><path d="M155.9,81.6c-0.1,0-0.1,0-0.2,0C155.8,81.7,155.9,81.7,155.9,81.6z"></path><path d="M150.8,82.3c0.5-0.6,0.6-1.5,0-2.1c-0.1-0.1-0.1-0.1-0.2-0.2l0,0c-0.1-0.2-0.1-0.3-0.2-0.4c0,0,0,0,0.1,0   c0-0.3,0-0.6,0-0.9c0,0.1,0,0.3-0.1,0.4c0-0.3,0.1-0.5,0.2-0.7l0.1-0.1c0.1-0.1,0.2-0.2,0.3-0.3c0.5,0.2,1,0.3,1.5,0.2   c1-0.1,2-0.6,2.7-1.4c0.8-1,1.2-2.2,0.9-3.5c-0.2-0.8-1.1-1.3-1.8-1c-0.8,0.3-1.2,1-1,1.7c0,0,0,0,0,0.1c0,0.1,0,0.2-0.1,0.3   c0,0.1-0.1,0.1-0.1,0.2c-0.1,0.1-0.1,0.2-0.2,0.2l0.1-0.1c-0.1,0-0.1,0.1-0.2,0.1c-0.1,0.1-0.2,0.1-0.3,0.2c0,0,0,0,0-0.1   c0.1,0,0.1,0,0.2-0.1c-0.1,0-0.2,0.1-0.3,0.1c0,0-0.1,0-0.1,0s-0.1,0-0.1,0c-0.1,0-0.1,0-0.2,0c-0.1-0.1-0.2-0.3-0.3-0.4   c-0.1-0.1-0.1-0.2-0.1-0.3c0.1,0.1,0.1,0.1,0.1,0.2c0-0.1,0-0.1,0-0.2c0-0.2,0-0.3,0-0.5c0,0,0,0,0,0c0,0.1,0,0.2-0.1,0.3   c0,0,0-0.1,0-0.1c0,0,0,0,0,0c0-0.1,0-0.1,0.1-0.2c0,0,0,0,0,0c0,0,0,0,0,0c0.4-0.7,0.2-1.7-0.5-2.1c-1-0.3-1.9-0.1-2.3,0.6   c-0.7,1.1-0.7,2.4-0.2,3.5c-1,0.8-1.5,2.1-1.5,3.3s0.4,2.6,1.4,3.4C149.3,82.8,150.3,82.9,150.8,82.3z M150.6,80   C150.6,80,150.6,80,150.6,80c-0.2-0.2-0.2-0.3-0.2-0.4C150.5,79.7,150.5,79.8,150.6,80z"></path><path d="M151.6,73.9c0.1-0.1,0.1-0.1,0.1-0.1c0,0,0,0,0,0C151.6,73.8,151.6,73.8,151.6,73.9z"></path><path d="M151.7,74.4c0,0.1,0,0.2,0.1,0.2C151.8,74.5,151.7,74.4,151.7,74.4z"></path><path d="M153.2,73.9c0,0.2,0,0.4,0,0.5c0-0.1,0-0.2,0.1-0.3C153.3,74,153.3,74,153.2,73.9z"></path><path d="M136.2,70C136.1,70.1,136.2,70.1,136.2,70L136.2,70z"></path><path d="M136.2,70l-0.1,0.1C136.1,70.1,136.1,70.1,136.2,70z"></path><path d="M51,40.9c-0.2,0.3-0.2,0.8-0.2,1.2c0.1,0.3,0.4,0.7,0.7,0.9c0,0,0.1,0.1,0.2,0.1c-0.4,0.4-0.6,0.9-0.4,1.4   c0.2,0.9,1,1.4,1.8,1.2c0.1,0,0.2,0,0.3-0.1c0,0,0,0-0.1,0.1c0.1,0,0.3,0,0.4,0c0,0-0.1,0-0.1-0.1c0.3,0,0.6,0.1,0.9,0.2h-0.1   c0.1,0.1,0.2,0.1,0.3,0.2c0.2,0.2,0.4,0.4,0.5,0.5v0.1c0.4,0.7,1.4,1,2.1,0.5c0.7-0.4,1-1.3,0.5-2.1c-0.9-1.5-2.6-2.5-4.3-2.5   c0.3-0.4,0.7-0.7,1-1l-0.1,0.1c0.4-0.3,0.7-0.5,1.1-0.7c0.1-0.1,0.3-0.1,0.4-0.2c-0.1,0.1-0.2,0.1-0.4,0.2c0.5-0.2,0.9-0.3,1.3-0.4   c0,0,0,0,0.1,0c0.4-0.1,0.8-0.1,1.1-0.4c0.3-0.3,0.5-0.7,0.4-1.1c0-0.4-0.1-0.8-0.4-1.1c-0.3-0.2-0.7-0.5-1.1-0.4   c-1.2,0.2-2.3,0.5-3.3,1.1C52.6,39.2,51.7,40,51,40.9z M55.3,46.5c-0.1-0.1-0.2-0.2-0.2-0.3C55.2,46.3,55.2,46.4,55.3,46.5z"></path><path d="M60.8,41.7c2.2,1.6,6.1,1.3,7.1-1.5c0.5-1.5-0.3-3.4-1.9-3.8c-0.8-0.2-1.7,0.3-1.8,1c-0.2,0.7,0.1,1.4,0.8,1.7   c0,0,0,0.1,0,0.1c0,0,0,0,0.1,0c0,0,0,0,0,0.1L65,39.4c-0.1,0-0.1,0.1-0.2,0.1h-0.1c0,0,0,0-0.1,0h-0.1c-0.1,0-0.2,0.1-0.3,0.1H64   c-0.1,0-0.3,0-0.4,0c-0.1,0-0.2,0-0.3-0.1c-0.1,0-0.2-0.1-0.3-0.1c-0.2-0.1-0.4-0.2-0.6-0.3c-0.1-0.1-0.1-0.1-0.2-0.2   c0-0.1-0.1-0.1-0.1-0.1c0-0.1-0.1-0.1-0.1-0.2c-0.1-0.1-0.1-0.2-0.1-0.2s-0.1-0.1-0.1-0.2v-0.1V38c0-0.1,0-0.2,0-0.2   c0-0.1,0-0.2,0-0.3v-0.1c0-0.1,0-0.2,0.1-0.3c0-0.1,0-0.1,0-0.2c0.1-0.2-0.1,0.1-0.1,0.1c0-0.1,0.1-0.2,0.1-0.3   c0-0.1,0.3-0.4,0.1-0.2l0.1-0.1c0.6-0.6,0.6-1.6,0-2.1c-0.5-0.4-1.4-0.4-2,0.2c-0.9,0.9-1.4,2.3-1.3,3.6   C58.9,39.6,59.6,40.8,60.8,41.7z M65.1,39.1C65.2,39.1,65.3,39.2,65.1,39.1L65.1,39.1z"></path><path d="M65,39.2C65,39.3,65,39.3,65,39.2C65.1,39.3,65.1,39.2,65,39.2z"></path><path d="M65,39.2C65,39.2,65,39.2,65,39.2C65,39.2,65,39.2,65,39.2C65,39.2,65,39.2,65,39.2z"></path><path d="M61.9,43.8c-0.1-0.1-0.2-0.1-0.2-0.2c0-0.1,0-0.1-0.1-0.2c-0.1-0.2-0.2-0.3-0.3-0.5c-0.1-0.1-0.3-0.2-0.5-0.3   c-0.2-0.1-0.4-0.1-0.6-0.1c-0.1,0-0.3,0-0.4,0.1c-0.3,0.1-0.5,0.2-0.7,0.4c-0.1,0.1-0.2,0.2-0.2,0.3c-0.4,0.1-0.4,0.3-0.4,0.6   c0,0.1,0,0.1,0,0.2c0,0.2,0,0.4,0.1,0.6c0,0.2,0.1,0.3,0.2,0.5c0,0.1,0.1,0.1,0.1,0.2c0,0.1,0.1,0.1,0.2,0.2   c0.1,0.1,0.1,0.1,0.2,0.2l0.1,0.1c0.1,0.1,0.3,0.2,0.4,0.3c0.1,0,0.2,0.1,0.2,0.1c0.1,0,0.2,0.1,0.3,0.1c0.2,0.1,0.4,0.1,0.6,0   c0.2,0,0.4-0.1,0.6-0.2c0.2-0.1,0.3-0.2,0.4-0.4c0.1-0.1,0.2-0.3,0.3-0.5c0-0.1,0-0.3,0.1-0.4c0-0.3-0.1-0.5-0.2-0.8   C62,44,61.9,43.9,61.9,43.8z"></path><path d="M73.9,39.9c-0.1-0.1-0.2-0.2-0.3-0.2c0-0.1-0.2-0.2-0.2-0.3c-0.1-0.1-0.1-0.1-0.1-0.2c0-0.1,0-0.1-0.1-0.2   c-0.2-0.8-1.1-1.3-1.8-1c-0.8,0.1-1.3,0.9-1,1.7c0.7,2.4,3.2,4,5.7,3.4c1.2-0.3,2.3-1.1,3-2.1c0.7-1,0.9-2.2,0.7-3.3   c-0.2-1.3-1.2-2.5-2.5-2.8c-0.8-0.2-1.7,0.3-1.8,1c-0.2,0.8,0.2,1.6,1,1.8c0,0,0,0,0.1,0.1c0,0,0,0,0,0c0,0,0.1,0,0.1,0.1   c0,0,0,0,0,0.1c0.1,0.1,0.1,0.2,0.1,0.2v0.1c0,0.1,0,0.2,0.1,0.3c-0.1-0.4,0-0.2,0-0.1v0.1c0,0.1,0,0.1,0,0.2c0,0,0,0,0,0.1   c0,0,0,0,0,0c0,0,0,0,0,0c0,0,0,0.1,0,0.1c0-0.1,0-0.1,0-0.1c0,0.1-0.1,0.1-0.1,0.1c0,0.1-0.1,0.1-0.1,0.2   c-0.1,0.1-0.1,0.2-0.2,0.3c0,0,0,0,0,0c0,0,0,0,0,0c-0.1,0.1-0.2,0.2-0.2,0.2C76,39.9,76,39.9,75.9,40c-0.1,0-0.1,0.1-0.2,0.1   s-0.1,0.1-0.2,0.1c-0.1,0-0.3,0-0.4,0.1c0,0,0,0-0.1,0c-0.1,0-0.1,0-0.2,0h-0.1h-0.1c0,0,0,0-0.1,0c-0.1,0-0.2-0.1-0.3-0.1   c-0.1,0-0.1,0,0.1,0.1c-0.1,0-0.1-0.1-0.2-0.1C74.2,40,74.1,40,73.9,39.9c0,0,0-0.1-0.1-0.1C74,39.9,74,40,73.9,39.9z"></path><path d="M76.9,38.9C76.9,38.9,76.9,38.9,76.9,38.9C76.8,38.9,76.8,39,76.9,38.9C76.8,39,76.9,38.9,76.9,38.9   C76.9,38.9,76.9,38.9,76.9,38.9z"></path><path d="M81.9,32c-0.1-0.1-0.2-0.1-0.4-0.2c-0.3-0.1-0.5-0.1-0.8,0c-0.8,0.1-1.5,0.2-2.3,0.3c-0.2,0-0.4,0.1-0.5,0.3   c-0.2,0.1-0.3,0.2-0.4,0.4c-0.2,0.3-0.3,0.8-0.2,1.2c0.1,0.4,0.3,0.7,0.7,0.9c0.1,0.1,0.2,0.1,0.4,0.2c0.2,0.1,0.5,0.1,0.8,0   c0.8-0.1,1.5-0.2,2.3-0.3c0.2,0,0.4-0.1,0.5-0.3c0,0.2,0.1,0.4,0.2,0.5c0.5,1,1.5,1.7,2.5,2.1c0.5,0.2,1,0.3,1.5,0.3s1-0.1,1.5-0.2   c0.4-0.1,0.7-0.3,0.9-0.7c0.2-0.3,0.3-0.8,0.2-1.2c-0.1-0.4-0.3-0.7-0.7-0.9c-0.3-0.2-0.8-0.3-1.2-0.2c-0.1,0-0.2,0.1-0.3,0.1   c-0.3,0-0.6,0-0.8,0c0.1,0,0.3,0,0.4,0.1c-0.3,0-0.6-0.1-0.8-0.2h-0.1c-0.1-0.1-0.1-0.1-0.2-0.2c-0.1-0.1-0.2-0.3-0.3-0.4   c-0.4-0.7-1.4-1-2.1-0.5c0,0,0,0-0.1,0c0-0.1,0-0.2,0-0.2C82.5,32.5,82.3,32.2,81.9,32z"></path><path d="M88,27.6c-1.4,0.1-2.8,0.5-4.1,1.2c-0.3,0.2-0.6,0.6-0.7,0.9c-0.1,0.4-0.1,0.8,0.2,1.2c0.5,0.6,1.3,0.8,2.1,0.4   c0.2-0.1,0.4-0.2,0.6-0.3c0,0-0.1,0.1-0.2,0.1c0.5-0.2,1.1-0.3,1.7-0.4h-0.1c0.2,0,0.3,0,0.5-0.1c0.4,0,0.8-0.1,1.1-0.4   c0.3-0.3,0.5-0.7,0.4-1.1c0-0.3-0.1-0.6-0.2-0.8c0.5,0.1,1,0,1.4-0.4c0.5-0.5,0.6-1.6,0-2.1c0,0-0.1-0.1-0.2-0.2l0.1-0.1l0.1-0.1   c0.1-0.1,0.1-0.1,0.2-0.2c0.1-0.1,0.1-0.1,0.1-0.1c0.1-0.1,0.2-0.1,0.2-0.2c0.2-0.1,0.4-0.2,0.6-0.3c-0.2,0.1,0.1,0,0.2-0.1   c0.1,0,0.2-0.1,0.4-0.1c0.2-0.1,0.5-0.1,0.7-0.2c0.1,0,0.2,0,0.3-0.1c0.1,0,0.1,0,0.1,0h0.1c0.2,0,0.5,0,0.7,0c0.5,0,1,0,1.5,0   c0.2,0,0.5,0,0.7,0.1h0.1c0.1,0,0.3,0,0.4,0.1c0.5,0.1,1,0.2,1.5,0.3c0.8,0.1,1.7-0.2,1.8-1c0.2-1-0.2-1.9-1-2.1   c-2.6-0.5-5.4-1-7.9-0.1c-1.3,0.4-2.6,1.2-3.3,2.4s-0.7,2.7,0.2,3.8C88.2,27.6,88.1,27.6,88,27.6z"></path><path d="M85.9,31.1c-0.1,0-0.2,0.1-0.2,0.1C85.8,31.1,85.9,31.1,85.9,31.1z"></path><path d="M93,27.8c-0.7,0.4-1,1.4-0.5,2.1c0.3,0.6,1.2,0.9,1.9,0.5c0.1-0.1,0.3-0.2,0.4-0.2c0,0-0.2,0.1-0.4,0.2   c0.3-0.1,0.5-0.2,0.6-0.3c0,0,0,0,0,0.1c0.4,0,0.7,0,1.1,0c-0.1,0-0.3,0-0.4-0.1c0.3,0,0.7,0.1,1,0.3c0.1,0,0.1,0.1,0.2,0.1   c0.7,0.4,1.7,0.2,2.1-0.5s0.2-1.6-0.5-2.1C96.9,26.8,94.6,26.8,93,27.8z"></path><path d="M94,36.5c0.4,0,0.8-0.2,1.1-0.4c0.8-0.8,1.6-1.5,2.3-2.3c0.3-0.3,0.4-0.7,0.4-1.1c0-0.4-0.2-0.8-0.4-1.1   c-0.3-0.3-0.7-0.5-1.1-0.4c-0.4,0-0.8,0.1-1.1,0.4c-0.8,0.8-1.6,1.5-2.3,2.3c-0.3,0.3-0.4,0.7-0.4,1.1s0.2,0.8,0.4,1.1   C93.2,36.4,93.6,36.6,94,36.5z"></path><path d="M73.8,29.2c0.4,0.9,1.2,1.3,2,1.1c0.8-0.1,1.5-0.5,2.1-0.9c0.3-0.2,0.6-0.4,0.9-0.5c0.1-0.1,0.3-0.2,0.4-0.2c0,0,0,0,0.1,0   c0.1,0,0.1,0,0.2-0.1c0.1,0,0.5-0.1,0.2-0.1c0.1,0,0.2,0,0.2,0s0.1,0,0.2,0c-0.3,0,0.1,0,0.2,0.1c0,0,0,0,0,0.1   c0.1,0.8,1.1,1.3,1.8,1c0.8-0.3,1.2-1,1-1.8c-0.3-1.8-2.4-2.6-4-2.3c-0.9,0.1-1.6,0.5-2.4,0.9c-0.3,0.2-0.7,0.4-1,0.6   c-0.1,0-0.1,0-0.2,0.1c0,0,0,0,0.1-0.1c-0.1,0-0.1,0-0.2,0.1c-0.2,0.1-0.4,0.1-0.6,0.2C74,27.5,73.5,28.5,73.8,29.2z M80.5,28.6   v0.1C80.5,28.7,80.4,28.7,80.5,28.6C80.4,28.6,80.4,28.6,80.5,28.6z"></path><path d="M69.5,35.4c0.1-0.2,0.2-0.3,0.3-0.4h-0.1c0,0,0,0-0.1,0.1C69.6,35.1,69.6,35.2,69.5,35.4z"></path><path d="M64.4,32.1c0.1,0.2,0.1,0.4,0.2,0.5c0.1,0.1,0.2,0.2,0.3,0.4c0,0,0,0.1,0.1,0.1c0,0,0,0,0.1,0.1c0.1,0.1,0.2,0.2,0.4,0.3   c0,0,0.1,0,0.1,0.1c0.1,0.1,0.3,0.1,0.4,0.2c0.1,0,0.2,0,0.3,0c0.1,0,0.2,0,0.3,0c0.2,0,0.4,0,0.6-0.1c-0.1,0.2-0.2,0.4-0.3,0.6   c-0.2,0.7,0.3,1.7,1,1.8c0.7,0.3,1.4-0.2,1.7-1c0-0.1,0.2-0.2,0.3-0.3c0.1,0,0.1-0.1,0.2-0.1c0,0,0,0,0.1,0c0,0,0.1,0,0.1,0   c0.1,0.1,0.1,0.1,0.2,0l0,0c0,0,0,0,0.1,0c0,0,0,0-0.1,0l0.1,0.1v-0.1c0,0.1,0.1,0.1,0.1,0.2v0c0,0,0,0.1,0,0.1v0   c0,0.2,0,0.3,0,0.5c0-0.1,0-0.2,0.1-0.3c0,0.1-0.1,0.2-0.1,0.4l0.1-0.1c-0.1,0.3-0.1,0.5-0.1,0.9c0.1,0.3,0.4,0.7,0.7,0.9   s0.8,0.3,1.2,0.2c0.3-0.1,0.7-0.3,0.9-0.7c0.2-0.5,0.3-0.8,0.4-1.4c0-0.4,0-0.7-0.1-1.1c-0.1-0.7-0.5-1.4-1-1.8   c-1.2-1.1-2.9-1.3-4.3-0.5c-0.2,0.1-0.4,0.2-0.5,0.4c0-0.1,0-0.2,0-0.3c0-0.1,0-0.3-0.1-0.4c-0.1-0.3-0.2-0.5-0.4-0.7   c-0.1-0.1-0.1-0.1-0.2-0.2c0-0.1,0-0.2-0.1-0.3c-0.1-0.2-0.2-0.3-0.3-0.5c-0.1-0.1-0.2-0.2-0.3-0.2c-0.2-0.1-0.5-0.2-0.8-0.2   c-0.1,0-0.3,0-0.4,0.1c-0.2-0.5-0.4-0.4-0.6-0.2c-0.1,0.1-0.2,0.2-0.3,0.4c0,0,0,0.1-0.1,0.1c-0.1,0.1-0.1,0.3-0.2,0.4v0.1   c0,0.2,0,0.3-0.1,0.5v0.1c0,0.2,0,0.4,0.1,0.6C64.3,32,64.3,32,64.4,32.1z M67.4,31.7L67.4,31.7c0,0.2,0,0.3-0.1,0.3   c0-0.1,0-0.1,0-0.1C67.3,31.8,67.3,31.8,67.4,31.7z M67.3,31.4c0-0.1-0.1-0.1,0-0.1V31.4z"></path><path d="M69.7,35c0.1-0.1,0.2-0.1,0.2-0.2l-0.1,0.1C69.8,34.9,69.7,35,69.7,35z"></path><path d="M55.7,32.9c0.1,0.2,0.2,0.4,0.3,0.5c0.3,0.4,0.7,0.8,1.1,1.1c0.3,0.2,0.8,0.3,1.2,0.2c0.3-0.1,0.7-0.4,0.9-0.7   s0.3-0.8,0.2-1.2c-0.1-0.4-0.3-0.7-0.7-0.9c-0.1-0.1-0.1-0.1-0.2-0.2c0.1,0.1,0.1,0.1,0.1,0.2c-0.1-0.1-0.1-0.1-0.1-0.1s0,0,0-0.1   c0-0.2,0-0.3,0-0.5c0,0.1,0,0.2-0.1,0.3c0-0.1,0.1-0.2,0.1-0.4c0.2-0.3,0.2-0.8,0.2-1.2c-0.1-0.3-0.4-0.7-0.7-0.9s-0.8-0.3-1.2-0.2   c-0.1,0.1-0.2,0.1-0.4,0.2c0,0.2-0.2,0.4-0.4,0.6c-0.2,0.2-0.3,0.5-0.4,0.7c-0.1,0.1-0.1,0.3-0.1,0.4c-0.1,0.6-0.1,1.1,0,1.6   C55.5,32.5,55.6,32.7,55.7,32.9z"></path><path d="M45.7,35.7c0.1,0.2,0.1,0.3,0.2,0.5c0,0.1,0.1,0.1,0.1,0.2c0.1,0.2,0.2,0.3,0.3,0.4c0.1,0.1,0.3,0.2,0.5,0.3   c0.2,0.1,0.4,0.1,0.6,0.1c0.2,0,0.4,0,0.6-0.1c0.2-0.1,0.3-0.2,0.5-0.3c0.1-0.1,0.2-0.2,0.2-0.3c0.1-0.2,0.2-0.5,0.2-0.8   c0-0.1,0-0.3-0.1-0.4c-0.1-0.2-0.2-0.4-0.3-0.6c0,0,0,0-0.1-0.1c0.1-0.2,0.1-0.3,0-0.5c0-0.2-0.1-0.4-0.2-0.6   c-0.1-0.2-0.2-0.3-0.4-0.4c-0.1-0.1-0.3-0.2-0.5-0.3c-0.1,0-0.3,0-0.4-0.1c-0.3,0-0.5,0.1-0.8,0.2c-0.1,0.1-0.2,0.2-0.3,0.2   c0,0.4-0.1,0.6-0.2,0.8c0,0.1,0,0.1,0,0.2c0,0.2-0.1,0.4-0.1,0.6c0,0.1,0,0.1,0,0.2c0,0.2,0,0.4,0.1,0.6   C45.6,35.6,45.6,35.6,45.7,35.7z"></path><path d="M45.2,41.9c0.4-0.3,0.8-0.5,1.3-0.7c0.2-0.1,0.5-0.2,0.7-0.3c0.1,0,0.2-0.1,0.4-0.1c0.5-0.2,0.9-0.3,1.4-0.4   c0.2-0.1,0.4-0.1,0.7-0.1c0.1,0,0.3,0,0.4-0.1c0.1,0,0.1,0,0.1,0c0.4,0,0.8-0.1,1.1-0.4s0.5-0.7,0.4-1.1c0-0.7-0.7-1.6-1.5-1.5   c-2.3,0.3-4.4,1-6.4,2.3c-0.7,0.4-1,1.3-0.5,2.1C43.6,42,44.5,42.4,45.2,41.9z"></path><path d="M68.7,44.3c-0.2,0.3-0.3,0.8-0.2,1.2c0.4,0.5,0.6,0.8,0.9,1c0.1,0.1,0.3,0.1,0.4,0.2h-0.1c0.2,0.2,0.4,0.4,0.6,0.6   c0,0.1,0.1,0.1,0.1,0.2c0,0.1,0.1,0.3,0.1,0.4c0,0,0-0.1-0.1-0.1c0,0.1,0,0.2,0,0.3c0,0.4,0.2,0.8,0.4,1.1c0.3,0.3,0.7,0.5,1.1,0.4   c0.4,0,0.8-0.1,1.1-0.4s0.5-0.7,0.4-1.1c0-0.9-0.3-1.8-0.8-2.5c-0.5-0.7-1.1-1.4-1.9-1.8c-0.3-0.2-0.6-0.3-1.1-0.2   C69.3,43.7,68.9,44,68.7,44.3z M70.6,47.8c-0.1-0.1-0.1-0.1-0.1-0.2C70.5,47.7,70.6,47.7,70.6,47.8z M70.3,47.3   c-0.1-0.1-0.2-0.2-0.2-0.3C70.2,47.1,70.2,47.2,70.3,47.3z"></path><path d="M79.8,45.4c-0.6,0-1.1,0.3-1.3,0.7C78.4,46,78.4,46,78.3,46c-0.3-0.2-0.7-0.4-1-0.7c-0.2-0.1-0.4-0.2-0.6-0.2s-0.4,0-0.6,0   c-0.2,0-0.4,0.1-0.5,0.3c-0.2,0.1-0.3,0.2-0.4,0.4c-0.1,0.1-0.1,0.2-0.2,0.4c-0.1,0.3-0.1,0.5,0,0.8c0.1,0.1,0.1,0.2,0.2,0.4   c0.1,0.1,0.3,0.3,0.5,0.5c0.3,0.2,0.7,0.4,1,0.7c0.2,0.1,0.4,0.2,0.6,0.2c0.2,0,0.4,0,0.6,0c0.2,0,0.4-0.1,0.5-0.3   c0.2-0.1,0.3-0.2,0.4-0.4c0.2,0.2,0.6,0.3,1,0.3C81.7,48.4,81.7,45.4,79.8,45.4z"></path><path d="M89.8,46.7c0.8-0.2,1.3-1.1,1-1.8c-0.3-0.8-1-1.3-1.8-1c-0.5,0.1-1,0.3-1.5,0.4c-0.3,0.1-0.5,0.1-0.8,0.1h-0.1   c-0.1,0-0.2,0-0.4,0s-0.5,0-0.7,0c0,0,0,0-0.1,0c-0.1,0-0.3-0.1-0.4-0.1s-0.2-0.1-0.3-0.1c-0.1,0-0.1-0.1-0.2-0.1s-0.3-0.2-0.1-0.1   l-0.1-0.1c-0.1-0.1-0.1-0.1-0.2-0.2c-0.1-0.1-0.1-0.1-0.2-0.2c0.2,0.2,0.1,0.2,0,0c-0.1-0.1-0.1-0.2-0.2-0.3c0,0,0-0.1-0.1-0.1   c0,0,0,0,0-0.1c0-0.1,0-0.1-0.1-0.2v-0.1c0,0,0-0.1,0-0.1v-0.1c0-0.1,0-0.1,0-0.1c0,0.1,0,0.1,0.1,0c0-0.1,0.1-0.1,0.1-0.2   c0.6-0.6,0.6-1.6,0-2.1c-0.5-0.5-1.5-0.5-2.1,0c-1.7,1.7-1.1,4.5,0.6,6C84.4,48,87.3,47.4,89.8,46.7z"></path><path d="M89.8,37.6c-0.4-0.2-0.7-0.3-1.2-0.2c-0.3,0.1-0.7,0.4-0.9,0.7c-0.2,0.3-0.3,0.8-0.2,1.2c0.6,0.3,0.8,0.7,1.1,0.8   c0.2,0.1,0.4,0.2,0.6,0.3c0.1,0.1,0.2,0.1,0.3,0.2l0.1,0.1c0.2,0.1,0.3,0.2,0.4,0.4c0.1,0.1,0.2,0.2,0.2,0.3   c0.1,0.1,0.3,0.5,0.1,0.1c0.1,0.2,0.3,0.4,0.4,0.6c0.1,0.1,0.1,0.2,0.2,0.3c0,0.1,0,0.1,0.1,0.1c0,0,0,0-0.1,0c0,0,0.1,0.3,0.1,0.4   c0,0.1,0.1,0.2,0.1,0.3c0.1,0.2,0.1,0.5,0.1,0.7c0-0.1,0-0.3-0.1-0.4c0,0.3,0,0.5,0,0.8c0,0.8,0.7,1.5,1.5,1.5   c0.8,0,1.5-0.7,1.5-1.5C94.1,41.5,92.4,38.7,89.8,37.6z"></path><path d="M98.9,52.8c0.7-0.2,1.3-1.1,1-1.8c-0.2-0.7-1-1.3-1.8-1c-0.2,0.1-0.5,0.1-0.7,0.2h-0.1c0,0,0,0-0.1,0s-0.1,0-0.1,0   c-0.1,0-0.1,0-0.2,0c-0.3,0-0.5,0-0.8,0c-0.1,0-0.3,0-0.4,0c-0.5-0.1-1-0.2-1.4-0.4h0.1c-0.1,0-0.1-0.1-0.2-0.1   c-0.1-0.1-0.2-0.1-0.3-0.2c-0.2-0.1-0.4-0.3-0.7-0.4c-0.4-0.3-1-0.3-1.5,0c-0.2-0.8-1-1.3-1.8-1c-0.5,0.1-0.9,0.3-1.4,0.4   c-0.2,0-0.5,0.1-0.7,0.1c-0.1,0-0.3,0.1-0.4,0.1c-1,0.1-2,0.1-2.9,0.1c-0.8,0-1.5,0.7-1.5,1.5c-0.1,0.7,0.5,1.3,1.4,1.4   c2.1,0.1,4.3-0.2,6.3-0.8c0.1,0,0.2-0.1,0.3-0.1c0.1,0.4,0.3,0.7,0.7,0.9C93.8,53.2,96.5,53.6,98.9,52.8z"></path><path d="M100,44.4c-0.4-0.2-0.8-0.4-1.2-0.4c-0.2-0.1-0.4-0.1-0.6,0c-0.2,0-0.4,0.1-0.6,0.2c-0.3,0.2-0.6,0.5-0.7,0.9   c-0.1,0.4-0.1,0.8,0.2,1.2c0.1,0,0.4,0.3,0.8,0.4c0.2,0,0.4,0.1,0.6,0.2l0.1,0.1h-0.1c0.1,0.1,0.3,0.2,0.4,0.4v-0.1   c0,0.1,0,0.1,0.1,0.1c0.1,0.2,0.2,0.3,0.3,0.6c-0.1-0.1-0.1-0.2-0.2-0.4c0.1,0.1,0.1,0.3,0.1,0.5c0.1,0.4,0.4,0.7,0.7,0.9   s0.8,0.3,1.2,0.2c0.4-0.1,0.7-0.3,0.9-0.7s0.2-0.7,0.2-1.2c-0.2-0.8-0.6-1.6-1.2-2.1C100.7,44.8,100.4,44.6,100,44.4z"></path><path d="M96.6,57.3c0.1,0,0.2,0,0.3,0c0.2,0,0.4,0,0.6-0.1c0.2-0.1,0.3-0.2,0.5-0.3c0.1-0.1,0.2-0.3,0.3-0.5   c0.1-0.2,0.1-0.4,0.1-0.6c0-0.1,0-0.3-0.1-0.4c-0.1-0.3-0.2-0.5-0.4-0.7c-0.1-0.1-0.2-0.2-0.3-0.2c-0.2-0.1-0.5-0.2-0.8-0.2   c-0.1,0-0.2,0-0.3,0c-0.2,0-0.4,0-0.6,0.1c-0.2,0.1-0.3,0.2-0.5,0.3c-0.1,0.1-0.2,0.3-0.3,0.5C95,55.4,95,55.6,95,55.8   c0,0.1,0,0.3,0.1,0.4c0.1,0.3,0.2,0.5,0.4,0.7c0.1,0.1,0.2,0.2,0.3,0.2C96.1,57.2,96.3,57.3,96.6,57.3z"></path><path d="M109.8,49.4c-0.1-0.1-0.3-0.2-0.5-0.3c-0.1,0-0.3,0-0.4-0.1c-0.3,0-0.5,0.1-0.8,0.2c-0.3,0.2-0.6,0.5-0.7,0.9   c0,0.1-0.1,0.3-0.1,0.4c-0.1-0.2-0.3-0.4-0.4-0.5c-0.1-0.2-0.2-0.3-0.4-0.4c-0.1-0.1-0.3-0.2-0.5-0.3c-0.2-0.1-0.4-0.1-0.6,0   c-0.2,0-0.4,0.1-0.6,0.2c-0.1,0.1-0.2,0.2-0.3,0.2c-0.2,0.2-0.3,0.4-0.4,0.7c0,0.1,0,0.3-0.1,0.4c0,0.3,0.1,0.6,0.2,0.8   c0.2,0.3,0.4,0.7,0.7,1c0.1,0.2,0.2,0.3,0.4,0.4c0.1,0.1,0.3,0.2,0.5,0.3c0.2,0.1,0.4,0.1,0.6,0c0.2,0,0.4-0.1,0.6-0.2   c0.1-0.1,0.2-0.2,0.3-0.2c0.1,0.2,0.2,0.3,0.4,0.4c0.1,0.1,0.3,0.2,0.5,0.3c0.1,0,0.3,0,0.4,0.1c0.3,0,0.5-0.1,0.8-0.2   c0.3-0.2,0.6-0.5,0.7-0.9c0.1-0.5,0.2-1.1,0.3-1.6c0.1-0.2,0.1-0.4,0-0.6c0-0.2-0.1-0.4-0.2-0.6C110.1,49.6,110,49.5,109.8,49.4z"></path><path d="M101.1,38c0,0.3,0,0.7,0,1c0,0.2,0,0.4,0.1,0.6c0.1,0.2,0.2,0.3,0.3,0.5c0.1,0.1,0.3,0.2,0.5,0.3c0.2,0.1,0.3,0.1,0.5,0.1   c-0.3,0.3-0.5,0.7-0.4,1.1c0,0.3,0,0.6-0.1,1c0,0,0,0,0.1-0.1c-0.1,0.7-0.3,1.4-0.5,2c-0.1,0.3,0,0.9,0.2,1.2   c0.2,0.3,0.5,0.6,0.9,0.7c0.4,0.1,0.8,0.1,1.2-0.2c0.1-0.1,0.2-0.2,0.3-0.2c0-0.2,0.1-0.4,0.2-0.7c0.5-1.2,0.7-2.5,0.7-3.7   c0-0.4-0.2-0.8-0.4-1.1c-0.3-0.3-0.7-0.5-1.1-0.4l0.1-0.1c0.1-0.1,0.2-0.2,0.2-0.3c0.1-0.2,0.2-0.5,0.2-0.8c0-0.3,0-0.7,0-1   c0-0.2,0-0.4-0.1-0.6c-0.1-0.2-0.2-0.3-0.3-0.5c-0.1-0.1-0.3-0.2-0.5-0.3c-0.2-0.1-0.4-0.1-0.6-0.1c-0.1,0-0.3,0-0.4,0.1   c-0.3,0.1-0.5,0.2-0.7,0.4c-0.1,0.1-0.2,0.2-0.2,0.3C101.1,37.4,101.1,37.7,101.1,38z"></path><path d="M102,42.6c0,0,0,0.1,0,0.1C102,42.7,102,42.6,102,42.6z"></path><path d="M102.7,28.4c0.1-0.1,0.2-0.1,0.3-0.2l0.2-0.1c0.1,0,0.1,0,0.2-0.1c0.1,0,0.2-0.1,0.3-0.1c0.2-0.1,0.4-0.1,0.6-0.2   c0.1,0,0.3-0.1,0.4-0.1h0.1h0.1h0.1c0.1,0,0.1,0,0.1,0c0.1,0,0.2,0,0.3,0c0.2,0,0.4,0,0.7,0c0.1,0,0.3,0,0.5,0c0.1,0,0.1,0,0.2,0   s0.3,0,0.4,0.1c0.8,0.2,1.7-0.2,1.8-1c0.2-0.8-0.2-1.7-1-1.8c-2.3-0.5-4.7-0.2-6.8,0.9c-0.7,0.4-1,1.4-0.5,2.1   C101.1,28.6,101.9,28.8,102.7,28.4z"></path><path d="M103.3,28.1L103.3,28.1C103.1,28.2,103.1,28.2,103.3,28.1z"></path><path d="M111,32.7c0.6,0.4,1.4,0.6,2.1,0.5c1.5-0.1,2.9-1,3.6-2.4c0.6-1.3,0.5-2.8-0.2-4.1c-0.8-1.4-2.2-2.3-3.8-2.4   c-0.8,0-1.5,0.7-1.5,1.5c0,0.3,0.1,0.5,0.2,0.7c-0.3,0.2-0.6,0.4-0.9,0.6c-1.1,0.9-1.3,2.5-0.9,3.8C109.9,31.7,110.4,32.3,111,32.7   z M112.3,29.2l0.1-0.1c0.3-0.2,0.4-0.7,0.4-1.1c0-0.2-0.1-0.5-0.2-0.7c0.1,0,0.1,0,0.2,0.1h0.1c0.2,0,0.3,0.1,0-0.1   c0.1,0.1,0.2,0.1,0.3,0.1c0.1,0,0.2,0.1,0.3,0.2c0.1,0.1,0.1,0.1,0.2,0.2c0.1,0.2,0.2,0.3,0.2,0.4c0,0,0,0,0.1,0   c0,0.1,0.1,0.2,0.1,0.3s0,0.2,0.1,0.3c-0.1-0.5,0-0.2,0,0v0.1c-0.1,0.2,0,0.3,0,0.3c0,0.1-0.1,0.1-0.1,0.2c0,0.1-0.1,0.2-0.2,0.3   c0,0,0,0-0.1,0.1l-0.1,0.1l-0.1,0.1c-0.1,0.1-0.2,0.1-0.3,0.1c-0.1,0-0.2,0-0.3,0.1h-0.1c-0.1,0-0.1,0-0.1,0s0,0-0.1-0.1   c0,0,0,0-0.1,0c0,0,0,0,0-0.1c0,0,0-0.1-0.1-0.1l-0.1-0.1c0-0.1-0.1-0.2-0.1-0.2v-0.1v-0.1C112.3,29.4,112.3,29.4,112.3,29.2   L112.3,29.2C112.3,29.3,112.3,29.3,112.3,29.2C112.3,29.3,112.3,29.3,112.3,29.2L112.3,29.2z"></path><path d="M114,28.3C114,28.3,114,28.2,114,28.3C113.9,28.2,113.9,28.2,114,28.3C113.9,28.2,114,28.3,114,28.3z"></path><path d="M113.4,30l-0.1,0.1C113.3,30.1,113.4,30.1,113.4,30z"></path><path d="M112.4,29.2C112.4,29.1,112.3,29.2,112.4,29.2L112.4,29.2C112.4,29.2,112.4,29.2,112.4,29.2z"></path><path d="M112.7,30.1c0-0.1,0-0.1-0.1-0.2C112.6,29.9,112.6,30,112.7,30.1z"></path><path d="M105.8,30.3c0.1-0.4,0.1-0.8-0.2-1.2c-0.2-0.3-0.5-0.6-0.9-0.7c-0.1,0-0.3,0-0.4-0.1c-0.3,0.1-0.5,0.2-0.8,0.3   c-0.7,0.3-1.3,0.9-1.6,1.5c-0.4,0.7-0.6,1.5-0.5,2.2c0.1,0.9,0.4,1.7,1.1,2.3c0.5,0.5,1.3,0.9,2,1c0.9,0.1,1.9,0.1,2.8-0.5   c0.3-0.2,0.6-0.5,0.7-0.9c0.1-0.4,0.1-0.8-0.2-1.2c-0.4-0.6-1.4-1-2.1-0.5c-0.1,0.1-0.2,0.1-0.3,0.2c0,0,0,0,0-0.1   c0.1,0,0.1,0,0.2-0.1c-0.1,0-0.2,0.1-0.3,0.1c-0.2,0-0.3,0-0.5,0c0.1,0,0.2,0,0.3,0.1c-0.1,0-0.3-0.1-0.4-0.1   c-0.1-0.1-0.1-0.1-0.2-0.2v0v0.1c0,0,0,0-0.1-0.1c0-0.1,0-0.2,0-0.3c0-0.1,0.1-0.1,0.1-0.2c0.1-0.3,0.1-0.3,0.2-0.5   c0,0,0.1-0.1,0.2-0.1c0.1,0,0.1-0.1,0.2-0.1C105.4,31.1,105.7,30.6,105.8,30.3z M104.3,32.3L104.3,32.3c0-0.1,0-0.2,0.1-0.3   C104.4,32.1,104.4,32.2,104.3,32.3z"></path><path d="M99.8,35.1c-0.1-0.2-0.2-0.3-0.4-0.4c-0.1-0.1-0.2-0.1-0.4-0.2c-0.3-0.1-0.5-0.1-0.8,0c-0.1,0.1-0.2,0.1-0.4,0.2   c-0.2,0.1-0.4,0.3-0.5,0.5c-0.2,0.4-0.4,0.9-0.7,1.3c-0.1,0.2-0.2,0.4-0.2,0.6c0,0.2,0,0.4,0,0.6c0,0.2,0.1,0.4,0.3,0.5   c0.1,0.2,0.2,0.3,0.4,0.4c0.1,0.1,0.2,0.1,0.4,0.2c0.3,0.1,0.5,0.1,0.8,0c0.1-0.1,0.2-0.1,0.4-0.2c0.2-0.1,0.4-0.3,0.5-0.5   c0.2-0.4,0.4-0.9,0.7-1.3c0.1-0.2,0.2-0.4,0.2-0.6c0-0.2,0-0.4,0-0.6C100.1,35.4,100,35.2,99.8,35.1z"></path><path d="M82.5,24c0.1,0.2,0.2,0.3,0.4,0.4c0.1,0.1,0.2,0.1,0.4,0.2c0.3,0.1,0.5,0.1,0.8,0c0.1-0.1,0.2-0.1,0.4-0.2   c0.2-0.1,0.4-0.3,0.5-0.5c0.3-0.4,0.7-0.9,1-1.3c0.1-0.2,0.2-0.4,0.2-0.6s0-0.4,0-0.6c0-0.2-0.1-0.4-0.3-0.5   c-0.1-0.2-0.2-0.3-0.4-0.4c-0.1-0.1-0.2-0.1-0.4-0.2c-0.3-0.1-0.5-0.1-0.8,0c-0.1,0.1-0.2,0.1-0.4,0.2c-0.2,0.1-0.3,0.3-0.5,0.5   c-0.3,0.4-0.7,0.9-1,1.3c-0.1,0.2-0.2,0.4-0.2,0.6c0,0.2,0,0.4,0,0.6S82.3,23.9,82.5,24z"></path><path d="M118.3,25.1c0.1,0.3,0.2,0.5,0.4,0.7c0.4,0.5,0.9,1.1,1.3,1.6c0.1,0.1,0.3,0.2,0.5,0.3c0.2,0.1,0.4,0.1,0.6,0.1   c0.2,0,0.4,0,0.6-0.1c0.2-0.1,0.3-0.2,0.5-0.3c0.3-0.3,0.5-0.7,0.4-1.1c0-0.1,0-0.3-0.1-0.4c-0.1-0.3-0.2-0.5-0.4-0.7   c-0.4-0.5-0.9-1.1-1.3-1.6c-0.1-0.1-0.3-0.2-0.5-0.3c-0.2-0.1-0.4-0.1-0.6-0.1s-0.4,0-0.6,0.1c-0.2,0.1-0.3,0.2-0.5,0.3   c-0.3,0.3-0.5,0.7-0.4,1.1C118.2,24.8,118.2,25,118.3,25.1z"></path><path d="M70.1,27.5c0.1,0.2,0.2,0.3,0.4,0.4c0.1,0.1,0.3,0.2,0.5,0.3c0.1,0,0.3,0,0.4,0.1c0.3,0,0.5-0.1,0.8-0.2   c0.1-0.1,0.2-0.2,0.3-0.2c0.2-0.2,0.3-0.4,0.4-0.7c0,0,0,0-0.1,0c0,0.1-0.1,0.1-0.1,0.1l0.1-0.1c0,0,0,0,0-0.1c0,0,0,0,0.1,0   c0.2,0,0.3-0.1,0.3-0.3c0.2-0.1,0.3-0.2,0.4-0.4c0.1-0.2,0.2-0.4,0.2-0.6s0-0.4,0-0.6c-0.1-0.1-0.1-0.2-0.2-0.4   c-0.1-0.2-0.3-0.4-0.5-0.5c-0.1-0.1-0.2-0.1-0.4-0.2c-0.5,0-0.8,0-1,0.1c-0.1,0-0.1,0-0.2,0.1c-0.2,0.1-0.4,0.1-0.5,0.2   c-0.2,0.1-0.3,0.2-0.4,0.3c-0.1,0-0.1,0.1-0.1,0.1c-0.1,0.1-0.2,0.3-0.3,0.4c0,0.1-0.1,0.1-0.1,0.2c-0.1,0.2-0.2,0.3-0.2,0.5   c0,0.1,0,0.1-0.1,0.2c-0.1,0.2-0.1,0.4,0,0.6C69.9,27.1,70,27.3,70.1,27.5z"></path><path d="M124.7,32.7C124.6,32.6,124.6,32.7,124.7,32.7L124.7,32.7z"></path><path d="M126.9,33C126.9,33,126.9,33,126.9,33C126.9,32.9,126.8,33.1,126.9,33z"></path><path d="M121.9,34.5c0.6,1.1,1.7,1.9,2.9,2.1c1.4,0.3,2.7-0.1,3.8-1c1-0.9,1.7-2.4,1.5-3.7c-0.1-0.4-0.1-0.8-0.4-1.1   s-0.7-0.5-1.1-0.4c-0.4,0-0.8,0.1-1.1,0.4s-0.5,0.7-0.4,1.1c0,0.2,0,0.3,0,0.4c0,0.1-0.1,0.2-0.1,0.3v0.1c0-0.1,0.1-0.2,0.1-0.1   c0,0.1-0.1,0.2-0.1,0.2v0.1c0,0.1-0.1,0.1-0.1,0.1c-0.1,0.1-0.1,0.1-0.2,0.2c-0.2,0.1-0.3,0.2-0.5,0.3c-0.1,0-0.2,0-0.3,0.1   c0.3-0.1,0.3,0,0.2,0c-0.1,0-0.1,0-0.2,0c-0.1,0-0.1,0-0.2,0s-0.2,0-0.3-0.1c0,0-0.1,0-0.2,0c0,0,0,0,0-0.1c-0.1,0-0.2-0.1-0.2-0.1   l-0.1-0.1c0,0,0.3,0.2,0.2,0.1c-0.1-0.1-0.3-0.3-0.4-0.4c0-0.1-0.1-0.1-0.1-0.2c0-0.1,0-0.1,0-0.1c0-0.1-0.1-0.2-0.1-0.2   c0-0.1,0-0.1,0-0.2v-0.1V32c0-0.1,0-0.1,0.1-0.2c0,0,0,0,0-0.1v0c0,0,0,0,0-0.1c0,0,0,0.1,0,0.1c0,0,0,0,0-0.1   c0-0.1,0.1-0.2,0.2-0.3c0,0,0,0,0.1-0.1c0-0.1,0.1-0.1,0.1-0.1l0.3-0.2c0,0,0.1,0,0.1-0.1c0.2-0.1-0.3,0.1-0.1,0   c0.4-0.1,0.7-0.3,0.9-0.7c0.2-0.3,0.3-0.8,0.2-1.2c-0.5-0.4-1.3-1.1-2.1-0.8c-1.3,0.5-2.2,1.4-2.7,2.7   C121.2,32.1,121.3,33.4,121.9,34.5z M125.1,31L125.1,31C125.1,31,125.1,31,125.1,31z"></path><path d="M124.6,31.6C124.6,31.6,124.6,31.6,124.6,31.6L124.6,31.6z"></path><path d="M124.8,31.4c-0.1,0.2,0.2-0.2,0.1-0.1C124.8,31.4,124.8,31.4,124.8,31.4z"></path><path d="M117.9,36.6c0.1,0.2,0.2,0.3,0.4,0.4c0.1,0.1,0.2,0.1,0.4,0.2c0.3,0.1,0.5,0.1,0.8,0c0.1-0.1,0.2-0.1,0.4-0.2   s0.4-0.3,0.5-0.5c0.1-0.2,0.2-0.4,0.3-0.7c0.1-0.2,0.2-0.4,0.2-0.6s0-0.4,0-0.6c0-0.2-0.1-0.4-0.3-0.5c-0.1-0.2-0.2-0.3-0.4-0.4   c-0.1-0.1-0.2-0.1-0.4-0.2c-0.3-0.1-0.5-0.1-0.8,0c-0.1,0.1-0.2,0.1-0.4,0.2c-0.2,0.1-0.4,0.3-0.5,0.5c-0.1,0.2-0.2,0.4-0.3,0.7   c-0.1,0.2-0.2,0.4-0.2,0.6s0,0.4,0,0.6C117.6,36.3,117.7,36.5,117.9,36.6z"></path><path d="M109.7,39.7c0.3,0.3,0.7,0.5,1.1,0.4c0.1,0,0.3,0,0.4-0.1c0.3-0.1,0.5-0.2,0.7-0.4c0.7-0.5,1.3-1.1,2-1.6   c0.1-0.1,0.2-0.3,0.3-0.5c0.1-0.2,0.1-0.4,0.1-0.6c0-0.2,0-0.4-0.1-0.6c-0.1-0.2-0.2-0.3-0.3-0.5c-0.3-0.3-0.7-0.5-1.1-0.4   c-0.1,0-0.3,0-0.4,0.1c-0.3,0.1-0.5,0.2-0.7,0.4c-0.7,0.5-1.3,1.1-2,1.6c-0.1,0.1-0.2,0.3-0.3,0.5c-0.1,0.2-0.1,0.4-0.1,0.6   c0,0.2,0,0.4,0.1,0.6C109.5,39.4,109.6,39.5,109.7,39.7z"></path><path d="M109,44.1c-0.2-0.1-0.4-0.2-0.6-0.2c-0.2,0-0.4,0-0.6,0c-0.3,0.1-0.7,0.4-0.9,0.7c-0.2,0.3-0.3,0.8-0.2,1.2   c0,0.1,0.1,0.2,0.2,0.3c-0.1,0-0.2,0.1-0.4,0.2c-0.3,0.2-0.6,0.5-0.7,0.9c-0.1,0.4-0.1,0.8,0.2,1.2c0.2,0.3,0.5,0.6,0.9,0.7   c0.5,0.1,0.8,0.1,1.2,0c0.3,0,0.5-0.2,0.8-0.3c0.2-0.1,0.5-0.3,0.7-0.5c0.3-0.3,0.4-0.6,0.6-1c0.1-0.3,0.1-0.6,0.1-0.8   c0-0.3,0-0.6-0.1-0.8C110,45,109.6,44.5,109,44.1z M107.7,46.1c-0.1,0-0.1,0-0.2,0C107.6,46.1,107.6,46,107.7,46.1   C107.7,46,107.8,46.1,107.7,46.1z"></path><path d="M93.6,41.4c0.1,0.2,0.2,0.3,0.4,0.4c0.1,0.1,0.3,0.2,0.5,0.3c0.2,0.1,0.4,0.1,0.6,0c0.2,0,0.4-0.1,0.6-0.2   c0.1-0.1,0.2-0.2,0.3-0.2c0.2-0.2,0.3-0.4,0.4-0.7c0-0.1,0-0.3,0.1-0.4c0-0.3-0.1-0.5-0.2-0.8c-0.1-0.2-0.2-0.4-0.3-0.7   c-0.1-0.2-0.2-0.3-0.4-0.4c-0.1-0.1-0.3-0.2-0.5-0.3c-0.2-0.1-0.4-0.1-0.6,0c-0.2,0-0.4,0.1-0.6,0.2c-0.1,0.1-0.2,0.2-0.3,0.2   c-0.2,0.2-0.3,0.4-0.4,0.7c0,0.1,0,0.3-0.1,0.4c0,0.3,0.1,0.6,0.2,0.8C93.4,40.9,93.5,41.1,93.6,41.4z"></path><path d="M106.2,63.4c0,0.1,0,0.1,0.1,0.2C106.3,63.5,106.2,63.4,106.2,63.4z"></path><path d="M114.5,57.5c0.7,0.1,1.2,0,1.9-0.3c0.3-0.1,0.6-0.6,0.7-0.9c0.1-0.4,0.1-0.8-0.2-1.2c-0.2-0.3-0.5-0.6-0.9-0.7   c-0.3-0.1-0.7,0-1,0.1l-0.1-0.1c0,0-0.1-0.1-0.2-0.1c-0.1-0.1,0.2,0.3,0,0.1l-0.1-0.1c0,0,0,0-0.1-0.1c-0.1-0.3,0,0,0,0V54   c0,0,0,0,0-0.1c-0.1,0.2,0-0.1,0-0.1c0-0.2,0.1-0.3,0.1-0.5c0-0.1,0.1-0.1,0.1-0.2c0.1-0.3,0.3-0.6,0.5-0.9c0.4-0.7,0.8-1.4,1-2.2   s-0.3-1.7-1-1.8c-0.4-0.3-1.2,0.1-1.5,0.9c0,0.1-0.1,0.2-0.1,0.3c0,0.1-0.1,0.4,0,0.1c0,0.2-0.2,0.4-0.3,0.6   c-0.2,0.4-0.4,0.8-0.6,1.1c-0.5,0.9-0.9,2-0.8,3c0,0.1,0,0.1,0,0.2c-0.2,0.2-0.4,0.3-0.6,0.5l0.1-0.1c-0.1,0.1-0.2,0.1-0.3,0.2   c-0.5,0.3-0.9,0.6-1.4,0.8c-0.1,0-0.2,0.1-0.2,0.1c0,0,0,0,0.1,0c-0.1,0-0.1,0.1-0.2,0.1c0,0,0,0,0-0.1c-0.1,0-0.2,0.1-0.3,0.1   c-0.4,0.1-0.7,0.3-0.9,0.7c-0.2,0.2-0.3,0.6-0.2,1c-0.8-0.1-1.6,0.3-1.7,1c-0.1,0.6-0.1,1.2,0,1.8c-0.3-0.2-0.6-0.4-1-0.3   c-0.6,0.1-0.9,0.2-1.2,0.5c-0.2,0.2-0.5,0.5-0.6,0.8c-0.2,0.3-0.3,0.6-0.4,1c-0.1,0.3-0.1,0.7-0.1,1c0,0.2,0,0.5,0.1,0.7   c0.1,0.2,0.2,0.4,0.3,0.7c0.1,0.2,0.2,0.3,0.4,0.4c0.1,0.1,0.3,0.2,0.5,0.3c0.2,0.1,0.4,0.1,0.6,0c0.2,0,0.4-0.1,0.6-0.2   c0.3-0.2,0.6-0.5,0.7-0.9c0-0.1,0-0.3,0.1-0.4c0-0.3-0.1-0.5-0.2-0.8c0,0,0,0,0-0.1c0.1,0.1,0.1,0.1,0.1,0.2c0,0,0-0.1,0-0.1   c0,0,0,0,0-0.1c0-0.1,0-0.2,0.1-0.3c0,0,0-0.1,0.1-0.1c0.3-0.3,0.4-0.6,0.4-0.9c0.4,0.7,1,1.3,1.7,1.7c1.7,0.9,3.9,0.6,5.3-0.8   c0.5-0.6,0.6-1.6,0-2.1c-0.6-0.5-1.5-0.6-2.1,0c-0.1,0.1-0.1,0.1-0.2,0.2c-0.1,0.1-0.2,0.1-0.3,0.2c-0.1,0-0.1,0.1-0.2,0.1   c-0.2,0-0.4,0-0.7,0c0.1,0,0.3,0,0.4,0.1c-0.2,0-0.3,0-0.4-0.1c-0.1-0.1-0.2-0.1-0.4-0.2c0,0,0-0.1-0.1-0.1c-0.1-0.1-0.2-0.4,0,0   c0-0.1-0.1-0.1-0.1-0.2c-0.1-0.1-0.1-0.2-0.2-0.3c0-0.1-0.1-0.1-0.1-0.2c0-0.2,0-0.4,0-0.7c0,0.1,0,0.3-0.1,0.4c0-0.1,0-0.1,0-0.2   c0.1-0.2,0.1-0.4,0-0.7c0.4-0.1,0.5-0.1,0.6-0.1c1.3-0.5,2.5-1.1,3.5-1.9C113.7,57.2,114.1,57.4,114.5,57.5z M114.6,54.4   C114.6,54.4,114.7,54.5,114.6,54.4L114.6,54.4z M111.3,61.1c-0.1,0-0.1,0.1-0.2,0.1C111.2,61.1,111.2,61.1,111.3,61.1z"></path><path d="M109.5,60.1c0,0.1,0.1,0.1,0.1,0.2C109.6,60.2,109.6,60.2,109.5,60.1z"></path><path d="M111.7,45.9c0.2,0.1,0.5,0.2,0.8,0.2c0.4,0,0.9,0,1.3,0c0.2,0,0.4,0,0.6-0.1c0.2-0.1,0.3-0.2,0.5-0.3   c0.1-0.1,0.2-0.3,0.3-0.5c0.1-0.2,0.1-0.4,0.1-0.6c0-0.1,0-0.3-0.1-0.4c-0.1-0.3-0.2-0.5-0.4-0.7c-0.1-0.1-0.2-0.2-0.3-0.2   c-0.2-0.1-0.5-0.2-0.8-0.2c-0.4,0-0.9,0-1.3,0c-0.2,0-0.4,0-0.6,0.1c-0.2,0.1-0.3,0.2-0.5,0.3c-0.1,0.1-0.2,0.3-0.3,0.5   c-0.1,0.2-0.1,0.4-0.1,0.6c0,0.1,0,0.3,0.1,0.4c0.1,0.3,0.2,0.5,0.4,0.7C111.5,45.8,111.6,45.9,111.7,45.9z"></path><path d="M118.5,44c0.1,0.2,0.2,0.3,0.4,0.4c0.1,0.1,0.3,0.2,0.5,0.3c0.2,0.1,0.4,0.1,0.6,0c0.2,0,0.4-0.1,0.6-0.2   c0.3-0.2,0.6-0.5,0.7-0.9c0-0.1,0-0.3,0.1-0.4c0-0.3-0.1-0.5-0.2-0.8c-0.3-0.7-0.6-1.3-1-2c-0.1-0.2-0.2-0.3-0.4-0.4   c-0.1-0.1-0.3-0.2-0.5-0.3c-0.2-0.1-0.4-0.1-0.6,0c-0.2,0-0.4,0.1-0.6,0.2c-0.3,0.2-0.6,0.5-0.7,0.9c0,0.1,0,0.3-0.1,0.4   c0,0.3,0.1,0.6,0.2,0.8C117.8,42.7,118.1,43.3,118.5,44z"></path><path d="M123,55.6c-1.9,0-1.9,3,0,3S124.9,55.6,123,55.6z"></path><path d="M142.9,73.8C143.2,73.6,142.9,73.7,142.9,73.8L142.9,73.8z"></path><path d="M140.3,74.4c-0.4,0.8-0.2,1.7,0.5,2.1c2.2,1.3,5-0.5,5.4-2.8c0.3-1.3-0.1-2.6-0.7-3.7c-0.3-0.6-0.7-1.1-1.1-1.5   c-0.3-0.4-0.6-0.8-1-1.1c-0.6-0.5-1.2-0.8-1.9-0.9c-0.9-0.1-1.8,0.3-2.2,1.1c-0.1,0.2-0.2,0.4-0.2,0.7c-0.1-0.1-0.2-0.2-0.3-0.3   c-0.3-0.2-0.8-0.3-1.2-0.2c-0.4,0.1-0.7,0.3-0.9,0.7c-0.1,0.1-0.1,0.2-0.2,0.4c-0.1,0.2-0.1,0.4,0,0.6c0,0,0,0-0.1-0.1   c0,0.1,0,0.2,0,0.4c0-0.1,0-0.1,0.1-0.2c0,0,0,0.1,0,0.1c-0.1,0-0.1,0.1-0.1,0.1s0,0.1-0.1,0.1c0,0.1-0.1,0.1-0.1,0.2   c0,0,0,0,0.1,0c-0.1,0-0.1,0.1-0.1,0.1h-0.1l-0.1-0.1v0.1c0-0.1-0.1-0.1-0.1-0.2v-0.1c0,0,0-0.1,0-0.1c0-0.1,0.1-0.2,0.1-0.2   c0.1-0.4,0-0.8-0.2-1.2c-0.2-0.3-0.5-0.6-0.9-0.7c-0.9,0-1.6,0.4-1.9,1.2c-0.2,0.7-0.2,1.5,0,2.2c0.3,0.8,0.8,1.5,1.6,2   c1.4,0.9,3.5,0.5,4.5-0.8c0.3-0.4,0.6-0.9,0.8-1.4c0.1-0.4,0.1-0.8,0.1-1.2c0.1,0.1,0.2,0.2,0.3,0.3c0.5,0.3,1.2,0.3,1.7-0.1   c0.2,0.2,0.4,0.4,0.4,0.4c0.2,0.2,0.3,0.4,0.5,0.6L143,71c0.1,0.1,0.1,0.2,0.2,0.3c0.1,0.2,0.3,0.4,0.4,0.7c0,0.1,0.1,0.1,0.1,0.2   c-0.1-0.2-0.1-0.2,0-0.1c0,0.1,0.1,0.2,0.1,0.4c0,0.1,0,0.2,0.1,0.3c0,0.1,0,0.1,0,0.1V73v0.1c0,0,0,0-0.1,0.1v0.1   c0,0.1-0.2,0.2-0.2,0.3c0.1-0.2,0.2-0.2,0.1-0.1l-0.1,0.1l-0.3,0.2c-0.1,0.1-0.2,0.1-0.3,0.1c-0.2,0-0.3,0-0.4,0c0,0,0,0,0,0   c0,0,0,0,0,0c0,0,0,0,0,0c0.1,0,0.1,0.1,0.1,0.1c-0.1,0-0.1,0-0.1-0.1c-0.1-0.1-0.1,0-0.1,0C141.7,73.5,140.7,73.7,140.3,74.4z"></path><path d="M152,74.8c0-0.1-0.1-0.2-0.2-0.3C151.9,74.6,151.9,74.7,152,74.8z"></path><path d="M147.2,70.5c0.3,0.3,0.7,0.5,1.1,0.7c0.2,0.1,0.4,0.1,0.6,0c0.2,0,0.4-0.1,0.6-0.2s0.3-0.2,0.4-0.4   c0.1-0.1,0.2-0.3,0.3-0.5c0-0.1,0-0.3,0.1-0.4c0-0.3-0.1-0.5-0.2-0.8c-0.1-0.1-0.2-0.2-0.2-0.3l-0.1-0.1c0-0.1,0-0.1,0-0.2   c0-0.2,0-0.4,0-0.6c0-0.2-0.1-0.4-0.3-0.5c-0.1-0.2-0.2-0.3-0.4-0.4c-0.3-0.2-0.8-0.3-1.2-0.2c-0.5,0.1-0.8,0.4-1,0.7   c-0.2,0.4-0.3,0.8-0.4,1.2c0,0.1,0,0.2,0,0.3c0,0.2,0,0.4,0.1,0.6C146.7,69.8,146.9,70.1,147.2,70.5z"></path><path d="M159.2,71.4c-0.1-0.2-0.2-0.3-0.3-0.5c-0.3-0.3-0.7-0.5-1.1-0.4c-0.4,0-0.8,0.1-1.1,0.4c-0.2,0.3-0.5,0.7-0.4,1.1   c0.1,0.9,0.2,1.8,0.3,2.6c0,0.2,0,0.4,0.1,0.6c0.1,0.2,0.2,0.3,0.3,0.5c0.3,0.3,0.7,0.5,1.1,0.4c0.4,0,0.8-0.1,1.1-0.4   c0.2-0.3,0.5-0.7,0.4-1.1c-0.1-0.9-0.2-1.8-0.3-2.6C159.3,71.8,159.3,71.6,159.2,71.4z"></path><path d="M162.4,59.3c-0.3-0.1-0.5-0.1-0.8,0c-0.1,0.1-0.2,0.1-0.4,0.2s-0.4,0.3-0.5,0.5c-0.2,0.4-0.4,0.9-0.7,1.3   c-0.1,0.2-0.2,0.4-0.2,0.6c0,0.2,0,0.4,0,0.6s0.1,0.4,0.3,0.5c0.1,0.2,0.2,0.3,0.4,0.4c0.1,0.1,0.2,0.1,0.4,0.2   c0.3,0.1,0.5,0.1,0.8,0c0.1-0.1,0.2-0.1,0.4-0.2c0.2-0.1,0.4-0.3,0.5-0.5c0.2-0.4,0.4-0.9,0.7-1.3c0.1-0.1,0.1-0.3,0.2-0.4   c0.1,0,0.2,0.1,0.2,0.1c0.4,0.1,0.8,0.1,1.2-0.2c0.3-0.2,0.6-0.5,0.7-0.9c0.1-0.6,0.2-1.3,0.1-1.9c-0.1-0.6-0.2-1.3-0.4-1.9   c-0.1-0.4-0.3-0.7-0.7-0.9c-0.3-0.2-0.8-0.3-1.2-0.2c-0.4,0.1-0.7,0.3-0.9,0.7c-0.3,0.3-0.4,0.8-0.2,1.2c0.1,0.3,0.1,0.5,0.2,0.8   C162.6,58.4,162.6,58.9,162.4,59.3C162.5,59.3,162.5,59.3,162.4,59.3z M162.6,59.2c0,0.1,0,0.1,0,0.2c0,0,0,0-0.1,0   C162.5,59.3,162.6,59.2,162.6,59.2z"></path><path d="M135.1,32.5c0-0.1,0-0.2,0.1-0.3c0-0.1,0-0.1-0.1-0.2C135.1,32.2,135.1,32.3,135.1,32.5z"></path><path d="M133.5,31.5c0.1,0.1,0.2,0.1,0.4,0.2c0.1-0.1,0.3-0.1,0.5-0.1c0,0,0,0,0,0c0,0,0,0,0.1,0c0,0,0.1,0,0.1,0s0.1,0,0.1,0h0.1   c0.1,0.1,0.2,0.2,0.3,0.2v-0.1c0,0-0.1-0.1-0.2-0.1h0.1c0.1,0,0.2,0.1,0.2,0.2l-0.1-0.1c0,0.1,0.1,0.1,0.1,0.2V32   c0,0.1,0.1,0.1,0.1,0.2c0,0-0.1-0.1-0.1-0.2c0,0,0,0.1,0,0.1c0,0,0,0,0,0c0,0,0,0.1,0,0.1c-0.1,0.4,0,0.8,0.2,1.2   c0.2,0.3,0.5,0.6,0.9,0.7c0.4,0.1,0.8,0.1,1.2-0.2c0.3-0.2,0.6-0.5,0.7-0.9c0.5-1.9-0.8-3.8-2.6-4.4c-0.6-0.2-1.1-0.2-1.7,0   c-0.4,0.1-0.7,0.4-0.9,0.7s-0.3,0.8-0.2,1.2C132.9,31,133.1,31.3,133.5,31.5z"></path><path d="M135.1,32c0,0,0,0-0.1-0.1L135.1,32z"></path><path d="M134.4,31.7c0.1,0,0.3,0,0.4,0c-0.1,0-0.2,0-0.3-0.1C134.5,31.6,134.4,31.6,134.4,31.7z"></path><path d="M142.8,38.4c0-0.1,0-0.1-0.1-0.2C142.7,38.2,142.7,38.3,142.8,38.4z"></path><path d="M143.7,38.8c0.1,0,0.1-0.1,0.2-0.1C143.8,38.7,143.8,38.7,143.7,38.8z"></path><path d="M141,41.2c1,0.8,2.5,1,3.7,0.5c-0.3,0.2-0.5,0.5-0.5,0.8c-0.1,0.7-0.1,1.5,0.1,2.2c0.3,0.7,0.6,1.3,1.2,1.8   c1.1,1,2.6,1.5,4,1.1c0.4-0.1,0.7-0.4,0.9-0.7c0.2-0.3,0.3-0.8,0.2-1.2c-0.3-0.8-1-1.3-1.8-1c-0.2,0-0.3,0-0.5,0   c0.1,0,0.2,0,0.3,0.1c-0.2,0-0.4-0.1-0.5-0.2H148c-0.2-0.2-0.4-0.4-0.6-0.6c0.1,0.1,0.2,0.2,0.2,0.3c-0.2-0.2-0.3-0.4-0.4-0.7   l0.1,0.1c0,0,0-0.1,0-0.2c0,0,0,0.1,0.1,0.1c0-0.2,0-0.4,0-0.7c0,0.1,0,0.3-0.1,0.4c0,0,0,0,0-0.1c0.1-0.4,0.1-0.8-0.2-1.2   c-0.2-0.3-0.5-0.6-0.9-0.7c-0.2-0.1-0.4-0.1-0.6,0c0.4-0.3,0.8-0.6,1.1-1c0.5-0.6,0.7-1.3,0.8-2.1c0.2-1.5-0.6-3.1-1.9-3.9   c-0.5-0.3-1.3-0.3-1.7,0.1c0-0.1-0.1-0.2-0.2-0.3c-0.4-0.5-1.3-0.7-2-0.3c-1.3,0.7-2.1,2.1-2.3,3.6c-0.1,0.6,0,1.3,0.2,1.8   C139.8,40.1,140.3,40.7,141,41.2z M143.2,38.8c0.1,0,0.3,0,0.4,0.1C143.5,38.9,143.3,38.9,143.2,38.8z M142.4,37   C142.4,37,142.4,36.9,142.4,37c0.2-0.2,0.3-0.3,0.4-0.4c0,0,0,0-0.1,0c0,0,0.1-0.1,0.2-0.1c0,0-0.1,0.1-0.1,0.1   c0.1,0,0.2-0.1,0.2-0.2c0,0-0.1,0-0.1,0c0.1,0,0.1-0.1,0.2-0.1c0.1,0,0.1-0.1,0.2-0.1c0.1,0.3,0.3,0.6,0.6,0.8   c0.1,0.1,0.2,0.1,0.3,0.2v-0.1c0,0.1,0.1,0.1,0.1,0.2c0,0,0,0,0,0.1c0,0.1,0,0.1,0.1,0.2c0,0.2,0,0.4,0,0.6c0-0.1,0-0.3,0.1-0.4   c0,0.1-0.1,0.3-0.1,0.5c0,0,0,0.1-0.1,0.1c0,0.1-0.1,0.1-0.1,0.2c0,0,0,0,0.1,0c-0.1,0-0.1,0.1-0.2,0.1c-0.1,0-0.1,0-0.2,0.1   c-0.1,0-0.1,0-0.2,0c-0.2,0-0.3,0-0.5,0c-0.1,0-0.1-0.1-0.2-0.1l-0.1-0.1h0.1c-0.1-0.1-0.2-0.1-0.2-0.2v0.1c0-0.1-0.1-0.1-0.1-0.2   c0,0,0,0,0-0.1c0,0,0,0,0-0.1c0,0,0-0.1,0-0.2c0,0,0,0.1,0.1,0.1c0-0.3,0-0.5,0-0.8c-0.4,0.2-0.4,0.4-0.5,0.5   C142.3,37.4,142.4,37.2,142.4,37C142.5,37,142.4,37,142.4,37z"></path><path d="M142.5,36.9C142.5,36.9,142.5,36.9,142.5,36.9C142.5,36.9,142.5,36.9,142.5,36.9z"></path><path d="M134.2,39.9c0.1,0.1,0.3,0.2,0.5,0.3s0.4,0.1,0.6,0c0.2,0,0.4-0.1,0.6-0.2c0.3-0.2,0.6-0.5,0.7-0.9c0-0.2,0.1-0.4,0.1-0.6   c0.2-0.1,0.3-0.2,0.5-0.3c0.1-0.1,0.2-0.3,0.3-0.5c0.1-0.2,0.1-0.4,0.1-0.6c0-0.4-0.1-0.8-0.4-1.1c-0.1-0.1-0.2-0.2-0.3-0.2   c-0.1-0.5-0.4-0.5-0.7-0.5c-1,0-1.9,0.6-2.4,1.4c-0.2,0.4-0.4,0.9-0.4,1.4s0.1,1,0.4,1.4C133.9,39.7,134,39.8,134.2,39.9z    M136.4,37.9c0-0.1-0.1-0.1-0.1-0.2C136.4,37.8,136.4,37.8,136.4,37.9z"></path><path d="M147.3,43.7c0,0.1,0,0.2,0.1,0.3C147.4,43.9,147.3,43.8,147.3,43.7z"></path><path d="M151.4,42.8c1.9,0,1.9-3,0-3C149.5,39.8,149.5,42.8,151.4,42.8z"></path><path d="M152.4,48.1c-0.1,0.1-0.1,0.1-0.2,0.2c-0.1,0.1-0.3,0.2,0.1,0c-0.2,0.1-0.4,0.3-0.7,0.4c-0.1,0-0.1,0.1-0.2,0.1   c0,0,0,0-0.1,0l-0.2,0.1c-0.8,0.2-1.3,1.1-1,1.8c0.1,0.3,0.2,0.5,0.4,0.7c-0.1,0.1-0.2,0.2-0.3,0.3c-0.1,0.1-0.1,0.2-0.2,0.4   c-0.1,0.3-0.1,0.5,0,0.8c0.1,0.4,0.2,0.9,0.3,1.3c0,0.2,0.1,0.4,0.3,0.5c0.1,0.2,0.2,0.3,0.4,0.4c0.2,0.1,0.4,0.2,0.6,0.2   c0.2,0,0.4,0,0.6,0c0.1-0.1,0.2-0.1,0.4-0.2c0.2-0.1,0.4-0.3,0.5-0.5c0.1-0.1,0.1-0.2,0.2-0.4c0.1-0.3,0.1-0.5,0-0.8   c-0.1-0.4-0.2-0.9-0.3-1.3c0-0.2-0.1-0.4-0.3-0.5c0-0.1-0.1-0.1-0.1-0.2c2.6-1.1,4.5-3.9,4.1-6.7c0-0.4-0.1-0.8-0.4-1.1   c-0.3-0.3-0.7-0.5-1.1-0.4c-0.8-0.1-1.6,0.6-1.5,1.4c0,0.3,0,0.6,0,0.9v0.1c0,0.1-0.1,0.3-0.1,0.4s-0.1,0.3-0.1,0.4   c0,0.1,0,0.1,0,0.1c0-0.1,0-0.1-0.1,0c-0.1,0.3-0.3,0.5-0.4,0.8c0,0.1-0.1,0.1-0.1,0.2c-0.1,0.1-0.1,0.2-0.2,0.3   C152.6,47.9,152.5,48,152.4,48.1z"></path><path d="M156.4,49.8c-0.4,0.2-0.7,0.4-1.1,0.7c-1.2,1-1.7,2.6-1.4,4.1c0.2,1.2,1.1,2.3,2.2,2.8c1.2,0.6,2.7,0.7,3.8,0   c1.1-0.7,1.7-1.9,1.7-3.1c0.1-1.3-0.6-2.7-1.8-3.3c-0.6-0.4-1.4-0.2-1.9,0.3c0-0.4-0.2-0.8-0.4-1.1   C157.2,49.9,156.8,49.7,156.4,49.8z M158.2,54.8c0,0-0.1,0.1-0.1,0.1c0,0,0,0-0.1,0C158.1,54.8,158.1,54.8,158.2,54.8L158.2,54.8   C158.2,54.8,158.2,54.8,158.2,54.8z M157.1,52.9L157.1,52.9c0.1-0.1,0.3-0.2,0.5-0.4c-0.1,0.4,0.2,0.9,0.6,1.1   c0.2,0.1,0.2,0.2,0.3,0.2c0,0,0,0,0,0.1c0,0.2,0,0.4,0,0.6c0-0.1,0-0.2,0.1-0.3c0,0.1-0.1,0.2-0.1,0.3c-0.1,0.1-0.1,0.1-0.2,0.2   c-0.2,0-0.4,0-0.6,0c0.1,0,0.3,0,0.4,0.1h0l0,0h0c0,0,0,0,0,0c0,0,0,0-0.1,0c-0.2,0-0.4-0.1-0.5-0.1l-0.1-0.1h0.1   c-0.1-0.1-0.3-0.2-0.4-0.4v0.1c0,0,0-0.1-0.1-0.1c0-0.1-0.1-0.1-0.1-0.2l0.1,0.1c0-0.1-0.1-0.2-0.1-0.3c0-0.2,0-0.4,0-0.6   c0-0.1,0.1-0.1,0.1-0.2L157.1,52.9z M156.9,53.2c0,0.1,0,0.3-0.1,0.4C156.8,53.5,156.8,53.3,156.9,53.2z"></path><path d="M166.2,64.5C166.2,64.5,166.2,64.5,166.2,64.5C166.2,64.5,166.2,64.5,166.2,64.5z"></path><path d="M164.1,62.4c-0.9,1.7-1.4,3.5-1.7,5.4c-0.1-0.1-0.1-0.1-0.2-0.2c-0.1-0.1-0.2-0.1-0.4-0.2c-0.3-0.1-0.5-0.1-0.8,0   c-0.1,0.1-0.2,0.1-0.4,0.2c-0.2,0.2-0.4,0.4-0.6,0.6c0,0,0,0.1-0.1,0.1c-0.1,0.2-0.1,0.3-0.2,0.5c0,0.2-0.1,0.4-0.1,0.5v0.1   c0,0,0,0,0,0.1s0,0.3,0.1,0.4V70c0,0,0,0,0,0.1c0.1,0.1,0.1,0.3,0.2,0.4c0,0,0,0.1,0.1,0.1c0.1,0.2,0.2,0.3,0.4,0.4   c0.1,0.1,0.3,0.2,0.5,0.3c0.2,0.1,0.4,0.1,0.6,0c0.2,0,0.4-0.1,0.6-0.2c0.1-0.1,0.2-0.2,0.3-0.2c0.2-0.2,0.3-0.4,0.4-0.7   c0-0.1,0-0.3,0.1-0.4c0-0.1,0-0.3-0.1-0.4c0-0.1,0-0.2,0-0.2c0.3,0.3,0.7,0.4,1,0.3c0.4,0,0.8-0.1,1.1-0.4c0.3-0.3,0.4-0.6,0.4-1.1   c0-0.1,0-0.2,0-0.3c0,0.1,0,0.3-0.1,0.4c0.2-1.2,0.5-2.4,1-3.5c0,0,0,0-0.1,0c0.1-0.3,0.2-0.5,0.4-0.7c0.4-0.7,0.2-1.7-0.5-2.1   C165.5,61.4,164.5,61.6,164.1,62.4z M162.8,69.5C162.7,69.5,162.7,69.6,162.8,69.5C162.7,69.6,162.7,69.5,162.8,69.5z M162.7,69   c0-0.1-0.1-0.1-0.1-0.2c0.1,0.1,0.1,0.2,0.2,0.4C162.8,69.1,162.7,69.1,162.7,69z"></path><path d="M165.9,71.4c0.1,0.3,0.2,0.6,0.2,0.8s0.1,0.3,0.1,0.5c0,0,0,0,0,0.1c-0.2-0.1-0.4-0.1-0.6-0.1c-0.4,0-0.8,0.1-1.1,0.4   c-1,1.2-2,2.4-2.9,3.7c-0.3,0.3-0.4,0.6-0.4,1.1c0,0.4,0.2,0.8,0.4,1.1c0.3,0.3,0.7,0.5,1.1,0.4c0.4,0.1,0.8-0.1,1.1-0.4   c0.8-0.9,1.5-1.8,2.2-2.8c-0.1,0.2-0.2,0.5-0.2,0.6s-0.1,0.3-0.2,0.4c0.1-0.3-0.1,0.1-0.1,0.2c-0.3,0.7-0.2,1.7,0.5,2.1   c0.2,0.1,0.3,0.1,0.5,0.2c-0.1,0.1-0.3,0.3-0.3,0.5c-0.1,0.4-0.1,0.8-0.1,1.2c0,0.3,0.1,0.5,0.1,0.8c0.1,0.2,0.2,0.5,0.3,0.7   c0.2,0.4,0.4,0.7,0.7,1c0.3,0.3,0.6,0.6,1,0.7c0.4,0.2,0.8,0.3,1.2,0.2c0.3-0.1,0.7-0.4,0.9-0.7s0.3-0.8,0.2-1.2   c-0.1-0.4-0.3-0.7-0.7-0.9c-0.1-0.1-0.2-0.1-0.2-0.2l0,0c0,0,0,0,0,0c0,0,0,0,0,0c0-0.1-0.1-0.1-0.1-0.2l0.1,0.1   c-0.1-0.1-0.1-0.3-0.2-0.4c0-0.1,0-0.1,0-0.2c0.1-0.4,0.1-0.8-0.2-1.2c-0.2-0.3-0.5-0.6-0.9-0.7c-0.1,0-0.2,0-0.2,0   c0-0.1,0.1-0.1,0.1-0.2c1.3-2.6,1.5-5.6,0.6-8.4c-0.2-0.7-1.1-1.3-1.8-1C166.2,69.8,165.6,70.6,165.9,71.4z"></path><path d="M165.2,88c0.1,0.1,0.3,0.2,0.5,0.3c0.2,0.1,0.4,0.1,0.6,0.1c0.1,0,0.3,0,0.4-0.1c0.3-0.1,0.5-0.2,0.7-0.4   c0.1-0.1,0.2-0.2,0.2-0.3c0.1-0.2,0.2-0.5,0.2-0.8c0-0.2,0-0.4,0-0.7c0-0.2,0-0.4-0.1-0.6c-0.1-0.2-0.2-0.3-0.3-0.5   c-0.1-0.1-0.3-0.2-0.5-0.3c-0.2-0.1-0.4-0.1-0.6-0.1c-0.1,0-0.3,0-0.4,0.1c-0.3,0.1-0.5,0.2-0.7,0.4c-0.1,0.1-0.2,0.2-0.2,0.3   c-0.1,0.3-0.2,0.5-0.2,0.8c0,0.2,0,0.4,0,0.7c0,0.2,0,0.4,0.1,0.6C165,87.7,165.1,87.8,165.2,88z"></path><path d="M151.4,59.2c0.1,0.1,0.2,0.2,0.3,0.3c0.1,0.1,0.3,0.2,0.5,0.3c0.2,0.1,0.4,0.1,0.6,0.1s0.4,0,0.6-0.1   c0.2-0.1,0.3-0.2,0.5-0.3c0.1-0.1,0.2-0.2,0.2-0.3c0.1-0.2,0.2-0.5,0.2-0.8c0-0.1,0-0.3-0.1-0.4c-0.1-0.3-0.2-0.5-0.4-0.7   c-0.1-0.1-0.2-0.2-0.3-0.3c-0.1-0.1-0.3-0.2-0.5-0.3c-0.2-0.1-0.4-0.1-0.6-0.1s-0.4,0-0.6,0.1c-0.2,0.1-0.3,0.2-0.5,0.3   c-0.1,0.1-0.2,0.2-0.2,0.3c-0.1,0.2-0.2,0.5-0.2,0.8c0,0.1,0,0.3,0.1,0.4C151.1,58.8,151.2,59,151.4,59.2z"></path><path d="M150.6,68.3c0.1,0.3,0.4,0.7,0.7,0.9c0.7,0.3,1.7,0.2,2.1-0.5c0.9-1.9,1.1-4.1,0.5-6.1c-0.2-0.8-1.1-1.3-1.8-1   c-0.8,0.2-1.3,1-1.1,1.8c0.1,0.2,0.1,0.4,0.2,0.7c0,0,0,0-0.1-0.1c0.1,0.5,0.1,1.1,0,1.7c0-0.1,0-0.1,0.1-0.2   c-0.1,0.6-0.3,1.2-0.5,1.8c0,0,0,0,0-0.1C150.6,67.6,150.5,67.9,150.6,68.3z"></path><path d="M159.6,63c0-0.2-0.1-0.4-0.3-0.5c-0.1-0.2-0.2-0.3-0.4-0.4c-0.3-0.2-0.8-0.3-1.2-0.2c-0.4,0.2-0.8,0.4-0.9,0.7   c-0.3,0.7-0.7,1.3-1,2c-0.1,0.2-0.2,0.4-0.2,0.6c0,0.2,0,0.4,0,0.6s0.1,0.4,0.3,0.5c0.1,0.2,0.2,0.3,0.4,0.4   c0.3,0.2,0.8,0.3,1.2,0.2c0.4-0.1,0.7-0.3,0.9-0.7c0.3-0.7,0.7-1.3,1-2c0.1-0.2,0.2-0.4,0.2-0.6C159.6,63.4,159.6,63.2,159.6,63z"></path><path d="M150,59.2c0.2-0.7-0.3-1.7-1-1.8c-1-0.3-1.8,0.1-2,0.9c-0.2,0.4-0.3,0.7-0.5,1s-0.5,0.6-0.8,0.8l0.1-0.1   c-0.3,0.2-0.7,0.5-1,0.6c-0.1,0.1-0.2,0.2-0.4,0.3c-0.2-0.1-0.4-0.1-0.6-0.1c-1.9,0-1.9,3,0,3c0.5,0,0.9-0.2,1.1-0.5   c0.1,0.1,0.2,0.1,0.3,0.1c0.1,0,0.3,0,0.4,0.1c0.3,0,0.5-0.1,0.8-0.2C148.1,62.6,149.4,61,150,59.2z"></path><path d="M145.8,55.3c1.9,0,1.9-3,0-3C143.9,52.3,143.9,55.3,145.8,55.3z"></path><path d="M137.2,61.5c-0.2,0-0.5,0-0.7,0c0.1,0,0.3,0,0.4,0.1C137,61.6,137.1,61.6,137.2,61.5z"></path><path d="M136,60.3C136,60.3,135.9,60.4,136,60.3C136,60.4,136,60.4,136,60.3z"></path><path d="M138.6,60.1L138.6,60.1v0.2c-0.1,0.2-0.2,0.4-0.3,0.4c0,0.1,0,0.1-0.1,0.2c-0.1,0.1-0.3,0.2-0.4,0.4   c0.2-0.2,0.2-0.2,0.1-0.1l-0.1,0.1c-0.1,0-0.1,0.1-0.2,0.1c-0.1,0-0.2,0.1-0.2,0.1c-0.2,0.1-0.3,0.1-0.5,0.1   c-0.1,0-0.3-0.1-0.4-0.1l-0.1-0.1l-0.1-0.1l-0.1-0.1c-0.1-0.1-0.1-0.1-0.1-0.2s0-0.1-0.1-0.2c0-0.1,0-0.2,0-0.3   c-0.1-0.1-0.1-0.1-0.1-0.1c0,0,0,0,0,0c0,0,0,0,0.1-0.1c-0.1,0.1-0.1,0,0,0c0,0,0,0.1,0,0.1c0.1-0.1,0.1-0.1,0.1-0.1   c0.3-0.2,0.4-0.7,0.4-1.1c0-0.4-0.2-0.8-0.4-1.1c-0.3-0.3-0.7-0.5-1.1-0.4c-0.5-0.1-0.8,0.1-1.1,0.3c-1,0.8-1.2,2.1-1,3.3   c0.2,1.1,1,2.1,1.9,2.6c1.3,0.7,2.8,0.5,4-0.1c1.2-0.6,2.1-1.8,2.6-3c0.3-0.7,0.3-1.4,0.2-2.1c-0.1-0.3-0.2-0.7-0.4-1   c-0.3-0.5-0.8-0.8-1.3-1c-0.3-0.1-0.9,0-1.2,0.2c-0.3,0.2-0.6,0.5-0.7,0.9c-0.1,0.4-0.1,0.8,0.2,1.2c0.1,0.2,0.3,0.3,0.5,0.5   c-0.1-0.2,0-0.1,0,0c0,0,0.1,0,0.1,0.1c0,0-0.1,0-0.1-0.1c0,0.1,0,0.1,0,0.2C138.7,59.8,138.6,59.9,138.6,60.1z M139.1,59.7   c0,0-0.1,0-0.1-0.1C139,59.7,139,59.7,139.1,59.7z"></path><path d="M128,52.7c0.1,0.2,0.2,0.3,0.4,0.4c0.1,0.1,0.3,0.2,0.5,0.3c0.1,0,0.3,0,0.4,0.1c0.3,0,0.5-0.1,0.8-0.2   c0.1-0.1,0.2-0.2,0.3-0.2c0.2-0.2,0.3-0.4,0.4-0.7c0.2-0.6,0.4-1.1,0.7-1.7c0.1-0.2,0.1-0.4,0-0.6c0-0.2-0.1-0.4-0.2-0.6   s-0.2-0.3-0.4-0.4c-0.1-0.1-0.3-0.2-0.5-0.3c-0.1,0-0.3,0-0.4-0.1c-0.3,0-0.5,0.1-0.8,0.2c-0.1,0.1-0.2,0.2-0.3,0.2   c-0.2,0.2-0.3,0.4-0.4,0.7c-0.2,0.6-0.4,1.1-0.7,1.7c-0.1,0.2-0.1,0.4,0,0.6C127.8,52.3,127.9,52.5,128,52.7z"></path><path d="M116.7,49.4c-0.7,0.4-0.7,1.4-0.1,2c1.8,1.8,4.4,2.5,6.9,1.8c0.8-0.2,1.3-1.1,1-1.8c-0.3-0.8-1-1.3-1.8-1   c-0.2,0.1-0.5,0.1-0.7,0.1c0.1,0,0.3,0,0.4-0.1c-0.4,0.1-0.9,0.1-1.3,0c0.1,0,0.1,0,0.2,0.1c-0.3,0-0.6-0.1-0.9-0.2   c-0.1,0-0.2,0-0.3-0.1c-0.1,0-0.1-0.1-0.2-0.1c-0.3-0.1-0.5-0.3-0.7-0.4c-0.1-0.1-0.2-0.2-0.4-0.3   C118.2,48.8,117.2,48.8,116.7,49.4z"></path><path d="M123.7,59.3c-0.1-0.2-0.2-0.3-0.4-0.4c-0.1-0.1-0.3-0.2-0.5-0.3c-0.2-0.1-0.4-0.1-0.6,0c-0.2,0-0.4,0.1-0.6,0.2   c-0.1,0.1-0.2,0.2-0.3,0.2c-0.2,0.2-0.3,0.4-0.4,0.7c0,0.1,0,0.3-0.1,0.4c0,0.3,0.1,0.5,0.2,0.8c0.1,0.2,0.2,0.4,0.3,0.7   c0.1,0.2,0.2,0.3,0.4,0.4c0.1,0.1,0.3,0.2,0.5,0.3c0.2,0.1,0.4,0.1,0.6,0c0.2,0,0.4-0.1,0.6-0.2c0.1-0.1,0.2-0.2,0.3-0.2   c0.2-0.2,0.3-0.4,0.4-0.7c0-0.1,0-0.3,0.1-0.4c0-0.3-0.1-0.5-0.2-0.8C123.9,59.8,123.8,59.6,123.7,59.3z"></path><path d="M120.3,45.1c-0.2,0-0.4,0.1-0.6,0.2c-0.2,0.1-0.3,0.2-0.4,0.4c-0.1,0.1-0.2,0.3-0.3,0.5c0,0.1,0,0.3-0.1,0.4   c0,0.3,0.1,0.5,0.2,0.8c0.1,0.1,0.2,0.2,0.2,0.3c0.2,0.2,0.4,0.3,0.7,0.4c0.4,0.1,0.9,0.2,1.3,0.3c0.2,0.1,0.4,0.1,0.6,0   c0.2,0,0.4-0.1,0.6-0.2c0.2-0.1,0.3-0.2,0.4-0.4c0.1-0.1,0.2-0.3,0.3-0.5c0-0.1,0-0.3,0.1-0.4c0-0.3-0.1-0.5-0.2-0.8   c-0.1-0.1-0.2-0.2-0.2-0.3c-0.2-0.2-0.4-0.3-0.7-0.4c-0.4-0.1-0.9-0.2-1.3-0.3C120.7,45,120.5,45,120.3,45.1z"></path><path d="M106.4,62.9c0,0.1,0,0.3-0.1,0.4c0,0.1,0,0.1,0.1,0.2C106.4,63.3,106.4,63.1,106.4,62.9z"></path><path d="M124.8,40.8l-0.1,0.1C124.7,40.9,124.7,40.9,124.8,40.8z"></path><path d="M125,39.8c0-0.1,0-0.2-0.1-0.2C124.9,39.7,125,39.8,125,39.8z"></path><path d="M124.9,39.6c0.1,0.1,0.1,0.1,0.1,0.1L124.9,39.6z"></path><path d="M121,41.5c0.3,1.1,1.2,2,2.3,2.4c1,0.4,2.2,0.2,3.1-0.3c0.9-0.5,1.7-1.5,1.8-2.5c0.1-0.7,0.1-1.3-0.1-2   c-0.2-0.7-0.5-1.2-1-1.7c-0.2-0.3-0.7-0.4-1.1-0.4s-0.8,0.2-1.1,0.4c-0.3,0.3-0.5,0.7-0.4,1.1c0,0.3,0.1,0.6,0.3,0.9   c0,0,0,0.1,0,0.1c0,0,0,0,0,0s0,0,0.1,0.1c0,0,0,0,0,0c0,0,0.1,0.1,0.1,0.1c0.1,0.1,0.1,0.2,0.1,0.3c-0.1-0.1-0.1-0.1-0.1-0.2   c0,0.1,0,0.1,0,0.2c0,0.2,0,0.3,0,0.5c0,0,0-0.2,0.1-0.3c0,0.1,0,0.2-0.1,0.3c0,0,0,0.1,0,0.1c-0.1,0.1-0.1,0.2-0.2,0.2   c0,0,0,0,0.1,0c-0.1,0-0.1,0-0.1,0.1c0,0,0,0,0-0.1c0,0,0,0.1,0,0.1c0,0,0,0-0.1,0c0,0,0,0-0.1,0c0,0,0,0-0.1,0   c0,0-0.1,0.1-0.2,0.1l0.1-0.1c0,0-0.1,0-0.2,0c0,0,0.1,0,0.1-0.1c-0.2,0-0.3,0-0.5,0l-0.1-0.1c0-0.1,0-0.1-0.1-0.2   c0-0.2,0-0.3,0-0.5c0,0.1,0,0.2-0.1,0.3c0-0.1,0.1-0.2,0.1-0.4c0.2-0.3,0.2-0.8,0.2-1.2c-0.1-0.3-0.4-0.7-0.7-0.9   c-0.3-0.2-0.8-0.3-1.2-0.2c-0.1,0.1-0.2,0.1-0.4,0.2c0.1,0.3-0.1,0.5-0.3,0.7C120.8,39.4,120.7,40.6,121,41.5z M124.2,41.1   c-0.1,0-0.1,0-0.2,0C124.1,41,124.2,41,124.2,41.1z"></path><path d="M124.6,40.9c0,0,0.1,0,0.2-0.1C124.7,40.8,124.7,40.8,124.6,40.9z"></path><path d="M129.2,37.2c-0.1,0.7-0.1,1.4,0,2.2c0.1,0.3,0.2,0.7,0.4,1c0.2,0.3,0.4,0.6,0.6,0.9c0.1,0.1,0.3,0.2,0.5,0.3   c0.2,0.1,0.4,0.1,0.6,0.1c0.4,0,0.8-0.2,1.1-0.4c0.3-0.3,0.5-0.7,0.4-1.1c0-0.1,0-0.3-0.1-0.4c-0.1-0.2-0.1-0.3-0.2-0.5v0.1   c-0.2-0.2-0.3-0.4-0.4-0.7c0.1,0.1,0.1,0.2,0.2,0.4c-0.1-0.2-0.1-0.3-0.2-0.5c0,0,0,0,0.1,0c0-0.3,0-0.6,0-0.9c0,0.1,0,0.3-0.1,0.4   c0-0.1,0-0.1,0-0.2c0.1-0.2,0.1-0.4,0-0.6c0-0.2-0.1-0.4-0.2-0.6c-0.2-0.3-0.5-0.6-0.9-0.7c-0.4-0.1-0.8-0.1-1.2,0.2   C129.6,36.5,129.3,36.9,129.2,37.2z"></path><path d="M138.6,46.8C138.6,46.9,138.6,46.9,138.6,46.8C138.6,46.9,138.6,46.9,138.6,46.8C138.6,46.9,138.6,46.9,138.6,46.8z"></path><path d="M137.1,43.6c0-0.1,0.1-0.1,0.1-0.2c0.1-0.1,0.1-0.2,0.2-0.3c0.2-0.2,0.4-0.5,0.6-0.7c0.5-0.6,0.6-1.6,0-2.1   c-0.9-0.1-1.9-0.2-2.5,0.4c-0.8,0.8-1.5,1.7-2,2.8c-0.1,0.3-0.2,0.5-0.3,0.8c-1.4-0.3-2.9-0.3-4.3,0c-0.8,0.2-1.3,1.1-1,1.8   c0.2,0.7,1,1.1,1.8,0.9c0.3-0.1,0.5-0.1,0.8-0.1c-0.1,0-0.3,0-0.4,0.1c0.6-0.1,1.2-0.1,1.8,0c-0.1,0-0.1,0-0.2-0.1   c0.5,0.1,1,0.2,1.5,0.4c0.4,1.1,1.3,1.8,2.4,2.3c0.9,0.3,1.9,0.5,2.8,0.4c0.1,0,0.2,0,0.3,0l-0.1,0.1c-1,1.9-0.7,4.3,0.9,5.8   c0.6,0.5,1.6,0.6,2.1,0c0.5-0.6,0.6-1.5,0-2.1l-0.1-0.1c0-0.1,0-0.1-0.1-0.2c0,0,0,0,0,0c-0.1-0.2-0.2-0.3-0.2-0.5   c0.1,0.1,0.1,0.2,0.2,0.4c-0.1-0.2-0.1-0.3-0.2-0.5c0,0,0,0,0.1,0c0-0.3,0-0.6,0-0.9c0,0.1,0,0.3-0.1,0.4c0-0.3,0.1-0.6,0.2-0.8   c-0.1,0.1-0.1,0.2-0.2,0.4c0-0.1,0.1-0.2,0.1-0.3c0.4-0.7,0.2-1.7-0.5-2.1c-0.2-0.1-0.4-0.1-0.5-0.2c0.5-0.4,1-0.9,1.1-1.6   c0.2-0.8-0.2-1.7-1-1.8c-0.7-0.2-1.5,0.2-1.8,0.8c0,0,0,0,0.1,0c0-0.1,0.1-0.1,0,0c0,0.1,0,0.1-0.1,0.1l0,0h0c-0.1,0-0.1,0-0.2,0   c-0.1,0-0.2,0-0.4,0h-0.1c-0.1,0-0.1,0-0.2,0c-0.2,0-0.4-0.1-0.6-0.2c-0.1,0-0.2,0-0.3-0.1c-0.1,0-0.1,0-0.1-0.1   c-0.1,0-0.1-0.1-0.2-0.1c0.2,0.1,0.2,0.2,0,0c0.1,0.2-0.1-0.1-0.1-0.1s0,0,0-0.1s-0.1-0.2-0.1-0.3s0-0.1,0-0.1s0,0,0-0.1   c0-0.1,0-0.1,0-0.2c0-0.1,0.1-0.3,0-0.4c0-0.1,0.1-0.2,0.1-0.4c0-0.1,0-0.1,0.1-0.1c0.1-0.1,0.1-0.2,0.2-0.3   C136.8,44.1,137,43.9,137.1,43.6z"></path><path d="M141.9,42.4c-2,0-2,3,0,3C143.8,45.4,143.8,42.4,141.9,42.4z"></path><path d="M142.4,51c0.3,0.3,0.7,0.5,1.1,0.4c0.1,0,0.3,0,0.4-0.1c0.3-0.1,0.5-0.2,0.7-0.4c0.6-0.4,1.1-0.9,1.7-1.3   c0.1-0.1,0.2-0.3,0.3-0.5c0.1-0.2,0.1-0.4,0.1-0.6s0-0.4-0.1-0.6c-0.1-0.2-0.2-0.3-0.3-0.5c-0.3-0.3-0.7-0.5-1.1-0.4   c-0.1,0-0.3,0-0.4,0.1c-0.3,0.1-0.5,0.2-0.7,0.4c-0.6,0.4-1.1,0.9-1.7,1.3c-0.1,0.1-0.2,0.3-0.3,0.5c-0.1,0.2-0.1,0.4-0.1,0.6   c0,0.2,0,0.4,0.1,0.6C142.2,50.7,142.3,50.8,142.4,51z"></path><path d="M135.6,51.4c0,0,0,0-0.1-0.1C135.6,51.4,135.6,51.4,135.6,51.4C135.6,51.4,135.6,51.4,135.6,51.4z"></path><path d="M134.9,50.5c-0.2-0.1-0.4-0.2-0.6-0.2s-0.4,0-0.6,0c-0.4,0.1-0.7,0.3-0.9,0.7c-0.1,0.5-0.2,0.9-0.1,1.3   c0.2,0.8,0.8,1.5,1.5,1.9c0.2,0.1,0.4,0.2,0.7,0.3c0.1,0,0.2,0.1,0.3,0.1c0.2,0,0.5,0.1,0.7,0.1c0.2,0,0.5,0,0.7-0.1   c0.2,0,0.4-0.1,0.5-0.3c0.2-0.1,0.3-0.2,0.4-0.4c0.1-0.2,0.2-0.4,0.2-0.6s0-0.4,0-0.6c-0.1-0.4-0.3-0.7-0.7-0.9   c-0.1-0.1-0.2-0.1-0.4-0.2c-0.2-0.1-0.4-0.1-0.6,0c0,0,0,0,0.1-0.1c-0.2,0-0.3,0-0.4,0c0,0,0,0-0.1-0.1c0,0,0,0,0,0c0,0,0,0,0,0   c0,0,0,0,0,0l0,0c-0.1,0-0.1,0-0.1-0.1v-0.1c0,0,0,0.1,0.1,0.1C135.5,51,135.2,50.7,134.9,50.5z M135.9,51.6   C135.9,51.6,135.8,51.6,135.9,51.6h-0.1c0,0,0,0-0.1,0C135.8,51.5,135.9,51.5,135.9,51.6z"></path><path d="M168.5,95.9c-0.2,0-0.4,0-0.6,0s-0.4,0.1-0.5,0.3c-0.2,0.1-0.3,0.2-0.4,0.4c-0.2,0.3-0.3,0.8-0.2,1.2   c0.1,0.1,0.1,0.2,0.2,0.4c0.1,0.2,0.3,0.4,0.5,0.5c0.7,0.4,1.3,0.9,2,1.3c0.2,0.1,0.4,0.2,0.6,0.2c0.2,0,0.4,0,0.6,0   s0.4-0.1,0.5-0.3c0.2-0.1,0.3-0.2,0.4-0.4c0.2-0.3,0.3-0.8,0.2-1.2c-0.1-0.1-0.1-0.2-0.2-0.4c-0.1-0.2-0.3-0.4-0.5-0.5   c-0.7-0.4-1.3-0.9-2-1.3C168.9,96,168.7,95.9,168.5,95.9z"></path><path d="M170.6,104.2c-0.8,0-1.2,0.5-1.4,1.1c-0.3-0.1-0.6-0.1-0.9,0c-0.8,0.3-1.3,1-1,1.8c0,0.1,0,0.1,0,0.2   c0,0.1-0.1,0.3-0.1,0.4c0,0.1-0.1,0.1-0.2,0.2c0,0,0,0,0.1,0c-0.1,0-0.1,0.1-0.2,0.1c0,0-0.1,0-0.2,0c-0.2,0-0.3,0-0.5,0   c0.1,0,0.2,0,0.3,0.1c-0.1,0-0.3-0.1-0.4-0.1c-0.1-0.1-0.2-0.2-0.3-0.3c-0.2-0.3-0.7-0.4-1.1-0.4c-0.4,0-0.8,0.2-1.1,0.4   c-0.9,0.6-0.8,1.5-0.3,2.1c1.2,1.3,3.2,1.6,4.8,0.8c1.3-0.7,2-2.2,2-3.6c0.1,0,0.3,0.1,0.4,0.1   C172.5,107.2,172.5,104.2,170.6,104.2z"></path><path d="M32.1,97.6c0,0.1,0,0.3-0.1,0.4c0,0.1,0,0.3,0.1,0.4C32.1,98.1,32.1,97.9,32.1,97.6z"></path><path d="M33.5,98.5c-0.3,0-0.5,0.1-0.7,0.2c-0.2,0-0.3,0-0.5,0c0,0,0,0,0,0c0,0,0,0-0.1,0c0,0-0.1,0-0.1,0c0,0-0.1,0-0.1,0   c0,0,0,0-0.1,0c0-0.1,0-0.2,0.1-0.3c0,0-0.1-0.1-0.1-0.1c0,0,0.1,0.1,0.1,0.1c0-0.2,0-0.2,0-0.4c0.1-0.6,0.3-1.2,0.5-1.8   c0.1-0.3,0-0.9-0.2-1.2s-0.5-0.6-0.9-0.7c-0.4-0.1-0.8-0.1-1.2,0.2c-0.2,0.2-0.4,0.5-0.6,0.9c-0.5,1.2-0.9,2.7-0.4,3.9   c0.3,0.7,0.8,1.3,1.4,1.8c0.7,0.4,1.5,0.6,2.3,0.4c0.1,0,0.1,0,0.2-0.1c0.1,0,0.3,0.1,0.4,0.1C35.4,101.5,35.4,98.5,33.5,98.5z"></path><path d="M32,98.5c0-0.1,0-0.1,0-0.1C32,98.4,32,98.4,32,98.5C32,98.4,32,98.5,32,98.5z"></path></g></svg>