<svg xmlns="http://www.w3.org/2000/svg" version="1.1" viewBox="11.52 11.34 78.3 78.3"> <path d="m62.172 60.578c-0.67969-0.17969-1.1602-0.82812-1.1602-1.5586v-4.3984c3.5312-5.2617 4.8906-12.691 4.8906-17.031 0-8.3203-6.7695-15.078-15.078-15.078-8.3203 0-15.09 6.7695-15.09 15.078 0 4.1797 1.2812 11.25 4.5312 16.461v5.0117c0 0.73047-0.46875 1.3711-1.1484 1.5586-8.3711 2.3086-13.359 6.7891-13.359 11.988 0 1.1016 0.89844 2 2 2 1.1016 0 2-0.89844 2-2 0-3.1914 4.0898-6.3906 10.422-8.1289 2.4102-0.66016 4.0898-2.8906 4.0898-5.4102v-0.55078c1.8281 1.3398 4 2.1602 6.5508 2.1602 2.3906 0 4.4414-0.71875 6.1914-1.8984v0.23828c0 2.5391 1.6914 4.7695 4.1094 5.4219 6.4297 1.7383 10.59 4.9492 10.59 8.1797 0 1.1016 0.89844 2 2 2 1.1016 0 2-0.89844 2-2 0-5.25-5.0625-9.75-13.539-12.043zm-11.352-3.8984c-7.7383 0-11.09-12.641-11.09-19.078 0-6.1094 4.9688-11.078 11.09-11.078 6.1211-0.003907 11.078 4.957 11.078 11.078 0 4.1992-1.4219 11.02-4.5508 15.27v0.011718c-1.668 2.2578-3.8281 3.7969-6.5273 3.7969z"></path> <path d="m50.672 11.34c-21.59 0-39.148 17.559-39.148 39.148 0 21.59 17.559 39.148 39.148 39.148s39.148-17.559 39.148-39.148c0-21.59-17.559-39.148-39.148-39.148zm0 74.301c-19.379 0-35.148-15.77-35.148-35.148 0-19.379 15.77-35.148 35.148-35.148s35.148 15.77 35.148 35.148c0 19.379-15.77 35.148-35.148 35.148z"></path></svg>